<svg xmlns="http://www.w3.org/2000/svg" xmlns:xlink="http://www.w3.org/1999/xlink" viewBox="0 0 320.644 398.913">
    <defs>
        <clipPath id="prefix__a" transform="translate(-2.426 -2.622)">
            <path
                d="M255.122 162.543L273.1 156.4l-15-21.3 20.842-15.623-20.842-15.618 15-21.299-24.65-8.418 7.679-24.89-26.045-.389-.389-26.044L204.8 30.5l-8.414-24.652-21.3 14.994L159.463 0 143.84 20.842l-21.3-14.994-8.416 24.652-24.89-7.678-.389 26.044-26.045.386 7.679 24.89-24.65 8.418 14.994 21.3-20.842 15.622L60.823 135.1l-14.994 21.3 24.65 8.418-9.179 24.471-2.872 7.34C38.29 249.446 0 359.4 0 359.4l61.191-19.489L92.6 408.416l62-170.64 4.864 1.189 10.646-14.2 70.933 152.375 25-64.383 60.425 13.361z"
                fill="none" />
        </clipPath>
        <style>
            .prefix__c,
            .prefix__d,
            .prefix__e,
            .prefix__i,
            .prefix__j {
                fill: none;
                stroke: #ffc400;
                stroke-linecap: round;
                stroke-linejoin: round
            }

            .prefix__c,
            .prefix__d,
            .prefix__e {
                stroke-width: 4px
            }

            .prefix__c {
                stroke-dasharray: 12 10 72 7 65 1
            }

            .prefix__d {
                stroke-dasharray: 12 10 72 23 55 1
            }

            .prefix__i,
            .prefix__j {
                stroke-width: 3px;
                stroke-dasharray: 10 6 8 0 0 0
            }

            .prefix__j {
                stroke-width: 2.3px
            }
        </style>
    </defs>
    <g clip-path="url(#prefix__a)">
        <path class="prefix__c" d="M251.383 168.391l67.261 150.011-57.408-12.337-22.939 61.142-61.533-132.929" />
        <path class="prefix__d" d="M145.216 242.247L89.661 396.914l-28.507-65.523L2 351.625l62.052-170.568" />
        <circle class="prefix__c" cx="155.915" cy="116.884" r="86.409" />
        <path class="prefix__c"
            d="M82.323 116.884a73.592 73.592 0 0173.592-73.592M250.759 101.862l14.417-20.479-23.701-8.094 7.383-23.932-25.042-.374-.374-25.042-23.932 7.383-8.094-23.701-20.479 14.417L155.915 2l-15.021 20.04-20.479-14.417-8.094 23.701-23.932-7.383-.374 25.042-25.042.374 7.383 23.932-23.701 8.094 14.417 20.479-20.04 15.022 20.04 15.021-14.417 20.48 23.701 8.094-7.383 23.931 25.042.374.374 25.042 23.932-7.383 8.094 23.701 20.479-14.417 15.021 20.04 15.022-20.04 20.479 14.417 8.094-23.701 23.932 7.383.374-25.042 25.042-.374-7.383-23.931 23.701-8.094-14.417-20.48 20.04-15.021-20.04-15.022z" />
        <path class="prefix__c" d="M129.933 73.148h43.641v90.03h-26.035V86.946h-17.606z" />
        <path class="prefix__e" d="M258.225 205.875l2.456 5.475" />
        <path stroke-dasharray="41.205 13.163 31.476 .572" class="prefix__c" stroke-width="4" stroke="#fff" stroke-linecap="round"
            stroke-linejoin="round" fill="none" d="M263.024 216.571l35.257 78.584" />
        <path class="prefix__e" d="M298.398 295.416l2.456 5.474" />
        <path stroke-dasharray="1 11 14 8 33 1" stroke-width="4" class="prefix__c" stroke="#fff" stroke-linecap="round"
            stroke-linejoin="round" fill="none" d="M252.543 261.502l-22.604-50.383" />
        <path class="prefix__d"
            d="M109.093 311.867l-16.972 48.226M68.141 202.281L26.101 315M78.928 224.639L62.769 267.9M121.176 235.721L83.589 343.87" />
        <path stroke-dasharray="36 10 72 23 55 1" stroke-width="4" class="prefix__c" stroke="#fff" stroke-linecap="round"
            stroke-linejoin="round" fill="none" d="M201.507 255.137l36.354 81.03" />
        <path class="prefix__d" d="M224.953 225.415l36.354 81.029" />
        <path class="prefix__i"
            d="M183.006 182.178a21.311 21.311 0 009.074.483c9.957-1.763 12.951-10.847 13.144-11.473-1.527-.179-10.425-1.1-17.014 3.917a15.129 15.129 0 00-5.204 7.073zM199.326 161.009a25.9 25.9 0 0011.395-1.693c11.643-4.8 11.921-17.225 11.924-18.078-1.954.161-13.3 1.247-19.552 9.365a18.119 18.119 0 00-3.767 10.406zM209.885 136.36a24.1 24.1 0 0010.761-3.229c10.382-6.366 8.178-18.817 8.011-19.67-1.872.424-12.7 3.038-17.177 11.993a17.963 17.963 0 00-1.595 10.906zM134.474 181.754a18.974 18.974 0 01-7.846 1.98c-9 .169-13.181-7.255-13.457-7.769 1.3-.418 8.921-2.75 15.54.5a13.477 13.477 0 015.763 5.289zM116.581 166.059a23.071 23.071 0 01-10.249.477c-11-2.2-13.375-13-13.524-13.749 1.735-.2 11.835-1.195 18.693 4.825a16.146 16.146 0 015.08 8.447zM103.121 146.332a21.459 21.459 0 01-9.958-.973c-10.166-3.78-10.378-15.039-10.378-15.813 1.708.049 11.622.474 17.069 7.53a16 16 0 013.267 9.256zM213.193 113.601a21.157 21.157 0 009.39-5.226c8.154-8.265 2.583-20.192 2.186-21.006-1.671.773-11.3 5.4-13.084 15.121a18.964 18.964 0 001.508 11.111z" />
        <path class="prefix__j"
            d="M209.798 87.369a14.112 14.112 0 005.831-5.2c4.328-7.336-2.1-15.607-2.548-16.169-1.069.807-7.192 5.592-6.578 13.177a16.021 16.021 0 003.295 8.192zM197.679 71.284a14.115 14.115 0 003.474-7c1.285-8.42-7.759-13.7-8.387-14.058-.691 1.147-4.591 7.869-1.2 14.679a16.015 16.015 0 006.113 6.379z" />
        <path id="prefix__hl" stroke="#ffffff" stroke-width="30" stroke-linecap="round" stroke-linejoin="round"
            d="M0 0l400 200" />
        <animateTransform xlink:href="#prefix__hl" attributeName="transform" attributeType="XML" type="translate"
            values="0 -50;0 400;0 400" keyTimes="0; 0.10;1" dur="4s" begin="0s" repeatCount="indefinite"
            fill="freeze" />
    </g>
</svg>