<?xml version="1.0" encoding="utf-8"?>
<!-- Generator: Adobe Illustrator 24.1.1, SVG Export Plug-In . SVG Version: 6.00 Build 0)  -->
<svg version="1.1" id="Layer_1" xmlns="http://www.w3.org/2000/svg" xmlns:xlink="http://www.w3.org/1999/xlink" x="0px" y="0px"
	 viewBox="0 0 56.1 62.8" style="enable-background:new 0 0 56.1 62.8;" xml:space="preserve">
<style type="text/css">
	.st0{fill:#162029;}
	.st1{fill:url(#SVGID_1_);}
	.st2{fill:#FFFFFF;}
	.st3{opacity:0.5;fill:url(#SVGID_2_);enable-background:new    ;}
	.st4{fill:url(#SVGID_3_);}
	.st5{opacity:0.5;fill:url(#SVGID_4_);enable-background:new    ;}
	.st6{opacity:0.2;enable-background:new    ;}
	.st7{fill:url(#SVGID_5_);}
	.st8{fill:#F3F3F3;}
	.st9{fill:url(#SVGID_6_);}
	.st10{fill:url(#SVGID_7_);}
	.st11{fill:url(#SVGID_8_);}
	.st12{fill:url(#SVGID_9_);}
	.st13{fill:#8B8B8B;}
	.st14{fill:#424242;}
	.st15{opacity:0.2;fill:#7E7E7E;enable-background:new    ;}
	.st16{fill:#6C6C6C;}
	.st17{opacity:0.3;fill:url(#SVGID_10_);enable-background:new    ;}
	.st18{opacity:0.3;fill:url(#SVGID_11_);enable-background:new    ;}
	.st19{opacity:0.6;fill:#797979;enable-background:new    ;}
	.st20{opacity:0.2;fill:#A4A4A4;enable-background:new    ;}
	.st21{opacity:0.2;fill:#797979;enable-background:new    ;}
	.st22{opacity:0.4;fill:#F3F3F3;enable-background:new    ;}
</style>
<g>
	<g id="Layer_2_1_">
		<g id="Layer_1-2">
			<g>
				<g>
					<g>
						<polygon class="st0" points="30.5,28.6 30.5,28.6 30.4,28.9 29.2,31.7 28.4,33.6 28.4,33.6 28.1,34.2 27.6,35.6 27.1,36.8 
							25.9,39.4 16.2,62 16.1,62.2 16,62.3 16,62.3 15.8,62.4 15.1,62.6 10.3,53.3 10.3,53.3 7.9,53.8 6.7,54.1 5.9,54.3 2.9,55 
							0.9,55.5 0.9,55.5 0.9,55.5 0,55.7 11,31.3 13.8,25.2 15.4,21.8 15.4,21.8 15.9,22 16,22.1 17.5,22.8 19.8,23.8 20.4,24.1 
							21.2,24.4 26.2,26.7 27,27.1 27,27.1 27.5,27.3 27.5,27.3 28,27.5 28,27.5 28,27.5 29,27.9 29,27.9 29.8,28.3 						"/>
						
							<linearGradient id="SVGID_1_" gradientUnits="userSpaceOnUse" x1="25.997" y1="35.5718" x2="6.401" y2="8.5478" gradientTransform="matrix(1 0 0 -1 0 63.8898)">
							<stop  offset="0.157" style="stop-color:#818F9C"/>
							<stop  offset="0.525" style="stop-color:#73869A"/>
							<stop  offset="0.682" style="stop-color:#617A93"/>
							<stop  offset="0.799" style="stop-color:#4C5359"/>
							<stop  offset="0.896" style="stop-color:#586775"/>
							<stop  offset="0.98" style="stop-color:#4D565E"/>
							<stop  offset="1" style="stop-color:#454E57"/>
						</linearGradient>
						<polygon class="st1" points="31.4,28.4 31.2,28.8 31.1,29 30.9,29.4 30.9,29.4 29.5,32.4 29.5,32.4 28.7,34.2 28.7,34.3 
							28.4,34.9 28.1,35.6 26.8,38.6 16.2,62 16.1,62.2 16,62.3 15.2,60.5 13.7,57.8 13.4,57.2 12.8,56.1 12.8,56.1 11.2,53 
							10.3,53.3 7.9,54 6.6,54.2 5.9,54.4 2.9,55.1 2.5,55.1 0.9,55.5 0.9,55.5 0.9,55.5 11.8,31.4 11.8,31.4 14.2,26.1 16,22.1 
							16.2,21.6 17.8,22.2 20,23.3 20.6,23.5 21.5,23.9 26.4,26.1 27.3,26.5 27.8,26.8 27.8,26.8 28.7,27.2 28.7,27.2 29.7,27.6 
							29.7,27.6 30,27.8 30.2,27.9 31,28.2 31.3,28.3 						"/>
						<polygon class="st2" points="20,23.3 19.8,23.8 5.9,54.3 5.9,54.3 5.9,54.4 2.9,55.1 2.9,55 2.9,55 17.5,22.8 17.8,22.2 
													"/>
						<polygon class="st2" points="30,27.8 15.2,60.5 13.7,57.8 27.8,26.8 						"/>
						<polygon class="st2" points="27.3,26.5 13.4,57.2 12.8,56.1 26.4,26.2 						"/>
						<polygon class="st2" points="21.5,23.9 21.2,24.4 7.9,53.8 7.9,53.9 7.9,54 6.6,54.2 6.7,54.1 6.7,54.1 20.4,24.1 20.6,23.5 
													"/>
						
							<linearGradient id="SVGID_2_" gradientUnits="userSpaceOnUse" x1="16.1155" y1="35.5868" x2="16.1155" y2="2.5398" gradientTransform="matrix(1 0 0 -1 0 63.8898)">
							<stop  offset="0" style="stop-color:#858585"/>
							<stop  offset="5.000000e-03" style="stop-color:#888888"/>
							<stop  offset="7.500000e-02" style="stop-color:#ACACAC"/>
							<stop  offset="0.149" style="stop-color:#CACACA"/>
							<stop  offset="0.227" style="stop-color:#E2E2E2"/>
							<stop  offset="0.309" style="stop-color:#F2F2F2"/>
							<stop  offset="0.401" style="stop-color:#FCFCFC"/>
							<stop  offset="0.52" style="stop-color:#FFFFFF"/>
							<stop  offset="0.595" style="stop-color:#FAFAFA"/>
							<stop  offset="0.686" style="stop-color:#EBEBEB"/>
							<stop  offset="0.785" style="stop-color:#D3D3D3"/>
							<stop  offset="0.89" style="stop-color:#B1B1B1"/>
							<stop  offset="0.998" style="stop-color:#868686"/>
							<stop  offset="1" style="stop-color:#858585"/>
						</linearGradient>
						<polygon class="st3" points="31.4,28 31.3,28.3 31.2,28.7 31.1,29 30.9,29.4 30.9,29.4 29.5,32.4 29.5,32.4 28.7,34.2 
							28.7,34.3 28.4,34.9 28.1,35.6 26.8,38.6 26.8,38.6 16.2,62 16.1,62.2 16,62.3 16,62.3 15.8,62.4 15.1,62.6 15.1,62.6 
							10.3,53.3 7.9,54 6.6,54.2 5.9,54.4 2.9,55.1 2.5,55.1 0.9,55.5 0.9,55.1 11.6,31.4 15.9,22 16.2,21.2 29.1,27 30,27.4 
							30.1,27.4 30.8,27.7 						"/>
					</g>
					<g>
						<polygon class="st0" points="56.1,54.7 55.9,55.7 45.4,52.7 40.9,62.8 30.8,40.2 28.4,34.9 28.1,34.2 28.1,34.2 27.6,33.1 
							26.3,30.1 26,29.4 25.9,29.3 26,29.3 26.4,29.1 26.4,29.1 26.8,28.9 27.8,28.5 29,27.9 29,27.9 29,27.9 29.7,27.6 29.7,27.6 
							30,27.5 30.1,27.4 30.5,27.2 31.4,26.9 36.3,24.6 37.2,24.2 37.8,24 40,23 41.1,22.5 42.9,26.5 44.2,29.2 44.2,29.2 
							44.7,30.3 						"/>
						
							<linearGradient id="SVGID_3_" gradientUnits="userSpaceOnUse" x1="47.079" y1="10.6688" x2="35.561" y2="33.0708" gradientTransform="matrix(1 0 0 -1 0 63.8898)">
							<stop  offset="0.157" style="stop-color:#818F9C"/>
							<stop  offset="0.525" style="stop-color:#73869A"/>
							<stop  offset="0.682" style="stop-color:#617A93"/>
							<stop  offset="0.799" style="stop-color:#4C5359"/>
							<stop  offset="0.896" style="stop-color:#586775"/>
							<stop  offset="0.98" style="stop-color:#4D565E"/>
							<stop  offset="1" style="stop-color:#454E57"/>
						</linearGradient>
						<polygon class="st4" points="56.1,54.7 53.9,54.1 53.9,54.1 50.9,53.3 50,53 48.9,52.7 48.9,52.7 45.5,51.8 44,55.1 
							43.5,56.2 43.1,56.9 42.2,58.8 41.8,59.8 41.8,59.8 40.9,61.6 32.8,43.3 31.1,39.6 29.3,35.7 28.7,34.3 28.7,34.3 28.4,33.6 
							28.4,33.6 28.4,33.5 28.4,33.5 27.9,32.4 26.6,29.4 26.6,29.4 26.4,29.1 26.3,28.7 26.3,28.7 26.1,28.4 26.1,28.4 26.5,28.2 
							26.5,28.2 27.3,27.9 27.5,27.8 28,27.5 28,27.5 28.7,27.2 28.7,27.2 29.1,27 29.7,26.8 30.2,26.5 31.1,26.1 36,23.9 
							36.9,23.5 36.9,23.5 37.5,23.3 39.7,22.3 41.2,21.6 41.2,21.6 43.3,26.3 43.5,26.6 						"/>
						<polygon class="st2" points="53.9,54.1 53.9,54.1 50.9,53.3 41,31.2 37.8,24 37.5,23.3 39.7,22.2 39.7,22.3 40,23 43.5,30.7 
													"/>
						<polygon class="st2" points="43.1,56.9 42.2,58.8 41.8,59.8 32,37.9 29.5,32.4 29.2,31.7 29.2,31.6 28.7,30.6 27.8,28.5 
							27.5,27.8 28,27.5 28,27.5 28.7,27.2 28.7,27.2 29.1,27 29.7,26.8 30,27.4 30,27.5 30.2,27.9 30.9,29.4 35.2,39.1 						"/>
						<polygon class="st2" points="44,55.1 43.5,56.2 35.8,39.1 31.2,28.8 31.2,28.7 31,28.2 30.8,27.7 30.5,27.2 30.2,26.5 
							31.1,26.1 31.4,26.9 36.4,38 						"/>
						<polygon class="st2" points="50,53 48.9,52.7 41.1,35.3 36.3,24.6 36,23.9 36.9,23.5 36.9,23.5 37.2,24.2 40.7,32.2 						"/>
						
							<linearGradient id="SVGID_4_" gradientUnits="userSpaceOnUse" x1="41.081" y1="35.4488" x2="41.081" y2="3.4868" gradientTransform="matrix(1 0 0 -1 0 63.8898)">
							<stop  offset="0" style="stop-color:#858585"/>
							<stop  offset="5.000000e-03" style="stop-color:#888888"/>
							<stop  offset="7.500000e-02" style="stop-color:#ACACAC"/>
							<stop  offset="0.149" style="stop-color:#CACACA"/>
							<stop  offset="0.227" style="stop-color:#E2E2E2"/>
							<stop  offset="0.309" style="stop-color:#F2F2F2"/>
							<stop  offset="0.401" style="stop-color:#FCFCFC"/>
							<stop  offset="0.52" style="stop-color:#FFFFFF"/>
							<stop  offset="0.595" style="stop-color:#FAFAFA"/>
							<stop  offset="0.686" style="stop-color:#EBEBEB"/>
							<stop  offset="0.785" style="stop-color:#D3D3D3"/>
							<stop  offset="0.89" style="stop-color:#B1B1B1"/>
							<stop  offset="0.998" style="stop-color:#868686"/>
							<stop  offset="1" style="stop-color:#858585"/>
						</linearGradient>
						<polygon class="st5" points="56.1,54.7 53.9,54.1 53.9,54.1 50.9,53.3 50,53 48.9,52.7 48.9,52.7 46.4,52 45.5,51.8 44,55.1 
							43.5,56.2 43.1,56.9 42.2,58.8 41.8,59.8 41.8,59.8 40.9,61.6 40.9,61.6 32.8,43.3 31.1,39.6 29.3,35.7 28.7,34.2 28.4,33.6 
							28.4,33.6 28.4,33.5 28.4,33.5 27.9,32.4 26.6,29.4 26.4,29.1 26.3,28.7 26.1,28.4 26.5,28.2 26.5,28.2 27.3,27.9 27.5,27.8 
							28,27.5 28,27.5 28.7,27.2 28.7,27.2 29.1,27 29.7,26.8 30.2,26.5 31.1,26.1 36,23.9 36.9,23.5 36.9,23.5 37.5,23.3 
							39.7,22.3 39.7,22.2 41.2,21.6 43.3,26.3 						"/>
						<polygon class="st6" points="44.7,30.3 44.7,30.3 44,30.6 43.5,30.7 41,31.2 40.6,31.3 40.7,32.2 41.1,35.3 41.1,35.3 
							40.5,35.6 36.9,35.2 36.4,38 36.2,39 35.8,39.1 35.5,39.3 35.2,39.1 32.1,37.7 32,37.9 31.1,39.6 30.8,40.2 28.4,34.9 
							28.1,35.6 26.8,38.6 26.8,38.6 25.9,39.4 25.8,39.4 24.2,41 24,41.1 23.5,41.3 22.2,39.1 21.9,38.4 21.4,37.7 21.1,37.8 
							18.3,39.2 17.6,39.4 16.8,35.3 16.3,35.4 15.2,35.5 14.4,35.6 14.4,35.6 12.7,35.8 12.6,35.9 12.9,32.9 12.9,32.9 13,31.8 
							13.1,31.7 11.8,31.4 11.8,31.4 11.6,31.4 11,31.3 13.8,25.2 15.4,21.8 15.4,21.8 15.9,22 16.2,21.2 29.1,27 29.7,26.8 
							30.2,26.5 31.1,26.1 36,23.9 36.9,23.5 37.5,23.3 39.7,22.2 41.2,21.6 41.2,21.6 43.3,26.3 43.3,26.3 43,26.5 42.9,26.5 
							42.9,26.5 43,26.6 44.2,29.2 44.2,29.2 						"/>
					</g>
				</g>
				<g>
					
						<linearGradient id="SVGID_5_" gradientUnits="userSpaceOnUse" x1="7.138" y1="44.2833" x2="46.075" y2="44.2833" gradientTransform="matrix(1 0 0 -1 0 63.8898)">
						<stop  offset="0" style="stop-color:#A0A0A0"/>
						<stop  offset="1" style="stop-color:#858585"/>
					</linearGradient>
					<polygon class="st7" points="42.9,25.3 44.9,28.2 44.2,28.5 40.8,29.2 40.7,29.2 40.2,29.4 40.1,29.4 40.3,29.8 41.3,33.1 
						41.3,33.3 40.7,33.5 39.6,33.4 37.1,33.1 36.6,33.1 36.5,33.1 36.5,33.2 36.5,34.5 36.4,36.9 35.7,37.2 32.3,35.7 31.9,35.5 
						30.6,38.9 29.9,39.2 27,36.5 26.8,36.3 24.4,38.9 23.7,39.2 21.7,35.6 21.6,35.6 18.5,37.1 17.8,37.4 17,33.3 12.9,33.8 
						12.8,33.8 13.2,29.8 13.3,29.6 9.2,28.9 9.2,28.7 10.9,25 10.8,25 7.2,23 10,19.9 9.9,19.8 7.1,16.9 7.2,16.8 10.8,14.8 
						10.7,14.6 9,11 9.7,10.7 12.2,10.3 13.1,10.1 13.1,10 12.6,6.4 12.6,6 13.2,5.7 14.1,5.9 16.7,6.4 16.8,6.1 16.8,6 17.5,2.3 
						18.2,2 21.3,4 21.6,3.5 23.3,0.3 24,0.1 26.4,3.1 26.9,2.7 29.5,0.3 30.2,0 31.5,3.8 31.6,3.9 31.7,3.9 32.3,3.6 33.1,3.3 
						35.3,2.3 36.1,5.7 36.2,6.2 36.8,6.1 40.4,5.7 40,9 39.9,9.8 40.9,10 44.1,10.6 42.8,13.5 42.3,14.5 43.3,15 46,16.5 44,18.8 
						43.2,19.6 44,20.4 46.1,22.6 43.3,24.2 42.5,24.7 					"/>
					<path class="st8" d="M16.8,29.1l-2.8,4l-1.1,0.6l-0.1,0l0.4-4l1.3-0.7l-4.2-0.8l-1.1,0.5l1.7-3.7l-0.1,0l1.2-0.4l-3.5-2L7.2,23
						l2.8-3.1l-0.1-0.1l1.2-0.3l0.2-1.1l-3-1.9l-1.1,0.3l3.5-2l-0.1-0.1l1-0.3c0.7,1.2,1.4,2.4,1.9,3.7
						C13.5,18.2,16.8,29.1,16.8,29.1z"/>
					
						<radialGradient id="SVGID_6_" cx="27.22" cy="45.5198" r="25.628" gradientTransform="matrix(1 0 0 -1 0 63.8898)" gradientUnits="userSpaceOnUse">
						<stop  offset="0" style="stop-color:#A0A0A0"/>
						<stop  offset="1" style="stop-color:#858585"/>
					</radialGradient>
					<polygon class="st9" points="40.8,29.1 40.8,29.2 40.9,30.1 41.3,33.1 41.3,33.3 39.2,33 37.2,32.8 37.1,33.1 36.8,34.9 
						36.4,36.9 32.6,35.2 32.3,35.7 30.6,38.9 27.5,36.1 27,36.5 24.4,38.9 22.3,35.3 21.7,35.6 18.5,37.1 17.7,33 13.5,33.5 
						13.5,33.4 13.9,29.4 14,29.4 9.8,28.6 9.9,28.5 11.5,24.8 11.6,24.8 11.5,24.7 7.9,22.8 7.9,22.7 10.6,19.7 10.7,19.6 
						10.7,19.6 10.6,19.6 7.9,16.6 7.8,16.6 11.3,14.6 11.4,14.5 11.4,14.4 11.4,14.4 10,11.3 9.9,11.2 9.7,10.7 12.1,10.2 13.1,10 
						13.5,9.9 13.8,9.8 13.7,9.6 13.7,9.5 13.4,7.2 13.3,6.2 13.2,5.7 14,5.8 15.6,5.9 16.8,6.1 16.9,6.1 17.2,6.1 17.4,6.1 17.4,6 
						18.2,2 21.6,3.5 22,3.7 24,0.1 26.9,2.7 27.1,2.9 30.2,0 32.3,3.6 32.3,3.6 33.1,3.3 36,1.9 36.9,5.9 41.1,5.4 40.6,9.6 
						44.7,10.4 43.1,14.1 43,14.2 43.1,14.2 46.7,16.2 44,19.2 43.9,19.3 44,19.4 46.8,22.4 43.2,24.4 43.1,24.5 43.2,24.6 
						44.9,28.2 40.8,29.1 40.8,29.1 40.8,29.1 					"/>
					<g>
						
							<linearGradient id="SVGID_7_" gradientUnits="userSpaceOnUse" x1="10.614" y1="44.5573" x2="42.4785" y2="44.5573" gradientTransform="matrix(1 0 0 -1 0 63.8898)">
							<stop  offset="0" style="stop-color:#A0A0A0"/>
							<stop  offset="1" style="stop-color:#858585"/>
						</linearGradient>
						<path class="st10" d="M42.5,19.6c0,2.5-0.5,5-1.6,7.3c-0.1,0.2-0.2,0.3-0.3,0.5c-0.1,0.2-0.2,0.4-0.3,0.6c0,0,0,0,0,0
							c-0.1,0.2-0.2,0.3-0.3,0.5s-0.2,0.3-0.3,0.5c-0.2,0.3-0.5,0.6-0.7,0.9c-0.1,0.1-0.2,0.2-0.3,0.3c-0.7,0.8-1.5,1.6-2.4,2.2
							c-0.1,0.1-0.2,0.2-0.3,0.2c-2.6,1.8-5.7,2.7-8.9,2.7c-1.6,0-3.1-0.2-4.6-0.6c0,0-0.1,0-0.1,0c-5-1.4-9-5.1-10.8-9.9
							c0,0,0-0.1,0-0.1c-0.6-1.6-0.9-3.3-0.9-5c0-0.1,0-0.1,0-0.2v0c0-1.7,0.2-3.3,0.7-4.9c0-0.1,0-0.1,0.1-0.2
							c0.2-0.6,0.4-1.1,0.6-1.6c0-0.1,0.1-0.2,0.1-0.3c0-0.1,0.1-0.1,0.1-0.2c0.1-0.3,0.3-0.5,0.4-0.8c0.3-0.6,0.6-1.1,1-1.6
							c0.1-0.1,0.1-0.2,0.2-0.3c0,0,0,0,0,0c0,0,0-0.1,0.1-0.1c0.3-0.4,0.5-0.7,0.8-1C14.8,8.3,14.9,8.2,15,8h0
							c0.1-0.1,0.1-0.1,0.2-0.2c0.2-0.2,0.4-0.4,0.6-0.6c0.1-0.1,0.3-0.3,0.4-0.4c0.3-0.3,0.6-0.5,1-0.8c0,0,0,0,0,0
							c0.1,0,0.1-0.1,0.2-0.1c1.8-1.2,3.8-2.1,5.9-2.5v0c1.8-0.2,3.6-0.3,5.4,0c0.9,0.1,1.7,0.4,2.5,0.8c0.2,0.1,0.5,0.1,0.7,0
							c2.7,1,5,2.7,6.9,4.9c0,0,0,0,0,0c0.1,0.1,0.1,0.2,0.2,0.2c0,0,0,0,0,0l0,0c1,1.2,1.7,2.6,2.3,4.1l0,0
							C42.1,15.4,42.5,17.5,42.5,19.6z"/>
						
							<linearGradient id="SVGID_8_" gradientUnits="userSpaceOnUse" x1="11.686" y1="44.359" x2="43.971" y2="44.359" gradientTransform="matrix(1 0 0 -1 0 63.8898)">
							<stop  offset="0" style="stop-color:#858585"/>
							<stop  offset="0.995" style="stop-color:#B5B5B5"/>
						</linearGradient>
						<path class="st11" d="M44,19.2c0-0.2,0-0.3,0-0.5c-0.1-1.3-0.3-2.5-0.6-3.8c-0.1-0.3-0.2-0.5-0.2-0.8c0,0,0,0,0-0.1
							c-0.1-0.2-0.2-0.5-0.3-0.7c-0.5-1.2-1.1-2.4-1.9-3.4C40.6,9.7,40.3,9.3,40,9c-0.9-1.1-2-2-3.2-2.8c-0.2-0.2-0.5-0.3-0.7-0.5
							c-1.4-0.8-2.9-1.4-4.4-1.8c0,0-0.1,0-0.1,0c-0.1,0-0.2,0-0.3-0.1c-0.8-0.2-1.7-0.3-2.5-0.3c-1.6-0.1-3.3,0-4.8,0.4v0
							c-2.2,0.5-4.2,1.5-6,2.9c-0.1,0-0.1,0.1-0.2,0.2c-0.4,0.3-0.8,0.7-1.2,1.1c-0.1,0.1-0.1,0.1-0.2,0.2c-0.3,0.3-0.6,0.7-0.9,1
							c0,0,0,0,0,0c-0.7,0.8-1.2,1.7-1.7,2.6c-0.1,0.2-0.2,0.3-0.3,0.5h0c-0.5,1-0.9,2-1.2,3.1c0,0.1-0.1,0.3-0.1,0.4
							c-1.9,8,2.5,16.2,10.2,19c0,0,0,0,0,0c0,0,0,0,0,0c1.7,0.6,3.6,0.9,5.4,0.9c2.7,0,5.4-0.7,7.8-2c0.3-0.2,0.6-0.3,0.9-0.5
							 M36.5,33.2L36.5,33.2C36.5,33.1,36.6,33.1,36.5,33.2c0.6-0.4,1.2-0.8,1.7-1.2c0.4-0.3,0.7-0.6,1-1c0,0,0.1-0.1,0.1-0.1l0,0
							c0.3-0.3,0.6-0.7,0.9-1c0.1-0.1,0.1-0.1,0.2-0.2c0.1-0.1,0.2-0.2,0.3-0.4c0,0,0.1-0.1,0.1-0.1v0c0,0,0,0,0,0
							c0.2-0.3,0.5-0.6,0.7-1c0.6-0.9,1-1.8,1.4-2.8c0.1-0.3,0.2-0.5,0.3-0.8c0-0.1,0-0.1,0.1-0.2c0,0,0-0.1,0-0.2
							c0.4-1.3,0.6-2.6,0.7-3.9c0-0.3,0-0.6,0-0.8v-0.1c0-0.1,0-0.1,0-0.2L36.5,33.2z"/>
						
							<radialGradient id="SVGID_9_" cx="27.824" cy="44.3588" r="15.069" gradientTransform="matrix(1 0 0 -1 0 63.8898)" gradientUnits="userSpaceOnUse">
							<stop  offset="0" style="stop-color:#898989"/>
							<stop  offset="1" style="stop-color:#9E9E9E"/>
						</radialGradient>
						<path class="st12" d="M27.8,34.6c-8.3,0-15.1-6.7-15.1-15.1S19.5,4.5,27.8,4.5s15.1,6.7,15.1,15.1
							C42.9,27.8,36.1,34.6,27.8,34.6z"/>
						<g>
							<path class="st13" d="M33.6,22.2c0,0.9-0.1,1.9-0.2,2.8c-0.1,0-0.4,0.6-0.5,0.7c0,0,0,0,0,0c-1.1,0-5.9,0-7.6,0h-3
								c-0.2-0.7-0.5-1.3-0.6-2c0-0.1,0.6-0.6,0.5-0.7c1.2-0.9,2.4-1.8,3.5-2.8c0.7-0.6,1.4-1.3,2-1.9c0.7-0.8,1.1-1.8,1.1-2.9
								c0-0.6-0.2-1.3-0.5-1.8c-0.3-0.4-0.9-0.7-1.4-0.7c-0.4,0-0.8,0.1-1.2,0.2l-0.5,2.1c-0.1,0-0.5,0.7-0.5,0.7c0,0,0,0,0,0
								c-0.8,0-1.6-0.2-2.4-0.3c0.1-1.4,0.2-2.8,0.3-4.2c0-0.1,0.5-0.6,0.5-0.7c1.5-0.5,3-0.8,4.5-0.8c2.1,0,3.4,0.4,4.4,1.3
								c0.9,0.8,1.5,2,1.4,3.2c-0.1,1.5-0.7,3-1.8,4.1c-1,1.2-2.1,2.3-3.3,3.2c-0.3,0.3-0.6,0.5-0.9,0.7
								C29.1,22.3,32.2,22.1,33.6,22.2L33.6,22.2L33.6,22.2z"/>
							<path class="st14" d="M33.6,22.1L33.6,22.1c-1.4,0-4.5,0.2-6.2,0.2c-0.1,0-0.2,0-0.3,0v-0.1c0.6-0.4,1.1-0.7,1.7-1.3
								c1-0.7,1.9-1.6,2.8-2.5c1.1-1.1,1.7-2.6,1.8-4.1c0-1.2-0.5-2.4-1.4-3.2c-1-0.8-2.2-1.3-4.4-1.3c-1.5,0-3.1,0.3-4.5,0.8
								c0,0.1-0.5,0.6-0.5,0.7c-0.1,1.3,0.3,2.2,0.3,3.5c0.5,0,0.8,0.4,1.2,0.7c0.2,0.1,0.4,0.2,0.6,0.2c0,0,0,0,0,0
								c0.1,0,0.5-0.7,0.5-0.7l0.5-2.1l0.1-0.2c0,0,0-0.1,0-0.1c0-0.1,0-0.1,0.1-0.1c0.5-0.3,1-0.4,1.6-0.4c0.5,0,1.1,0.2,1.4,0.7
								c0.4,0.5,0.6,1.2,0.5,1.8c-0.1,1.3-0.7,2.6-1.6,3.6c-0.6,0.7-1.3,1.3-2,1.9c-1.1,1-2.3,1.9-3.5,2.8c0,0.1-0.6,0.6-0.5,0.7
								c0.2,0.6,1,0.8,1.2,1.4h3c1.6,0,5.6,0.7,7.1,0.7c0,0,0,0,0,0c0.1-0.1,0.5-0.7,0.5-0.7C33.6,24,33.6,23.1,33.6,22.1L33.6,22.1
								z"/>
							<path class="st15" d="M25.8,12.7C25.8,12.7,25.7,12.8,25.8,12.7L25.7,13l-0.5,2.1c-0.1,0-0.5,0.7-0.5,0.7c0,0,0,0,0,0
								c-0.2,0-0.4-0.1-0.6-0.2c0-0.2,0-0.4,0.1-0.6c0.1-0.6,0.4-1.2,0.8-1.7C25,13.2,25.5,12.6,25.8,12.7
								C25.7,12.7,25.8,12.7,25.8,12.7z"/>
							<path class="st15" d="M33.6,22.2c0,0.9-0.1,1.9-0.2,2.8c-0.1,0-0.4,0.6-0.5,0.7l0,0l-0.1-0.1l0.2-2.6l0.1-0.1L33.6,22.2
								L33.6,22.2z"/>
							<path class="st16" d="M33.1,22.8L33.1,22.8c-1.5,0-4.9,0.2-6.5,0.2v-0.1c0.3-0.2,0.6-0.4,0.8-0.6c0.3-0.2,0.6-0.4,0.9-0.7
								c1.2-0.9,2.4-2,3.3-3.2c0.8-1,1.2-2.2,1.3-3.4c0-1.2-0.5-2.4-1.4-3.2c-1-0.8-2.2-1.3-4.4-1.3c-1.5,0-3.1,0.3-4.5,0.8
								c-0.1,1.4-0.2,2.8-0.3,4.2c0.7,0,1.6,0.3,2.4,0.3h0l0.5-2.3c0-0.1,0.1-0.2,0.1-0.2c0.1-0.1,0.2-0.1,0.4-0.2
								c0.4-0.1,0.8-0.2,1.2-0.2c0.5,0,1.1,0.2,1.4,0.7c0.4,0.5,0.6,1.2,0.5,1.8c0,1.1-0.4,2.1-1.1,2.9c-0.7,0.9-1.6,1.8-2.5,2.6
								c-1.1,1-2.3,1.9-3.5,2.8c0.2,0.7,0.4,1.4,0.6,2h3c1.7,0,6.5,0,7.6,0v0C33,24.7,33.1,23.8,33.1,22.8L33.1,22.8z"/>
						</g>
						<g>
							
								<linearGradient id="SVGID_10_" gradientUnits="userSpaceOnUse" x1="16.1535" y1="34.8869" x2="39.3655" y2="53.7349" gradientTransform="matrix(1 0 0 -1 0 63.8898)">
								<stop  offset="0" style="stop-color:#F3F3F3"/>
								<stop  offset="0.431" style="stop-color:#F3F3F3"/>
								<stop  offset="0.505" style="stop-color:#F3F3F3"/>
								<stop  offset="0.547" style="stop-color:#F3F3F3"/>
								<stop  offset="1" style="stop-color:#F3F3F3"/>
							</linearGradient>
							<path class="st17" d="M27.8,34.6c-8.3,0-15.1-6.7-15.1-15.1S19.5,4.5,27.8,4.5s15.1,6.7,15.1,15.1
								C42.9,27.8,36.1,34.6,27.8,34.6z"/>
						</g>
						<g>
							
								<linearGradient id="SVGID_11_" gradientUnits="userSpaceOnUse" x1="29.2809" y1="59.3574" x2="26.3569" y2="29.3094" gradientTransform="matrix(1 0 0 -1 0 63.8898)">
								<stop  offset="0" style="stop-color:#F3F3F3"/>
								<stop  offset="0.505" style="stop-color:#F3F3F3"/>
								<stop  offset="0.547" style="stop-color:#F3F3F3"/>
								<stop  offset="1" style="stop-color:#F3F3F3"/>
							</linearGradient>
							<path class="st18" d="M42.9,19.5c0,8.3-6.7,15.1-15.1,15.1s-15.1-6.7-15.1-15.1S19.5,4.5,27.8,4.5c2.4,0,4.7,0.6,6.8,1.6
								C39.7,8.6,42.9,13.8,42.9,19.5z"/>
						</g>
						<path class="st19" d="M42.9,19.5c0,8.1-6.4,14.7-14.4,15.1c7.7-0.7,13.6-7.3,13.4-15C42,11.4,35.5,4.7,27.3,4.5
							c-0.1,0-0.1,0-0.2,0c-0.2,0-0.5,0-0.7,0c0.4,0,0.9-0.1,1.4-0.1C36.1,4.5,42.9,11.2,42.9,19.5z"/>
						<g>
							<path class="st14" d="M40.1,26.1c0,0-0.4,1.1-1,1.4c-0.2,0.1-0.5,0.2-0.8,0.2l0,0c-0.2,0-0.4-0.1-0.5-0.4
								c-0.1-0.4,0.2-1,0.8-1.2c0.1-0.1,0.3-0.1,0.4-0.1C39.4,25.9,39.7,25.9,40.1,26.1z"/>
							<path class="st14" d="M37,27c-0.1,0.1-0.2,0.1-0.4,0.1c-0.4-0.1-0.7-0.4-0.8-0.7c-0.2-0.5-0.3-1.1-0.3-1.7c0,0,0-0.1,0-0.1
								c0.5,0.1,1,0.4,1.4,0.9C37.2,26,37.3,26.7,37,27z"/>
							<path class="st14" d="M38.5,28.9c0,0-0.6,1-1.2,1.1c-0.2,0-0.4,0.1-0.5,0.1c-0.3,0-0.6-0.2-0.7-0.5c-0.1-0.4,0.3-0.9,1-1.1
								c0,0,0.1,0,0.1,0C37.6,28.5,38.1,28.6,38.5,28.9z"/>
							<path class="st14" d="M35,29.2c-0.1,0-0.1,0-0.2,0c-0.4-0.2-0.7-0.7-0.7-1.1c0-0.5,0-1.1,0.3-1.6c0-0.1,0.1-0.2,0.1-0.2
								c0.4,0.4,0.8,0.9,1,1.4C35.6,28.5,35.4,29.1,35,29.2z"/>
							<path class="st14" d="M41.3,22.4c-0.1,0.6-0.4,1.1-0.8,1.5c-0.3,0.2-0.6,0.3-1,0.3c-0.2,0-0.3-0.1-0.4-0.2
								c-0.2-0.4,0.1-1,0.6-1.4c0.3-0.2,0.6-0.3,0.9-0.3l0,0C40.9,22.4,41.1,22.4,41.3,22.4z"/>
							<path class="st14" d="M38.5,24c-0.1,0.2-0.4,0.3-0.6,0.2c-0.3,0-0.5-0.2-0.8-0.4c-0.4-0.5-0.6-1-0.7-1.6c0,0,0.1,0,0.2,0
								c0,0,0,0,0,0c0.5,0,0.9,0.1,1.3,0.3C38.5,23,38.7,23.7,38.5,24z"/>
							<path class="st14" d="M40,16.5c-0.2,0.6-0.7,1.1-1,0.9l0,0c0,0,0,0-0.1,0c-0.3-0.2-0.4-0.9-0.2-1.5c0.2-0.4,0.5-0.8,1-1.1
								c0.1-0.1,0.2-0.1,0.2-0.1C40.1,15.2,40.1,15.9,40,16.5z"/>
							<path class="st14" d="M38.4,17.7C38.3,18,38,18.1,37.7,18c-0.2,0-0.4-0.1-0.6-0.2c-0.6-0.3-1-1.4-1-1.4
								c0.3-0.1,0.6-0.2,0.9-0.2c0.2,0,0.5,0,0.7,0.1C38.2,16.7,38.6,17.3,38.4,17.7z"/>
							<path class="st14" d="M40.7,20.3c-0.3,0.5-0.8,0.7-1.1,0.6c-0.1,0-0.1,0-0.2-0.1c-0.3-0.3-0.2-1,0.2-1.5
								c0.3-0.4,0.7-0.6,1.2-0.7c0.1,0,0.2-0.1,0.2-0.1C41.1,19.1,41,19.7,40.7,20.3z"/>
							<path class="st14" d="M38.6,20.8c-0.1,0.2-0.4,0.3-0.7,0.3c-0.2,0-0.5-0.1-0.7-0.3c-0.4-0.4-0.7-0.9-0.9-1.5
								c0.2,0,0.4-0.1,0.6-0.1h0c0.3,0,0.6,0,0.9,0.2C38.5,19.8,38.8,20.4,38.6,20.8z"/>
							<path class="st14" d="M38.6,12.9c-0.1,0.6-0.5,1.1-0.8,1c0,0,0,0,0,0c-0.3-0.1-0.4-0.7-0.3-1.3c0.1-0.4,0.4-0.8,0.7-1.1
								c0.1-0.1,0.2-0.2,0.2-0.2C38.5,11.9,38.6,12.4,38.6,12.9z"/>
							<path class="st14" d="M37.6,14.8c-0.1,0.3-0.4,0.5-0.9,0.5c-0.1,0-0.2,0-0.2,0c-0.5-0.1-1.1-1-1.1-1c0.3-0.2,0.6-0.3,1-0.4
								c0.1,0,0.2,0,0.3,0C37.3,14,37.7,14.4,37.6,14.8z"/>
							<path class="st14" d="M36.9,10.5c0,0.6-0.3,1-0.6,1c0,0-0.1,0-0.1,0c-0.3-0.3-0.4-0.6-0.4-1c0.1-0.4,0.2-0.7,0.4-1
								c0.1-0.1,0.1-0.2,0.1-0.2C36.7,9.6,36.8,10,36.9,10.5z"/>
							<path class="st14" d="M36.3,12.3c0,0.3-0.4,0.6-0.9,0.5h0c-0.4-0.1-0.7-0.4-1-0.7c0.3-0.2,0.6-0.4,0.9-0.5c0.1,0,0.1,0,0.2,0
								C36,11.7,36.4,12,36.3,12.3z"/>
							<path class="st14" d="M35.4,10.6c-0.1,0.2-0.3,0.3-0.5,0.2c-0.2,0-0.3-0.1-0.5-0.2c-0.3-0.3-0.5-0.7-0.6-1.1
								c0.1,0,0.2,0,0.4,0c0.3,0,0.6,0,0.8,0.2C35.3,9.9,35.5,10.4,35.4,10.6z"/>
						</g>
						<g>
							<path class="st16" d="M39.9,26.1c0,0-0.4,1.1-1,1.4c-0.2,0.1-0.4,0.1-0.6,0.2l0,0c-0.2,0-0.4-0.1-0.5-0.4
								c-0.1-0.4,0.2-1,0.8-1.2c0.1-0.1,0.3-0.1,0.4-0.1C39.3,25.9,39.6,26,39.9,26.1z"/>
							<path class="st16" d="M36.7,27c0,0-0.1,0.1-0.1,0.1c-0.4-0.1-0.7-0.4-0.8-0.7c-0.2-0.5-0.3-1.1-0.3-1.7
								c0.4,0.1,0.8,0.4,1.1,0.8C37,26,37,26.7,36.7,27z"/>
							<path class="st16" d="M38.3,28.9c0,0-0.6,1-1.2,1.1c-0.1,0-0.2,0-0.3,0.1c-0.3,0-0.6-0.2-0.7-0.5c-0.1-0.4,0.3-0.9,1-1.1
								c0,0,0.1,0,0.1,0C37.6,28.5,37.9,28.6,38.3,28.9z"/>
							<path class="st16" d="M34.8,29.2c-0.4-0.2-0.7-0.7-0.7-1.1c0-0.5,0-1.1,0.3-1.6c0.4,0.3,0.7,0.8,0.8,1.2
								C35.3,28.5,35.2,29.1,34.8,29.2z"/>
							<path class="st16" d="M41,22.4c-0.1,0.6-0.4,1.1-0.8,1.5c-0.2,0.2-0.5,0.3-0.7,0.3c-0.2,0-0.3-0.1-0.4-0.2
								c-0.2-0.4,0.1-1,0.6-1.4c0.3-0.2,0.6-0.3,0.9-0.3l0,0C40.8,22.4,40.9,22.4,41,22.4z"/>
							<path class="st16" d="M38.3,24c-0.1,0.1-0.2,0.2-0.3,0.2c-0.3,0-0.5-0.2-0.8-0.4c-0.4-0.5-0.6-1-0.7-1.6c0,0,0.1,0,0.2,0
								c0,0,0,0,0,0c0.4,0,0.7,0.1,1.1,0.3C38.3,23,38.5,23.7,38.3,24z"/>
							<path class="st16" d="M39.7,16.5c-0.1,0.4-0.4,0.8-0.8,0.9l0,0c0,0,0,0-0.1,0c-0.3-0.2-0.4-0.9-0.2-1.5
								c0.2-0.4,0.5-0.8,1-1.1C39.8,15.3,39.9,15.9,39.7,16.5z"/>
							<path class="st16" d="M38.2,17.7c-0.1,0.2-0.3,0.4-0.5,0.4c-0.2,0-0.4-0.1-0.6-0.2c-0.6-0.3-1-1.4-1-1.4
								c0.3-0.1,0.6-0.2,0.9-0.2c0.1,0,0.3,0,0.4,0.1C38,16.7,38.3,17.3,38.2,17.7z"/>
							<path class="st16" d="M40.5,20.3c-0.2,0.3-0.5,0.5-0.8,0.6c-0.1,0-0.1,0-0.2-0.1c-0.3-0.3-0.2-1,0.2-1.5
								c0.3-0.4,0.7-0.6,1.2-0.7C40.9,19.2,40.7,19.7,40.5,20.3z"/>
							<path class="st16" d="M38.4,20.8c-0.1,0.2-0.3,0.3-0.4,0.3c-0.2,0-0.5-0.1-0.7-0.3c-0.4-0.4-0.7-0.9-0.9-1.5
								c0.2,0,0.4-0.1,0.6-0.1h0c0.2,0,0.5,0.1,0.7,0.2C38.3,19.8,38.6,20.4,38.4,20.8z"/>
							<path class="st16" d="M38.4,12.9c0,0.4-0.3,0.8-0.6,1c-0.3-0.1-0.4-0.7-0.3-1.3c0.1-0.4,0.4-0.8,0.7-1.1
								C38.3,12,38.4,12.5,38.4,12.9z"/>
							<path class="st16" d="M37.4,14.8c-0.1,0.3-0.3,0.5-0.6,0.5c-0.1,0-0.2,0-0.2,0c-0.5-0.1-1.1-1-1.1-1c0.3-0.2,0.6-0.3,1-0.4
								c0,0,0.1,0,0.1,0C37.1,14,37.4,14.4,37.4,14.8z"/>
							<path class="st16" d="M36.6,10.5c0,0.4-0.1,0.7-0.4,0.9c-0.3-0.3-0.4-0.6-0.4-1c0.1-0.4,0.2-0.7,0.4-1
								C36.5,9.7,36.6,10.1,36.6,10.5z"/>
							<path class="st16" d="M36.1,12.3c0,0.3-0.3,0.5-0.7,0.5c-0.4-0.1-0.7-0.4-1-0.7c0.3-0.2,0.6-0.4,0.9-0.5
								C35.8,11.8,36.1,12,36.1,12.3z"/>
							<path class="st16" d="M35.2,10.6c-0.1,0.1-0.2,0.2-0.3,0.2c-0.2,0-0.3-0.1-0.5-0.2c-0.3-0.3-0.5-0.7-0.6-1.1
								c0.1,0,0.2,0,0.4,0c0.2,0,0.4,0.1,0.6,0.2C35.1,9.9,35.3,10.4,35.2,10.6z"/>
						</g>
						<g>
							<path class="st14" d="M17.8,27c-0.1,0.4-0.7,0.5-1.3,0.2c0,0,0,0-0.1,0c-0.4-0.4-0.8-0.8-0.9-1.4c0.5-0.2,1-0.2,1.4-0.1
								c0,0,0.1,0,0.1,0C17.6,26,18,26.6,17.8,27z"/>
							<path class="st14" d="M19.8,26.1c-0.4,0.6-0.9,0.9-1.2,0.7c0,0,0,0,0,0c-0.3-0.3-0.2-1,0.1-1.6c0.3-0.4,0.7-0.7,1.1-0.8
								c0.1,0,0.2-0.1,0.2-0.1C20.1,24.8,20.1,25.5,19.8,26.1z"/>
							<path class="st14" d="M19.5,29.4c-0.1,0.4-0.7,0.7-1.3,0.5c-0.1,0-0.2-0.1-0.3-0.1c-0.4-0.3-0.7-0.6-0.9-1
								c0.4-0.3,1-0.5,1.5-0.4c0.1,0,0.1,0,0.2,0.1C19.2,28.5,19.5,28.9,19.5,29.4z"/>
							<path class="st14" d="M21.5,27.9c-0.1,0.8-0.6,1.3-0.9,1.2c-0.1,0-0.1-0.1-0.2-0.1c-0.3-0.4-0.4-1-0.2-1.5
								c0.2-0.5,0.4-1,0.8-1.3c0.1-0.1,0.1-0.1,0.1-0.1C21.4,26.7,21.5,27.3,21.5,27.9z"/>
							<path class="st14" d="M16.4,23.7c-0.2,0.3-0.6,0.3-1.1,0.1c0,0,0,0,0,0c-0.1,0-0.1-0.1-0.2-0.1c-0.4-0.5-0.7-1-0.8-1.6
								c0.4-0.1,0.8,0,1.2,0.1c0.1,0,0.2,0.1,0.3,0.2C16.4,22.7,16.6,23.3,16.4,23.7z"/>
							<path class="st14" d="M19.1,21.9c-0.1,0.6-0.4,1.2-0.7,1.7c-0.5,0.4-1,0.5-1.2,0.3c0,0-0.1-0.1-0.1-0.1c-0.2-0.4,0-1,0.5-1.5
								c0.4-0.3,0.8-0.4,1.3-0.3C19,21.8,19.1,21.9,19.1,21.9z"/>
							<path class="st14" d="M16.7,16.7c-0.2,0.1-0.4,0-0.5-0.1c-0.3-0.2-0.5-0.5-0.6-0.9c-0.1-0.6-0.1-1.3,0.1-1.9c0,0,0,0,0,0
								c0.5,0.3,0.9,0.7,1.2,1.2C17.1,15.8,17,16.5,16.7,16.7z"/>
							<path class="st14" d="M19.5,15.8c-0.2,0.6-0.6,1-1,1.4c-0.3,0.2-0.8,0.2-1.2,0c-0.1-0.1-0.1-0.1-0.2-0.2
								c-0.1-0.4,0.2-1,0.8-1.3c0.4-0.2,0.9-0.1,1.3,0C19.4,15.8,19.5,15.8,19.5,15.8z"/>
							<path class="st14" d="M16.1,20.3c-0.2,0.2-0.4,0.1-0.7,0c-0.2-0.1-0.4-0.3-0.5-0.5c-0.3-0.6-0.4-1.2-0.4-1.8
								c0.2,0,0.4,0.1,0.6,0.2c0.3,0.1,0.6,0.3,0.8,0.6C16.3,19.3,16.4,20,16.1,20.3z"/>
							<path class="st14" d="M19.2,18.8c-0.2,0.6-0.5,1.1-0.9,1.5c-0.3,0.3-0.8,0.3-1.2,0.1c-0.1,0-0.1-0.1-0.1-0.2
								c-0.2-0.4,0.1-1,0.7-1.4c0.4-0.2,0.9-0.3,1.3-0.2C19,18.7,19.1,18.8,19.2,18.8z"/>
							<path class="st14" d="M17.8,13.1c-0.1,0-0.3,0-0.3-0.1C17.2,12.7,17,12.4,17,12c0-0.5,0.1-1,0.3-1.5c0-0.1,0-0.1,0-0.1
								c0.4,0.3,0.7,0.8,0.8,1.3C18.2,12.4,18.1,13,17.8,13.1z"/>
							<path class="st14" d="M20.1,13.4c0,0-0.5,0.9-1.1,1c-0.3,0.1-0.6,0.1-0.9-0.1C18.1,14.2,18,14.1,18,14
								c-0.1-0.4,0.3-0.8,0.9-1c0.3,0,0.6,0,0.9,0.1C19.9,13.2,20,13.3,20.1,13.4z"/>
							<path class="st14" d="M19.3,10.5c-0.1,0-0.2,0-0.3-0.1c-0.2-0.3-0.3-0.6-0.3-0.9c0-0.4,0.2-0.8,0.4-1.2l0.1-0.1
								c0.3,0.4,0.5,0.8,0.6,1.2C19.8,10,19.5,10.5,19.3,10.5z"/>
							<path class="st14" d="M21.2,11.3c0,0-0.5,0.7-1,0.7c-0.2,0-0.5,0-0.7-0.2c-0.1-0.1-0.2-0.2-0.2-0.4c0-0.3,0.4-0.7,0.8-0.7
								c0.1,0,0.3,0,0.4,0.1C20.7,10.9,21,11.1,21.2,11.3z"/>
							<path class="st14" d="M21.8,8.4c-0.1,0.4-0.3,0.9-0.6,1.2c-0.4,0.3-0.8,0.3-0.9,0.1c0,0-0.1-0.1-0.1-0.1
								c-0.1-0.3,0.1-0.8,0.5-1.1c0.3-0.2,0.6-0.2,0.9-0.2C21.7,8.4,21.8,8.4,21.8,8.4z"/>
						</g>
						<g>
							<path class="st16" d="M17.6,26.9c-0.1,0.4-0.6,0.5-1.2,0.3c-0.4-0.4-0.8-0.8-0.9-1.4c0.5-0.2,1-0.2,1.4-0.1
								C17.4,25.9,17.7,26.4,17.6,26.9z"/>
							<path class="st16" d="M19.6,26c-0.3,0.5-0.7,0.8-1,0.8c-0.3-0.3-0.2-1,0.1-1.6c0.3-0.4,0.7-0.7,1.1-0.8
								C19.9,24.9,19.8,25.4,19.6,26z"/>
							<path class="st16" d="M19.3,29.3c-0.1,0.4-0.7,0.7-1.3,0.5c0,0,0,0-0.1,0c-0.4-0.3-0.7-0.6-0.9-1c0.4-0.3,1-0.5,1.5-0.4
								c0.1,0,0.1,0,0.2,0.1C19.1,28.6,19.3,28.9,19.3,29.3z"/>
							<path class="st16" d="M21.2,27.8c-0.1,0.7-0.5,1.2-0.9,1.2c-0.3-0.4-0.4-1-0.2-1.5c0.2-0.5,0.4-1,0.8-1.3
								C21.2,26.7,21.3,27.3,21.2,27.8z"/>
							<path class="st16" d="M16.2,23.6c-0.1,0.3-0.5,0.3-0.9,0.2c0,0,0,0,0,0c-0.1,0-0.1-0.1-0.2-0.1c-0.4-0.5-0.7-1-0.8-1.6
								c0.4-0.1,0.8,0,1.2,0.1c0,0,0.1,0,0.1,0.1C16.1,22.6,16.4,23.2,16.2,23.6z"/>
							<path class="st16" d="M18.9,21.8c-0.1,0.6-0.3,1.1-0.7,1.6c-0.3,0.3-0.6,0.4-1,0.4c0,0-0.1-0.1-0.1-0.1c-0.2-0.4,0-1,0.5-1.5
								C18,21.9,18.4,21.8,18.9,21.8z"/>
							<path class="st16" d="M16.4,16.6c-0.1,0-0.2,0.1-0.3,0c-0.3-0.2-0.5-0.5-0.6-0.9c-0.1-0.6-0.1-1.3,0.1-1.9
								c0.4,0.3,0.7,0.7,0.9,1.1C16.9,15.7,16.8,16.4,16.4,16.6z"/>
							<path class="st16" d="M19.3,15.7c-0.2,0.5-0.5,1-1,1.4c-0.3,0.2-0.6,0.2-0.9,0.1c-0.1-0.1-0.1-0.1-0.2-0.2
								c-0.1-0.4,0.2-1,0.8-1.3C18.4,15.6,18.8,15.6,19.3,15.7z"/>
							<path class="st16" d="M15.9,20.2c-0.1,0.1-0.3,0.2-0.5,0.1c-0.2-0.1-0.4-0.3-0.5-0.5c-0.3-0.6-0.4-1.2-0.4-1.8
								c0.2,0,0.4,0.1,0.6,0.2c0.2,0.1,0.4,0.3,0.5,0.5C16.1,19.2,16.2,19.9,15.9,20.2z"/>
							<path class="st16" d="M18.9,18.7c-0.2,0.6-0.5,1.1-0.9,1.5c-0.3,0.2-0.6,0.3-1,0.3c-0.1,0-0.1-0.1-0.1-0.2
								c-0.2-0.4,0.1-1,0.7-1.4C18,18.7,18.5,18.6,18.9,18.7z"/>
							<path class="st16" d="M17.5,13c0,0-0.1,0-0.1,0C17.2,12.7,17,12.4,17,12c0-0.5,0.1-1,0.3-1.5c0.3,0.3,0.5,0.7,0.6,1.1
								C18,12.3,17.9,12.9,17.5,13z"/>
							<path class="st16" d="M19.9,13.2c0,0-0.5,0.9-1.1,1c-0.2,0.1-0.5,0.1-0.7,0C18.1,14.2,18,14.1,18,14c-0.1-0.4,0.3-0.8,0.9-1
								c0.3,0,0.6,0,0.9,0.1C19.9,13.2,19.9,13.2,19.9,13.2z"/>
							<path class="st16" d="M19,10.4L19,10.4c-0.2-0.3-0.3-0.6-0.3-0.9c0-0.4,0.2-0.8,0.4-1.2c0.2,0.3,0.4,0.7,0.4,1
								C19.5,9.9,19.3,10.3,19,10.4z"/>
							<path class="st16" d="M20.9,11.2c0,0-0.5,0.7-1,0.7c-0.2,0-0.3,0-0.4-0.1c-0.1-0.1-0.2-0.2-0.2-0.4c0-0.3,0.4-0.7,0.8-0.7
								c0.1,0,0.3,0,0.4,0.1C20.6,10.9,20.8,11,20.9,11.2z"/>
							<path class="st16" d="M21.6,8.4c-0.1,0.4-0.3,0.8-0.6,1.1c-0.2,0.2-0.5,0.2-0.7,0.2c0,0-0.1-0.1-0.1-0.1
								c-0.1-0.3,0.1-0.8,0.5-1.1C21,8.4,21.3,8.3,21.6,8.4z"/>
						</g>
						<path class="st20" d="M42.9,19.5c0,8.3-6.8,15.1-15.1,15.1c-0.4,0-0.8,0-1.2,0c-5.6-0.5-10.4-3.9-12.6-9
							c22.4,5.2,21.1-15.3,20.7-18.9c0-0.1,0.1-0.3,0.1-0.4c2.7,1.4,4.9,3.5,6.3,6.2C42.3,14.6,42.9,17,42.9,19.5z"/>
						<path class="st21" d="M42.9,19.5c0,8.3-6.8,15.1-15.1,15.1c-0.4,0-0.8,0-1.2,0C36.8,31,39.9,20.1,40.9,14l0.7-0.7
							C42.5,15.3,42.9,17.4,42.9,19.5z"/>
					</g>
					<polygon class="st22" points="39.6,33.4 37.1,33.1 36.8,34.9 36.5,34.5 35.6,33.7 35.1,33.2 34.8,32.9 34.6,32.6 32.8,30.9 
						30,28.1 27,25.1 25.4,23.5 18.8,16.9 18.7,16.7 17.8,15.8 16.7,14.8 15.9,14 15.9,14 14.5,12.6 13.7,11.8 12.9,11 12.2,10.3 
						12.1,10.2 13.1,10 12.6,6.4 14.7,8.4 15.4,9.2 16.2,10 17.1,10.9 17.9,11.7 19.2,13 19.7,13.5 19.9,13.7 25.4,19.2 29.7,23.5 
						29.7,23.5 35.1,28.9 35.3,29.1 37,30.8 37.4,31.2 37.4,31.2 39.2,33 					"/>
					<polygon class="st22" points="41.3,33.1 41.3,33.1 39.2,31 37.9,29.6 37.8,29.5 36.8,28.5 35.8,27.5 30.7,22.5 30.4,22.2 
						29.7,21.5 25.4,17.2 20.2,12 16.4,8.2 15.6,7.4 14.1,5.9 14,5.8 15.6,5.9 16.8,6.1 16.8,6 17,6.2 17.7,6.9 18.5,7.7 19.1,8.3 
						19.1,8.3 19.5,8.7 19.5,8.7 20.2,9.4 25.4,14.6 29.7,18.9 30.4,19.6 31.9,21.1 35.5,24.7 36.8,26 37.2,26.4 37.7,26.9 
						38.4,27.6 38.4,27.6 39.2,28.4 39.7,28.9 39.7,28.9 40.2,29.4 40.4,29.6 40.9,30.1 					"/>
				</g>
			</g>
		</g>
	</g>
</g>
</svg>
