<svg xmlns="http://www.w3.org/2000/svg" xmlns:xlink="http://www.w3.org/1999/xlink" viewBox="0 0 327.068 377.733">
    <defs>
        <clipPath id="prefix__a" transform="translate(-4.413 -2.154)">
            <path
                d="M267.577 160.95l13.311-4.546-14.994-21.3 20.842-15.623-20.842-15.623 14.994-21.3-24.649-8.418 7.678-24.89-26.044-.389-.389-26.044-24.89 7.683-8.418-24.652-21.3 14.994L167.254 0l-15.623 20.842-21.3-14.994-8.417 24.652-24.89-7.678-.389 26.044-26.044.389 7.678 24.89L53.62 82.56l14.994 21.3-20.842 15.622L68.613 135.1 53.62 156.4l18.036 6.16L0 321.523l60.894-10.469 25.494 62.852 70.633-148.383 10.233 13.442 12.618-15.528L242.426 387.4l29.838-70.91 64.034 21.08z"
                fill="none" />
        </clipPath>
        <style>
            .prefix__c,
            .prefix__e {
                fill: none;
                stroke: #999;
                stroke-linecap: round;
                stroke-linejoin: round;
                stroke-width: 4px
            }

            .prefix__c {
                stroke-dasharray: 12 10 72 7 65 1
            }

            .prefix__e {
                stroke-dasharray: 12 10 72 23 55 1
            }
        </style>
    </defs>
    <g clip-path="url(#prefix__a)">
        <path class="prefix__c"
            d="M189.745 136.798h-18.158q3.028-3.587 5.952-7.193a87.221 87.221 0 009.752-14.732 35.666 35.666 0 004.113-16.5 29.776 29.776 0 00-3.685-14.56 29.193 29.193 0 00-10.291-10.786 28.718 28.718 0 00-15.4-4.15 35.085 35.085 0 00-17.477 4.126 28.343 28.343 0 00-14.9 25.13 29.133 29.133 0 001.236 7.894 34.311 34.311 0 003.537 8.163 19.194 19.194 0 006.253 6.582 4.052 4.052 0 004.874-.436l7.8-7.08a4.055 4.055 0 00.142-5.869c-2.35-2.351-3.493-5.5-3.493-9.614a9.012 9.012 0 011.027-3.917 8.646 8.646 0 013.107-3.39 10.588 10.588 0 015.852-1.359 12.669 12.669 0 015.341 1.135 8.279 8.279 0 013.606 3.178 10.914 10.914 0 011.4 5.913 23.086 23.086 0 01-2.8 10.4 67.837 67.837 0 01-8.27 12.274c-3.595 4.336-7.732 8.869-12.3 13.473q-7.026 7.087-14.471 14.652a4.054 4.054 0 002.89 6.9h54.362a4.054 4.054 0 004.055-4.055v-12.12a4.055 4.055 0 00-4.054-4.059zM69.26 165.576L2 315.586l57.407-12.34 22.94 61.141L143.88 231.46" />
        <path
            d="M183.161 231.784c19.5 51.191 35.627 92.759 55.13 143.95l27.246-66.058 59.531 19.1c-21.771-56.453-40.161-103.278-61.931-159.73"
            stroke-dasharray="12 10 72 23 27 1" class ="prefix__e" stroke="#fff" stroke-linecap="round" stroke-linejoin="round"
            stroke-width="4" fill="none" />
        <circle class="prefix__c" cx="163.162" cy="116.884" r="84.111" />
        <path class="prefix__c"
            d="M91.527 116.884a71.636 71.636 0 0171.635-71.638M258.006 101.862l14.417-20.479-23.701-8.094 7.383-23.932-25.042-.374-.374-25.042-23.932 7.383-8.094-23.701-20.479 14.417L163.162 2 148.14 22.04 127.661 7.623l-8.094 23.701-23.932-7.383-.373 25.042-25.042.374 7.382 23.932-23.7 8.094 14.416 20.479-20.039 15.022 20.039 15.021-14.416 20.48 23.7 8.094-7.382 23.931 25.042.374.373 25.042 23.932-7.383 8.094 23.701 20.479-14.417 15.022 20.04 15.022-20.04 20.479 14.417 8.094-23.701 23.932 7.383.374-25.042 25.042-.374-7.383-23.931 23.701-8.094-14.417-20.48 20.04-15.021-20.04-15.022z" />
        <path class="prefix__e"
            d="M66.199 199.052l-42.628 95.015M95.409 222.681l-32.715 72.917M74.16 221.368l-22.605 50.383M203.873 258.506l32.406 86.16M264.299 200.995l38.764 103.062M245.672 329.454l13.107-35.915 32.851 10.893-24.16-65.643M233.714 226.132l25.596 68.425" />
        <path id="prefix__hl" stroke="#fff" stroke-width="20" stroke-linecap="round" stroke-linejoin="round"
            d="M0 0l400 200" />
        <animateTransform xlink:href="#prefix__hl" attributeName="transform" attributeType="XML" type="translate"
            values="0 -50;0 400;0 400" keyTimes="0; 0.10;1" dur="4s" begin="0s" repeatCount="indefinite"
            fill="freeze" />
    </g>
</svg>