<svg xmlns="http://www.w3.org/2000/svg" xmlns:xlink="http://www.w3.org/1999/xlink" viewBox="0 0 317.364 394.881">
    <defs>
        <clipPath id="prefix__a" transform="translate(-3.598 -3.776)">
            <path
                d="M250.7 162.543l17.976-6.139-14.994-21.3 20.842-15.623-20.842-15.623 14.994-21.3-24.649-8.418 7.678-24.89-26.045-.389-.389-26.044-24.893 7.683-8.418-24.652-21.3 14.994L155.038 0l-15.624 20.842-21.3-14.994L109.7 30.5l-24.89-7.678-.389 26.044-26.045.389 7.679 24.89L41.4 82.56l14.994 21.3-20.839 15.622L56.4 135.1l-15 21.3 24.65 8.418-7.679 24.89 7.7.115C45.936 242.644 19.933 310.167 0 362.476l55.993-17.117c8.237 20.39 19.924 40.779 28.161 61.169 17.523-44.467 48.144-123.521 67.317-172.322l3.567 4.759 5.534-7.384c20.887 52.839 52.415 120.15 72.008 169.665 9.152-23.019 22.014-46.072 31.166-69.091l62.162 19.069c-22.934-57.28-52.037-130.771-75.208-188.681z"
                fill="none" />
        </clipPath>
        <style>
            .prefix__c,
            .prefix__g,
            .prefix__h {
                fill: none;
                stroke: #e97f55;
                stroke-linecap: round;
                stroke-linejoin: round;
                stroke-width: 4px
            }

            .prefix__g {
                stroke-dasharray: 12 10 72 7 65 1
            }

            .prefix__h {
                stroke-dasharray: 12 10 72 23 55 1
            }
        </style>
    </defs>
    <g clip-path="url(#prefix__a)">
        <path class="prefix__c" d="M168.54 110.277a33.071 33.071 0 00-5.557-2.237l3.105-5.134" />
        <path
            d="M170.161 96.174l9.684-16.01a4.8 4.8 0 00-4.1-7.279h-48.423a4.8 4.8 0 00-4.8 4.8v14.05a4.8 4.8 0 004.8 4.8h12.052"
            stroke-dasharray="56.652 18.097 43.275 .787" class="prefix__c" stroke="#e97f55" stroke-linecap="round" stroke-linejoin="round"
            stroke-width="4" fill="none" />
        <path class="prefix__c" d="M139.767 96.532h6l-3.196 5.078" />
        <path
            d="M138.537 108.017l-7.76 12.329a4.8 4.8 0 00.665 5.944l.555.556a4.8 4.8 0 005.081 1.1 25.41 25.41 0 019.862-1.642c3.826 0 6.708 1 8.808 3.072 2.081 2.051 3.092 4.893 3.092 8.688 0 4.31-1.231 7.556-3.764 9.921a12.985 12.985 0 01-9.248 3.649 15.623 15.623 0 01-7.494-1.877 18.23 18.23 0 01-5.63-4.295 4.8 4.8 0 00-3.712-1.758c-.106 0-.213 0-.321.01a4.8 4.8 0 00-3.763 2.27l-6.5 10.547"
            stroke-dasharray="54.517 17.415 41.645 .757" class="prefix__c" stroke="#fff" stroke-linecap="round" stroke-linejoin="round"
            stroke-width="4" fill="none" />
        <path
            d="M118.21 156.855l-.675 1.1a4.794 4.794 0 00.637 5.852 37.122 37.122 0 0012.679 8.334 39.891 39.891 0 0033.657-1.212 35.042 35.042 0 0013.755-12.552 35.771 35.771 0 005.2-19.472c0-7.095-1.3-13.048-3.869-17.7a26.073 26.073 0 00-10.57-10.678l-.144-.076"
            stroke-dasharray="9.086 7.572 54.517 17.415 41.645 .757" class="prefix__c" stroke="#fff" stroke-linecap="round"
            stroke-linejoin="round" stroke-width="4" fill="none" />
        <path class="prefix__g" d="M60.47 197.08L2.002 350.524l53.838-16.458 23.762 58.815 53.639-136.114" />
        <path class="prefix__h" d="M168.729 234.957l60.465 152.813 26.4-66.4 59.769 18.335-67.466-168.5" />
        <circle class="prefix__g" cx="151.07" cy="116.884" r="84.379" />
        <path class="prefix__g"
            d="M211.764 80.249a69.733 69.733 0 01.762 69.653M79.202 116.883a71.865 71.865 0 0171.868-71.859" />
        <path class="prefix__g"
            d="M245.914 101.862l14.417-20.479-23.701-8.094 7.383-23.932-25.042-.374-.374-25.042-23.932 7.383-8.094-23.701-20.479 14.417L151.07 2l-15.021 20.04-20.48-14.417-8.094 23.701-23.931-7.383-.374 25.042-25.042.374 7.382 23.932-23.7 8.094 14.416 20.479-20.039 15.022 20.039 15.021-14.416 20.48 23.7 8.094-7.382 23.931 25.042.374.374 25.042 23.931-7.383 8.094 23.701 20.48-14.417 15.021 20.04 15.022-20.04 20.479 14.417 8.094-23.701 23.932 7.383.374-25.042 25.042-.374-7.383-23.931 23.701-8.094-14.417-20.48 20.04-15.021-20.04-15.022z" />
        <path class="prefix__h"
            d="M56.02 233.018L17.383 333.181M94.051 233.15l-19.873 51.521M75.135 282.189L55.262 333.71M100.036 309.773l-19.873 51.521M195.112 239.922l37.005 95.319M226.091 193.624l45.617 111.319" />
        <path id="prefix__hl" stroke="#fff" stroke-width="20" stroke-linecap="round" stroke-linejoin="round"
            d="M0 0l400 200" />
        <animateTransform xlink:href="#prefix__hl" attributeName="transform" attributeType="XML" type="translate"
            values="0 -50;0 400;0 400" keyTimes="0; 0.10;1" dur="4s" begin="0s" repeatCount="indefinite"
            fill="freeze" />
    </g>
</svg>