<?xml version="1.0" encoding="utf-8"?>
<!-- Generator: Adobe Illustrator 24.1.1, SVG Export Plug-In . SVG Version: 6.00 Build 0)  -->
<svg version="1.1" id="Layer_1" xmlns="http://www.w3.org/2000/svg" xmlns:xlink="http://www.w3.org/1999/xlink" x="0px" y="0px"
	 viewBox="0 0 56.1 63.1" style="enable-background:new 0 0 56.1 63.1;" xml:space="preserve">
<style type="text/css">
	.st0{fill:#444D48;}
	.st1{fill:url(#SVGID_1_);}
	.st2{fill:#FAFAFA;}
	.st3{opacity:0.5;fill:#B6B6B6;enable-background:new    ;}
	.st4{fill:url(#SVGID_2_);}
	.st5{opacity:0.5;fill:url(#SVGID_3_);enable-background:new    ;}
	.st6{opacity:0.2;enable-background:new    ;}
	.st7{fill:#935737;}
	.st8{fill:url(#SVGID_4_);}
	.st9{fill:#CC804D;}
	.st10{fill:#A8633F;}
	.st11{opacity:0.3;fill:url(#SVGID_5_);enable-background:new    ;}
	.st12{fill:url(#SVGID_6_);}
	.st13{fill:#5D2A14;}
	.st14{fill:#843C1D;}
	.st15{opacity:0.6;fill:#747474;enable-background:new    ;}
	.st16{opacity:0.2;fill:#A3A3A3;enable-background:new    ;}
	.st17{opacity:0.2;fill:#747474;enable-background:new    ;}
	.st18{opacity:0.4;fill:#FAFAFA;enable-background:new    ;}
</style>
<g>
	<g id="Layer_2_1_">
		<g id="Layer_1-2">
			<g>
				<g>
					<polygon class="st0" points="30.5,28.9 30.5,28.9 30.4,29.2 29.2,32 28.4,33.9 28.4,33.9 28.1,34.5 27.6,35.9 27.1,37.1 
						25.9,39.7 16.2,62.3 16.1,62.5 16,62.6 16,62.6 15.8,62.7 15.1,62.8 10.3,53.6 10.3,53.6 7.9,54.1 6.7,54.4 5.9,54.6 2.9,55.3 
						0.9,55.8 0.9,55.8 0.9,55.8 0,56 11,31.6 13.8,25.5 15.4,22.1 15.4,22.1 15.9,22.3 16,22.4 17.5,23.1 19.8,24.1 20.4,24.4 
						21.2,24.7 26.2,27 27,27.4 27,27.4 27.5,27.6 27.5,27.6 28,27.8 28,27.8 28,27.8 29,28.2 29,28.2 29.8,28.6 					"/>
					
						<linearGradient id="SVGID_1_" gradientUnits="userSpaceOnUse" x1="25.9971" y1="35.2798" x2="6.4021" y2="8.2548" gradientTransform="matrix(1 0 0 -1 0 63.8898)">
						<stop  offset="0" style="stop-color:#444D48"/>
						<stop  offset="1" style="stop-color:#747474"/>
					</linearGradient>
					<polygon class="st1" points="31.4,28.7 31.2,29 31.1,29.3 30.9,29.7 30.9,29.7 29.5,32.7 29.5,32.7 28.7,34.5 28.7,34.6 
						28.4,35.2 28.1,35.9 26.8,38.9 16.2,62.3 16.1,62.5 16,62.6 15.2,60.8 13.7,58.1 13.4,57.5 12.8,56.4 12.8,56.4 11.2,53.3 
						10.3,53.6 7.9,54.3 6.6,54.5 5.9,54.7 2.9,55.3 2.5,55.4 0.9,55.8 0.9,55.8 0.9,55.8 11.8,31.7 11.8,31.7 14.2,26.4 16,22.4 
						16.2,21.8 17.8,22.5 20,23.5 20.6,23.8 21.5,24.2 26.4,26.4 27.3,26.8 27.8,27.1 27.8,27.1 28.7,27.5 28.7,27.5 29.7,27.9 
						29.7,27.9 30,28.1 30.2,28.1 31,28.5 31.3,28.6 					"/>
					<polygon class="st2" points="20,23.5 19.8,24.1 5.9,54.6 5.9,54.6 5.9,54.7 2.9,55.3 2.9,55.3 2.9,55.3 17.5,23.1 17.8,22.5 
											"/>
					<polygon class="st2" points="30,28.1 15.2,60.8 13.7,58.1 27.8,27.1 					"/>
					<polygon class="st2" points="27.3,26.8 13.4,57.5 12.8,56.4 26.4,26.4 					"/>
					<polygon class="st2" points="21.5,24.2 21.2,24.7 7.9,54.1 7.9,54.1 7.9,54.3 6.6,54.5 6.7,54.4 6.7,54.4 20.4,24.4 20.6,23.8 
											"/>
					<polygon class="st3" points="31.4,28.3 31.3,28.6 31.2,29 31.1,29.3 30.9,29.7 30.9,29.7 29.5,32.7 29.5,32.7 28.7,34.5 
						28.7,34.6 28.4,35.2 28.1,35.9 26.8,38.9 26.8,38.9 16.2,62.3 16.1,62.5 16,62.6 16,62.6 15.8,62.7 15.1,62.8 15.1,62.8 
						10.3,53.6 7.9,54.3 6.6,54.5 5.9,54.7 2.9,55.3 2.5,55.4 0.9,55.8 0.9,55.4 11.6,31.7 15.9,22.3 16.2,21.5 29.1,27.3 30,27.7 
						30.1,27.7 30.8,28 					"/>
				</g>
				<g>
					<polygon class="st0" points="56.1,55 55.9,55.9 45.4,53 40.9,63.1 30.8,40.5 28.4,35.2 28.1,34.5 28.1,34.5 27.6,33.4 
						26.3,30.4 26,29.7 25.9,29.6 26,29.6 26.4,29.4 26.4,29.4 26.8,29.2 27.8,28.8 29,28.2 29,28.2 29,28.2 29.7,27.9 29.7,27.9 
						30,27.8 30.1,27.7 30.5,27.5 31.4,27.1 36.3,24.9 37.2,24.5 37.8,24.3 40,23.3 41.1,22.8 42.9,26.8 44.2,29.5 44.2,29.5 
						44.7,30.6 					"/>
					
						<linearGradient id="SVGID_2_" gradientUnits="userSpaceOnUse" x1="35.0637" y1="39.5257" x2="44.6827" y2="11.5547" gradientTransform="matrix(1 0 0 -1 0 63.8898)">
						<stop  offset="0" style="stop-color:#444D48"/>
						<stop  offset="1" style="stop-color:#747474"/>
					</linearGradient>
					<polygon class="st4" points="56.1,55 53.9,54.4 53.9,54.4 50.9,53.6 50,53.3 48.9,53 48.9,53 45.5,52.1 44,55.4 43.5,56.5 
						43.1,57.2 42.2,59.1 41.8,60.1 41.8,60.1 40.9,61.9 32.8,43.6 31.1,39.9 29.3,36 28.7,34.6 28.7,34.5 28.4,33.9 28.4,33.9 
						28.4,33.8 28.4,33.8 27.9,32.7 26.6,29.7 26.6,29.7 26.4,29.4 26.3,29 26.3,29 26.1,28.7 26.1,28.7 26.5,28.5 26.5,28.5 
						27.3,28.2 27.5,28.1 28,27.8 28,27.8 28.7,27.5 28.7,27.5 29.1,27.3 29.7,27.1 30.2,26.8 31.1,26.4 36,24.2 36.9,23.8 
						36.9,23.8 37.5,23.5 39.7,22.5 41.2,21.8 41.2,21.8 43.3,26.6 43.5,26.9 					"/>
					<polygon class="st2" points="53.9,54.4 53.9,54.4 50.9,53.6 41,31.5 37.8,24.3 37.5,23.5 39.7,22.5 39.7,22.5 40,23.3 43.5,31 
											"/>
					<polygon class="st2" points="43.1,57.2 42.2,59.1 41.8,60.1 32,38.2 29.5,32.7 29.2,32 29.2,31.9 28.7,30.9 27.8,28.8 
						27.5,28.1 28,27.8 28,27.8 28.7,27.5 28.7,27.5 29.1,27.3 29.7,27.1 30,27.7 30,27.8 30.2,28.1 30.9,29.7 35.2,39.4 					"/>
					<polygon class="st2" points="44,55.4 43.5,56.5 35.8,39.4 31.2,29 31.2,29 31,28.5 30.8,28 30.5,27.5 30.2,26.8 31.1,26.4 
						31.4,27.1 36.4,38.3 					"/>
					<polygon class="st2" points="50,53.3 48.9,53 41.1,35.6 36.3,24.9 36,24.2 36.9,23.8 36.9,23.8 37.2,24.5 40.7,32.5 					"/>
					
						<linearGradient id="SVGID_3_" gradientUnits="userSpaceOnUse" x1="41.081" y1="35.1568" x2="41.081" y2="3.1948" gradientTransform="matrix(1 0 0 -1 0 63.8898)">
						<stop  offset="0" style="stop-color:#828282"/>
						<stop  offset="3.000000e-03" style="stop-color:#848484"/>
						<stop  offset="7.300000e-02" style="stop-color:#A8A8A8"/>
						<stop  offset="0.147" style="stop-color:#C5C5C5"/>
						<stop  offset="0.225" style="stop-color:#DDDDDD"/>
						<stop  offset="0.308" style="stop-color:#EDEDED"/>
						<stop  offset="0.4" style="stop-color:#F7F7F7"/>
						<stop  offset="0.52" style="stop-color:#FAFAFA"/>
						<stop  offset="0.596" style="stop-color:#F5F5F5"/>
						<stop  offset="0.688" style="stop-color:#E6E6E6"/>
						<stop  offset="0.788" style="stop-color:#CECECE"/>
						<stop  offset="0.894" style="stop-color:#ACACAC"/>
						<stop  offset="1" style="stop-color:#828282"/>
					</linearGradient>
					<polygon class="st5" points="56.1,55 53.9,54.4 53.9,54.4 50.9,53.6 50,53.3 48.9,53 48.9,53 46.4,52.3 45.5,52.1 44,55.4 
						43.5,56.5 43.1,57.2 42.2,59.1 41.8,60.1 41.8,60.1 40.9,61.9 40.9,61.9 32.8,43.6 31.1,39.9 29.3,36 28.7,34.5 28.4,33.9 
						28.4,33.9 28.4,33.8 28.4,33.8 27.9,32.7 26.6,29.7 26.4,29.4 26.3,29 26.1,28.7 26.5,28.5 26.5,28.5 27.3,28.2 27.5,28.1 
						28,27.8 28,27.8 28.7,27.5 28.7,27.5 29.1,27.3 29.7,27.1 30.2,26.8 31.1,26.4 36,24.2 36.9,23.8 36.9,23.8 37.5,23.5 
						39.7,22.5 39.7,22.5 41.2,21.8 43.3,26.6 					"/>
					<polygon class="st6" points="44.7,30.6 44.7,30.6 44,30.9 43.5,31 41,31.5 40.6,31.6 40.7,32.5 41.1,35.6 41.1,35.6 40.5,35.9 
						36.9,35.5 36.4,38.3 36.2,39.3 35.8,39.4 35.5,39.5 35.2,39.4 32.1,38 32,38.2 31.1,39.9 30.8,40.5 28.4,35.2 28.1,35.9 
						26.8,38.9 26.8,38.9 25.9,39.7 25.9,39.7 24.2,41.3 24,41.4 23.5,41.6 22.2,39.3 21.9,38.7 21.4,38 21.1,38.1 18.3,39.4 
						17.6,39.7 16.8,35.6 16.3,35.7 15.2,35.8 14.4,35.9 14.4,35.9 12.7,36.1 12.6,36.1 12.9,33.2 12.9,33.2 13,32.1 13.1,32 
						11.8,31.7 11.8,31.7 11.6,31.7 11,31.6 13.8,25.5 15.4,22.1 15.4,22.1 15.9,22.3 16.2,21.5 29.1,27.3 29.7,27.1 30.2,26.8 
						31.1,26.4 36,24.2 36.9,23.8 37.5,23.5 39.7,22.5 41.2,21.8 41.2,21.8 43.3,26.6 43.3,26.6 43,26.7 42.9,26.8 42.9,26.8 
						43,26.9 44.2,29.5 44.2,29.5 					"/>
				</g>
				<g>
					<polygon class="st7" points="42.7,25.3 44.7,28.2 44,28.5 40.6,29.2 40.5,29.2 39.9,29.4 40,29.7 40.1,29.8 41.1,33.3 41,33.3 
						40.5,33.5 39.1,33.4 36.9,33.1 36.4,33.1 36.3,33.1 36.3,33.2 36.2,34.8 36.2,36.9 35.5,37.2 32.1,35.7 31.7,35.5 30.4,38.9 
						29.7,39.2 26.8,36.5 26.6,36.3 24.2,38.9 23.5,39.2 21.4,35.6 21.4,35.6 18.3,37.1 17.6,37.4 16.8,33.3 12.7,33.8 12.6,33.8 
						13,29.8 13.1,29.6 8.9,28.9 9,28.7 10.7,25 10.6,25 7,23 9.8,19.9 9.7,19.8 6.9,16.9 7,16.8 10.6,14.8 10.5,14.6 8.8,11 
						9.5,10.7 11.7,10.3 12.9,10.1 12.8,10 12.4,6.7 12.3,6 13,5.7 13.5,5.8 16.5,6.4 16.5,6.2 16.6,6.1 17.3,2.3 18,2 21.1,4 
						21.4,3.5 23.1,0.3 23.8,0.1 26.2,3.1 26.7,2.7 29.3,0.3 30,0 31.3,3.8 31.4,3.9 31.5,3.9 32,3.6 32.9,3.3 35.1,2.3 35.9,5.7 
						36,6.2 36.6,6.1 40.2,5.7 39.8,9 39.7,9.8 40.7,10 43.8,10.6 42.6,13.5 42.1,14.5 43.1,15 45.8,16.5 43.7,18.8 43,19.6 
						43.7,20.4 45.9,22.6 43.1,24.2 42.2,24.7 					"/>
					<path class="st2" d="M16.6,29.1l-2.8,4l-1.1,0.6l-0.1,0l0.4-4l1.3-0.7l-4.2-0.8L9,28.8l1.7-3.7l-0.1,0l1.2-0.4l-3.5-2L7,23
						l2.8-3.1l-0.1-0.1l1.2-0.3l0.2-1.1l-3-1.9L7,16.8l3.5-2l-0.1-0.1l1-0.3c0.7,1.2,1.4,2.4,1.9,3.7C13.3,18.2,16.6,29.1,16.6,29.1
						z"/>
					
						<linearGradient id="SVGID_4_" gradientUnits="userSpaceOnUse" x1="7.609" y1="44.4183" x2="46.552" y2="44.4183" gradientTransform="matrix(1 0 0 -1 0 63.8898)">
						<stop  offset="0" style="stop-color:#A8633F"/>
						<stop  offset="0.468" style="stop-color:#A6623E"/>
						<stop  offset="0.7" style="stop-color:#9E5D3B"/>
						<stop  offset="0.879" style="stop-color:#915536"/>
						<stop  offset="1" style="stop-color:#834D31"/>
					</linearGradient>
					<polygon class="st8" points="40.6,29.1 40.6,29.2 40.8,30.5 41.1,33.3 40.9,33.2 38.7,33 37,32.8 36.9,33.1 36.5,35.1 
						36.2,36.9 32.4,35.2 32.1,35.7 30.4,38.9 27.2,36.1 26.8,36.5 24.2,38.9 22.1,35.3 21.4,35.6 18.3,37.1 17.5,33 13.3,33.5 
						13.3,33.4 13.7,29.4 13.7,29.4 9.6,28.6 9.7,28.5 11.3,24.8 11.3,24.8 11.3,24.7 7.7,22.8 7.7,22.7 10.4,19.7 10.5,19.6 
						10.4,19.6 10.4,19.6 7.6,16.6 7.6,16.6 11.1,14.6 11.2,14.5 11.2,14.4 11.2,14.4 9.8,11.3 9.7,11.2 9.5,10.7 11.6,10.2 
						12.8,10 13.3,9.9 13.5,9.8 13.5,9.6 13.5,9.5 13.3,7.6 13.1,6.2 13,5.7 13.5,5.7 15.4,5.9 16.3,6 16.6,6.1 17,6.1 17.2,6.1 
						17.2,6 18,2 21.4,3.5 21.8,3.7 23.8,0.1 26.7,2.7 26.9,2.9 30,0 32,3.6 32.1,3.6 32.9,3.3 35.8,1.9 36.7,5.9 40.9,5.4 
						40.4,9.6 44.5,10.4 42.8,14.1 42.8,14.2 42.9,14.2 46.5,16.2 43.8,19.2 43.7,19.3 43.8,19.4 46.6,22.4 43,24.4 42.9,24.5 
						43,24.6 44.7,28.2 40.6,29.1 40.6,29.1 40.6,29.1 					"/>
					<g>
						<path class="st7" d="M42.3,19.6c0,2.5-0.5,5-1.6,7.3c-0.1,0.2-0.2,0.3-0.3,0.5c-0.1,0.2-0.2,0.4-0.3,0.6c0,0,0,0,0,0
							c-0.1,0.2-0.2,0.3-0.3,0.5s-0.2,0.3-0.3,0.5c-0.2,0.3-0.5,0.6-0.7,0.9c-0.1,0.1-0.2,0.2-0.3,0.3c-0.7,0.8-1.5,1.6-2.4,2.2
							c-0.1,0.1-0.2,0.2-0.3,0.2c-2.6,1.8-5.7,2.7-8.9,2.7c-1.6,0-3.1-0.2-4.6-0.6c0,0-0.1,0-0.1,0c-5-1.4-9-5.1-10.8-9.9
							c0,0,0-0.1,0-0.1c-0.6-1.6-0.9-3.3-0.9-5c0-0.1,0-0.1,0-0.2v0c0-1.7,0.2-3.3,0.7-4.9c0-0.1,0-0.1,0.1-0.2
							c0.2-0.6,0.4-1.1,0.6-1.6c0-0.1,0.1-0.2,0.1-0.3c0-0.1,0.1-0.1,0.1-0.2c0.1-0.3,0.3-0.5,0.4-0.8c0.3-0.6,0.6-1.1,1-1.6
							c0.1-0.1,0.1-0.2,0.2-0.3c0,0,0,0,0,0c0,0,0-0.1,0.1-0.1c0.3-0.4,0.5-0.7,0.8-1c0.1-0.1,0.2-0.3,0.4-0.4l0,0
							C14.9,8,14.9,7.9,15,7.9c0.2-0.2,0.4-0.4,0.6-0.6C15.7,7.2,15.9,7,16,6.9c0.3-0.3,0.6-0.5,1-0.8c0,0,0,0,0,0
							c0.1,0,0.1-0.1,0.2-0.1C19,4.7,21,3.9,23.2,3.5v0c1.8-0.2,3.6-0.3,5.4,0c0.9,0.1,1.7,0.4,2.5,0.8c0.2,0.1,0.5,0.1,0.7,0
							c2.7,1,5.1,2.7,6.9,4.9c0,0,0,0,0,0c0.1,0.1,0.1,0.2,0.2,0.2c0,0,0,0,0,0l0,0c1,1.2,1.7,2.6,2.3,4.1l0,0
							C41.9,15.4,42.3,17.5,42.3,19.6z"/>
						<path class="st9" d="M43.8,19.2c0-0.2,0-0.3,0-0.5c-0.1-1.3-0.3-2.5-0.6-3.8c-0.1-0.3-0.2-0.5-0.2-0.8c0,0,0,0,0-0.1
							c-0.1-0.2-0.2-0.5-0.3-0.7c-0.5-1.2-1.1-2.4-1.9-3.4c-0.3-0.4-0.5-0.7-0.8-1.1c-0.9-1.1-2-2-3.2-2.8c-0.2-0.2-0.5-0.3-0.7-0.5
							c-1.4-0.8-2.9-1.4-4.4-1.8c0,0-0.1,0-0.1,0c-0.1,0-0.2,0-0.3-0.1c-0.8-0.2-1.7-0.3-2.5-0.3c-1.6-0.1-3.3,0-4.8,0.4v0
							c-2.2,0.5-4.2,1.5-6,2.9c-0.1,0.1-0.2,0.2-0.4,0.3c-0.4,0.3-0.7,0.6-1,0.9c-0.1,0.1-0.2,0.2-0.3,0.3c-0.3,0.3-0.5,0.6-0.8,0.9
							c-0.1,0.1-0.1,0.1-0.2,0.2c-0.7,0.8-1.2,1.7-1.7,2.6c-0.1,0.1-0.1,0.2-0.2,0.3l0,0c-0.5,1-0.9,2-1.2,3.1
							c0,0.1-0.1,0.3-0.1,0.4c-0.3,1.2-0.4,2.5-0.4,3.8c0,6.8,4.3,12.9,10.6,15.2c0,0,0,0,0.1,0c1.7,0.6,3.6,0.9,5.4,0.9
							c2.6,0,5.3-0.6,7.6-1.9c0.4-0.2,0.7-0.4,1.1-0.6v0h0c0,0,0.1,0,0.1-0.1c0.5-0.3,1-0.7,1.4-1c0.4-0.3,0.7-0.6,1.1-1
							c0.1-0.1,0.2-0.2,0.3-0.3l0,0c0.3-0.3,0.6-0.7,0.9-1c0,0,0,0,0,0c0-0.1,0.1-0.1,0.1-0.2c0.1-0.1,0.2-0.3,0.3-0.4
							c0,0,0.1-0.1,0.1-0.1l0,0c0,0,0,0,0,0c0.2-0.3,0.5-0.6,0.7-1c0.6-0.9,1-1.8,1.4-2.8c0.1-0.3,0.2-0.5,0.3-0.8
							c0-0.1,0-0.1,0.1-0.2c0,0,0-0.1,0-0.2c0.4-1.3,0.6-2.6,0.7-3.9c0-0.3,0-0.6,0-0.8v-0.1C43.8,19.3,43.8,19.3,43.8,19.2z"/>
						<path class="st10" d="M27.6,34.6c-8.3,0-15.1-6.7-15.1-15.1S19.3,4.5,27.6,4.5s15.1,6.7,15.1,15.1c0,0,0,0,0,0
							C42.7,27.8,35.9,34.6,27.6,34.6z"/>
						<g>
							
								<linearGradient id="SVGID_5_" gradientUnits="userSpaceOnUse" x1="15.9446" y1="34.8867" x2="39.1566" y2="53.7347" gradientTransform="matrix(1 0 0 -1 0 63.8898)">
								<stop  offset="0" style="stop-color:#FAFAFA"/>
								<stop  offset="0.431" style="stop-color:#FAFAFA"/>
								<stop  offset="0.505" style="stop-color:#FAFAFA"/>
								<stop  offset="0.547" style="stop-color:#FAFAFA"/>
								<stop  offset="1" style="stop-color:#FAFAFA"/>
							</linearGradient>
							<path class="st11" d="M27.6,34.6c-8.3,0-15.1-6.7-15.1-15.1S19.3,4.5,27.6,4.5s15.1,6.7,15.1,15.1c0,0,0,0,0,0
								C42.7,27.8,35.9,34.6,27.6,34.6z"/>
						</g>
						<g>
							
								<linearGradient id="SVGID_6_" gradientUnits="userSpaceOnUse" x1="29.0691" y1="59.3555" x2="26.1451" y2="29.3065" gradientTransform="matrix(1 0 0 -1 0 63.8898)">
								<stop  offset="0" style="stop-color:#A8633F"/>
								<stop  offset="0.468" style="stop-color:#A6623E"/>
								<stop  offset="0.7" style="stop-color:#9E5D3B"/>
								<stop  offset="0.879" style="stop-color:#915536"/>
								<stop  offset="1" style="stop-color:#834D31"/>
							</linearGradient>
							<path class="st12" d="M42.7,19.5c0,8.3-6.7,15.1-15.1,15.1c-8.3,0-15.1-6.7-15.1-15.1S19.3,4.5,27.6,4.5
								c2.4,0,4.7,0.5,6.8,1.6C39.5,8.6,42.7,13.8,42.7,19.5z"/>
						</g>
						<g>
							<path class="st13" d="M32.9,18.9c-0.6-0.5-1.3-0.9-2.1-1.1c-0.2,0-0.4-0.1-0.6-0.1v-0.1c0.4-0.1,0.8-0.3,1.2-0.4
								c0.4-0.2,0.8-0.5,1.1-0.8c0.7-0.6,1-1.5,1-2.4c0-1.1-0.6-2.1-1.6-2.7c-1.3-0.7-2.7-1-4.2-0.9c-1.6,0-3.3,0.2-4.8,0.8
								c0,0.1-0.6,0.6-0.6,0.7c0,0.1,0,0.1,0,0.2c0,0.1,0,0.1,0,0.2c0,1,0.4,1.8,0.4,2.8c0.4,0.1,0.7,0.3,0.9,0.5
								c0.3,0.2,0.6,0.4,0.9,0.4c0.1,0,0.5-0.7,0.6-0.7l0.1-0.2l0.4-1.6l0.1-0.3c0-0.1,0.1-0.1,0.1-0.2c0,0,0,0,0,0
								c0.4-0.2,0.9-0.3,1.3-0.3c0.6-0.1,1.3,0.1,1.7,0.6c0.3,0.4,0.5,0.8,0.5,1.3c0,0.7-0.2,1.3-0.8,1.7c-0.5,0.3-1,0.6-1.6,0.7
								c-0.7,0.1-1.5,0.2-2.3,0.2c0,0,0,0.1,0,0.1c-0.1,0.2-0.5,0.5-0.5,0.6c0,0.6,0.5,0.9,0.6,1.5c0,0,0,0,0,0.1h1.4
								c0.3,0,0.5,0,0.8,0c1.5,0.2,2.6,1,2.6,2.4c0,0,0,0.1,0,0.2c0,0.4-0.1,0.7-0.3,1c-0.1,0.1-0.2,0.3-0.3,0.4
								c0,0-0.1,0.1-0.1,0.1l-0.1,0.1c-0.6,0.4-1.3,0.6-2.1,0.6c-0.4,0-0.7-0.1-1-0.2c-0.1,0-0.2-0.1-0.2-0.2l-0.6-2.3
								c0,0-0.1,0-0.1,0c-0.6,0.1-1.3,0.2-1.8,0.3c-0.2,0-0.4,0.1-0.6,0.1c0,0.1-0.6,0.6-0.6,0.7c0.1,1.3,0.9,2.2,1.1,3.5
								c0.3,0.1,0.6,0.1,0.9,0.1c0,0,0,0,0,0c0.8,0.1,1.6,0.1,2.4,0.1c0.5,0,0.9,0,1.3,0c1.2,0,2.4-0.3,3.5-0.8
								c0.3-0.1,0.5-0.3,0.8-0.5c0.1-0.1,0.3-0.2,0.4-0.3c0,0,0,0,0.1-0.1c0.1-0.1,0.2-0.2,0.4-0.3c0.3-0.3,0.5-0.6,0.7-1
								c0.3-0.6,0.5-1.2,0.4-1.9C33.9,20.4,33.5,19.5,32.9,18.9z"/>
							<path class="st14" d="M32.4,19.7L32.4,19.7c-0.7-0.8-1.7-1.3-2.8-1.4v-0.1c0.4-0.1,0.8-0.2,1.1-0.4c0.7-0.3,1.3-0.8,1.7-1.5
								c0.3-0.5,0.5-1.1,0.5-1.7c0-1.1-0.6-2.1-1.6-2.7c-1.3-0.7-2.7-1-4.2-0.9c-1.6,0-3.3,0.2-4.8,0.8c0,0.1,0,0.1,0,0.2
								c0,0,0,0.1,0,0.1c-0.1,0.8-0.1,1.6-0.1,2.4c0,0.4,0,0.7,0,1.1c0.4,0.1,0.8,0.1,1.3,0.2c0.4,0,0.8,0.1,1.1,0.1l0.3-1.2
								l0.2-0.9c0-0.1,0-0.2,0.1-0.2c0.1-0.1,0.2-0.2,0.4-0.2c0.3-0.1,0.7-0.2,1-0.2c0.6-0.1,1.3,0.1,1.7,0.6
								c0.3,0.4,0.5,0.8,0.5,1.3c0,0.4-0.1,0.7-0.2,1.1c-0.3,0.5-0.7,0.9-1.2,1.1c-0.7,0.3-1.4,0.4-2.1,0.5c-0.3,0-0.7,0-1.1,0
								c0,0.3,0,0.6,0,0.9c0,0.5,0,0.9,0.1,1.4h1.4c1.9,0,3.3,0.8,3.3,2.5c0,0.3,0,0.5-0.1,0.8c0,0.1-0.1,0.2-0.1,0.3
								c-0.1,0.2-0.3,0.4-0.5,0.6c-0.6,0.5-1.4,0.7-2.2,0.6h0c-0.3,0-0.7-0.1-1-0.2c-0.1,0-0.2-0.1-0.2-0.2l-0.2-1L24.4,22
								c0,0,0,0,0,0c-0.3,0-0.5,0.1-0.8,0.1c-0.6,0.1-1.2,0.2-1.7,0.3c0.1,1.3,0.3,2.6,0.5,3.8c0,0.1,0,0.2,0,0.3
								c1.1,0.2,2.2,0.3,3.3,0.3c0.8,0,1.6,0,2.5-0.2c1.1-0.1,2.2-0.5,3.2-1.1c0,0,0,0,0,0c0.4-0.3,0.7-0.6,1.1-1
								c0.1-0.1,0.2-0.3,0.4-0.5c0.2-0.4,0.4-0.8,0.5-1.2c0.1-0.3,0.1-0.6,0.1-1C33.3,21.2,33,20.4,32.4,19.7z"/>
						</g>
						<path class="st15" d="M42.7,19.5c0,8.1-6.4,14.7-14.4,15.1c7.7-0.7,13.6-7.3,13.4-15c0.1-8.2-6.4-14.9-14.5-15.1
							c-0.1,0-0.1,0-0.2,0c-0.2,0-0.5,0-0.7,0c0.4,0,0.9-0.1,1.4-0.1C35.9,4.5,42.7,11.2,42.7,19.5z"/>
						<g>
							<path class="st13" d="M39.9,26.1c-0.2,0.5-0.6,1-1,1.4c-0.2,0.1-0.5,0.2-0.8,0.2l0,0c-0.2,0-0.4-0.1-0.5-0.4
								c-0.1-0.4,0.2-1,0.8-1.2c0.1-0.1,0.3-0.1,0.4-0.1C39.2,25.9,39.5,25.9,39.9,26.1z"/>
							<path class="st13" d="M36.8,27c-0.1,0.1-0.2,0.1-0.4,0.1c-0.4-0.1-0.7-0.4-0.8-0.7c-0.2-0.5-0.3-1.1-0.3-1.7c0,0,0-0.1,0-0.1
								c0.5,0.1,1,0.4,1.3,0.9C37,26,37.1,26.7,36.8,27z"/>
							<path class="st13" d="M38.3,28.9c0,0-0.6,1-1.2,1.1c-0.2,0-0.4,0.1-0.5,0.1c-0.3,0-0.6-0.2-0.7-0.5c-0.1-0.4,0.3-0.9,1-1.1
								c0,0,0.1,0,0.1,0C37.4,28.5,37.9,28.6,38.3,28.9z"/>
							<path class="st13" d="M34.8,29.2c-0.1,0-0.1,0-0.2,0c-0.4-0.2-0.7-0.7-0.7-1.1c0-0.5,0-1.1,0.3-1.6c0-0.1,0.1-0.2,0.1-0.2
								c0.4,0.4,0.8,0.8,1,1.4C35.4,28.5,35.2,29.1,34.8,29.2z"/>
							<path class="st13" d="M41.1,22.4c-0.1,0.6-0.4,1.1-0.8,1.5c-0.3,0.2-0.6,0.3-1,0.3c-0.2,0-0.3-0.1-0.4-0.2
								c-0.2-0.4,0.1-1,0.6-1.4c0.3-0.2,0.6-0.3,0.9-0.3l0,0C40.6,22.4,40.9,22.4,41.1,22.4z"/>
							<path class="st13" d="M38.3,24c-0.1,0.2-0.4,0.3-0.6,0.2c-0.3,0-0.5-0.2-0.8-0.4c-0.4-0.5-0.6-1-0.7-1.6c0,0,0.1,0,0.2,0
								c0,0,0,0,0,0c0.5,0,0.9,0.1,1.3,0.3C38.3,23,38.5,23.7,38.3,24z"/>
							<path class="st13" d="M39.8,16.5c-0.2,0.6-0.7,1.1-1,0.9l0,0c0,0,0,0-0.1,0c-0.3-0.2-0.4-0.9-0.2-1.5c0.2-0.4,0.5-0.8,1-1.1
								c0.1-0.1,0.2-0.1,0.2-0.1C39.9,15.2,39.9,15.9,39.8,16.5z"/>
							<path class="st13" d="M38.2,17.7c-0.1,0.3-0.5,0.4-0.8,0.4c-0.2,0-0.4-0.1-0.6-0.2c-0.6-0.3-1-1.4-1-1.4
								c0.3-0.1,0.6-0.2,0.9-0.2c0.2,0,0.5,0,0.7,0.1C38,16.7,38.4,17.3,38.2,17.7z"/>
							<path class="st13" d="M40.5,20.3c-0.3,0.5-0.8,0.7-1.1,0.6c-0.1,0-0.1,0-0.2-0.1c-0.3-0.3-0.2-1,0.2-1.5
								c0.4-0.4,0.9-0.7,1.4-0.8C40.9,19.1,40.8,19.7,40.5,20.3z"/>
							<path class="st13" d="M38.4,20.8c-0.1,0.2-0.4,0.3-0.7,0.3c-0.2,0-0.5-0.1-0.7-0.3c-0.4-0.4-0.7-0.9-0.9-1.5
								c0.2,0,0.4-0.1,0.6-0.1h0c0.3,0,0.6,0,0.9,0.2C38.3,19.8,38.6,20.4,38.4,20.8z"/>
							<path class="st13" d="M38.4,12.9c-0.1,0.6-0.5,1.1-0.8,1c0,0,0,0,0,0c-0.3-0.1-0.4-0.7-0.3-1.3c0.1-0.4,0.4-0.8,0.7-1.1
								c0.1-0.1,0.2-0.2,0.2-0.2C38.3,11.9,38.4,12.4,38.4,12.9z"/>
							<path class="st13" d="M37.4,14.8c-0.1,0.3-0.4,0.5-0.9,0.5c-0.1,0-0.2,0-0.2,0c-0.5-0.1-1.1-1-1.1-1c0.3-0.2,0.6-0.3,1-0.4
								c0.1,0,0.2,0,0.3,0C37.1,14,37.5,14.4,37.4,14.8z"/>
							<path class="st13" d="M36.7,10.5c0,0.6-0.3,1-0.6,1c0,0-0.1,0-0.1,0c-0.3-0.3-0.4-0.6-0.4-1c0.1-0.4,0.2-0.7,0.4-1
								c0.1-0.1,0.1-0.2,0.1-0.2C36.5,9.6,36.6,10,36.7,10.5z"/>
							<path class="st13" d="M36.1,12.3c0,0.3-0.4,0.6-0.9,0.5h0c-0.4-0.1-0.7-0.4-1-0.7c0.3-0.2,0.6-0.4,0.9-0.5c0.1,0,0.1,0,0.2,0
								C35.8,11.7,36.1,12,36.1,12.3z"/>
							<path class="st13" d="M35.2,10.6c-0.1,0.2-0.3,0.3-0.5,0.2c-0.2,0-0.3-0.1-0.5-0.2c-0.3-0.3-0.5-0.7-0.6-1.1
								c0.1,0,0.2,0,0.4,0c0.3,0,0.6,0,0.8,0.2C35.1,9.9,35.3,10.4,35.2,10.6z"/>
						</g>
						<g>
							<path class="st14" d="M39.6,26.1c0,0-0.4,1.1-1,1.4c-0.2,0.1-0.4,0.1-0.6,0.2l0,0c-0.2,0-0.4-0.1-0.5-0.4
								c-0.1-0.4,0.2-1,0.8-1.2c0.1-0.1,0.3-0.1,0.4-0.1C39.1,25.9,39.4,26,39.6,26.1z"/>
							<path class="st14" d="M36.5,27c0,0-0.1,0.1-0.2,0.1c-0.4-0.1-0.7-0.4-0.8-0.7c-0.2-0.5-0.3-1.1-0.3-1.7
								c0.4,0.1,0.8,0.4,1.1,0.8C36.8,26,36.8,26.7,36.5,27z"/>
							<path class="st14" d="M38.1,28.9c0,0-0.6,1-1.2,1.1c-0.1,0-0.2,0-0.3,0.1c-0.3,0-0.6-0.2-0.7-0.5c-0.1-0.4,0.3-0.9,1-1.1
								c0,0,0.1,0,0.1,0C37.3,28.5,37.7,28.6,38.1,28.9z"/>
							<path class="st14" d="M34.6,29.2c-0.4-0.2-0.7-0.7-0.7-1.1c0-0.5,0-1.1,0.3-1.6c0.4,0.3,0.7,0.8,0.8,1.2
								C35.1,28.5,35,29.1,34.6,29.2z"/>
							<path class="st14" d="M40.8,22.4C40.7,23,40.4,23.5,40,24c-0.2,0.2-0.5,0.3-0.7,0.3c-0.2,0-0.3-0.1-0.4-0.2
								c-0.2-0.4,0.1-1,0.6-1.4c0.3-0.2,0.6-0.3,0.9-0.3l0,0C40.6,22.4,40.7,22.4,40.8,22.4z"/>
							<path class="st14" d="M38.1,24c-0.1,0.1-0.2,0.2-0.3,0.2c-0.3,0-0.5-0.2-0.8-0.4c-0.4-0.5-0.6-1-0.7-1.6c0,0,0.1,0,0.2,0
								c0,0,0,0,0,0c0.4,0,0.7,0.1,1.1,0.3C38,23,38.3,23.7,38.1,24z"/>
							<path class="st14" d="M39.5,16.5c-0.1,0.4-0.4,0.8-0.8,0.9l0,0c0,0,0,0-0.1,0c-0.3-0.2-0.4-0.9-0.2-1.5
								c0.2-0.4,0.5-0.8,1-1.1C39.6,15.3,39.7,15.9,39.5,16.5z"/>
							<path class="st14" d="M38,17.7c-0.1,0.2-0.3,0.4-0.5,0.4c-0.2,0-0.4-0.1-0.6-0.2c-0.6-0.3-1-1.4-1-1.4
								c0.3-0.1,0.6-0.2,0.9-0.2c0.1,0,0.3,0,0.4,0.1C37.8,16.7,38.1,17.3,38,17.7z"/>
							<path class="st14" d="M40.3,20.3c-0.2,0.3-0.5,0.5-0.8,0.6c-0.1,0-0.1,0-0.2-0.1c-0.3-0.3-0.2-1,0.2-1.5
								c0.3-0.4,0.7-0.6,1.2-0.7C40.6,19.2,40.5,19.7,40.3,20.3z"/>
							<path class="st14" d="M38.2,20.8c-0.1,0.2-0.3,0.3-0.4,0.3c-0.2,0-0.5-0.1-0.7-0.3c-0.4-0.4-0.7-0.9-0.9-1.5
								c0.2,0,0.4-0.1,0.6-0.1h0c0.2,0,0.5,0.1,0.7,0.2C38.1,19.8,38.4,20.4,38.2,20.8z"/>
							<path class="st14" d="M38.2,12.9c0,0.4-0.3,0.8-0.6,1c-0.3-0.1-0.4-0.7-0.3-1.3c0.1-0.4,0.4-0.8,0.7-1.1
								C38.1,12,38.2,12.5,38.2,12.9z"/>
							<path class="st14" d="M37.2,14.8c-0.1,0.3-0.3,0.5-0.6,0.5c-0.1,0-0.2,0-0.2,0c-0.5-0.1-1.1-1-1.1-1c0.3-0.2,0.6-0.3,1-0.4
								c0,0,0.1,0,0.1,0C36.8,14,37.2,14.4,37.2,14.8z"/>
							<path class="st14" d="M36.4,10.5c0,0.4-0.1,0.7-0.4,0.9c-0.3-0.3-0.4-0.6-0.4-1c0.1-0.4,0.2-0.7,0.4-1
								C36.3,9.7,36.4,10.1,36.4,10.5z"/>
							<path class="st14" d="M35.9,12.3c0,0.3-0.3,0.5-0.7,0.5c-0.4-0.1-0.7-0.4-1-0.7c0.3-0.2,0.6-0.4,0.9-0.5
								C35.6,11.8,35.9,12,35.9,12.3z"/>
							<path class="st14" d="M35,10.6c-0.1,0.1-0.2,0.2-0.3,0.2c-0.2,0-0.3-0.1-0.5-0.2c-0.3-0.3-0.5-0.7-0.6-1.1c0.1,0,0.2,0,0.4,0
								c0.2,0,0.4,0.1,0.6,0.2C34.9,9.9,35.1,10.4,35,10.6z"/>
						</g>
						<g>
							<path class="st13" d="M17.6,27c-0.1,0.4-0.7,0.5-1.3,0.2c0,0,0,0-0.1,0c-0.4-0.4-0.8-0.8-0.9-1.4c0.5-0.2,1-0.2,1.4-0.1
								c0,0,0.1,0,0.1,0C17.4,26,17.8,26.6,17.6,27z"/>
							<path class="st13" d="M19.6,26.1c-0.4,0.6-0.9,0.9-1.2,0.7c0,0,0,0,0,0c-0.3-0.3-0.2-1,0.1-1.6c0.3-0.4,0.7-0.7,1.1-0.8
								c0.1,0,0.2-0.1,0.2-0.1C19.9,24.8,19.8,25.5,19.6,26.1z"/>
							<path class="st13" d="M19.3,29.4c-0.1,0.4-0.7,0.7-1.3,0.5c-0.1,0-0.2-0.1-0.3-0.1c-0.4-0.3-0.7-0.6-0.9-1
								c0.4-0.3,1-0.5,1.5-0.4c0.1,0,0.1,0,0.2,0.1C19,28.5,19.3,28.9,19.3,29.4z"/>
							<path class="st13" d="M21.2,27.9c-0.1,0.8-0.6,1.3-0.9,1.2c-0.1,0-0.1-0.1-0.2-0.1c-0.3-0.4-0.4-1-0.2-1.5
								c0.2-0.5,0.4-1,0.8-1.3c0.1-0.1,0.1-0.1,0.1-0.1C21.2,26.7,21.3,27.3,21.2,27.9z"/>
							<path class="st13" d="M16.2,23.7C16,24,15.6,24,15.1,23.8c0,0,0,0,0,0c-0.1,0-0.1-0.1-0.2-0.1c-0.4-0.5-0.7-1-0.8-1.6
								c0.4-0.1,0.8,0,1.2,0.1c0.1,0,0.2,0.1,0.3,0.2C16.2,22.7,16.4,23.3,16.2,23.7z"/>
							<path class="st13" d="M18.9,21.9c-0.1,0.6-0.4,1.2-0.7,1.7c-0.5,0.4-1,0.5-1.2,0.3c0,0-0.1-0.1-0.1-0.1c-0.2-0.4,0-1,0.5-1.5
								c0.4-0.3,0.8-0.4,1.3-0.3C18.8,21.8,18.9,21.9,18.9,21.9z"/>
							<path class="st13" d="M16.5,16.7c-0.2,0.1-0.4,0-0.5-0.1c-0.3-0.2-0.5-0.5-0.6-0.9c-0.1-0.6-0.1-1.2,0.1-1.9c0,0,0,0,0,0
								c0.5,0.3,0.9,0.7,1.2,1.2C16.9,15.8,16.8,16.5,16.5,16.7z"/>
							<path class="st13" d="M19.3,15.8c0,0-0.4,1.1-1,1.4c-0.3,0.2-0.8,0.2-1.2,0C17,17.2,17,17.1,16.9,17c-0.1-0.4,0.2-1,0.8-1.3
								c0.4-0.2,0.9-0.1,1.3,0C19.2,15.8,19.3,15.8,19.3,15.8z"/>
							<path class="st13" d="M15.9,20.3c-0.2,0.2-0.4,0.1-0.7,0c-0.2-0.1-0.4-0.3-0.5-0.5c-0.3-0.6-0.4-1.2-0.4-1.8
								c0.2,0,0.4,0.1,0.6,0.2c0.3,0.1,0.6,0.3,0.8,0.6C16.1,19.3,16.2,20,15.9,20.3z"/>
							<path class="st13" d="M19,18.8c-0.2,0.6-0.5,1.1-0.9,1.5c-0.3,0.3-0.8,0.3-1.2,0.1c-0.1,0-0.1-0.1-0.1-0.2
								c-0.2-0.4,0.1-1,0.7-1.4c0.4-0.2,0.9-0.3,1.3-0.2C18.9,18.7,19,18.8,19,18.8z"/>
							<path class="st13" d="M17.6,13.1c-0.1,0-0.3,0-0.3-0.1c-0.2-0.3-0.4-0.6-0.4-0.9c0-0.5,0.1-1,0.3-1.5c0-0.1,0-0.1,0-0.1
								c0.4,0.3,0.7,0.8,0.8,1.3C18,12.4,17.9,13,17.6,13.1z"/>
							<path class="st13" d="M19.9,13.4c0,0-0.5,0.9-1.1,1c-0.3,0.1-0.6,0.1-0.9-0.1c-0.1-0.1-0.2-0.2-0.2-0.3
								c-0.1-0.4,0.3-0.8,0.9-1c0.3,0,0.6,0,0.9,0.1C19.7,13.2,19.8,13.3,19.9,13.4z"/>
							<path class="st13" d="M19.1,10.5c-0.1,0-0.2,0-0.3-0.1c-0.2-0.3-0.3-0.6-0.3-0.9c0-0.4,0.2-0.8,0.4-1.2
								c0-0.1,0.1-0.1,0.1-0.1c0.3,0.4,0.5,0.8,0.6,1.2C19.5,10,19.3,10.5,19.1,10.5z"/>
							<path class="st13" d="M21,11.3c0,0-0.5,0.7-1,0.7c-0.2,0-0.5,0-0.7-0.2c-0.1-0.1-0.2-0.2-0.2-0.4c0-0.3,0.4-0.7,0.8-0.7
								c0.1,0,0.3,0,0.4,0.1C20.5,10.9,20.7,11.1,21,11.3z"/>
							<path class="st13" d="M21.6,8.4c-0.1,0.4-0.3,0.9-0.6,1.2c-0.4,0.3-0.8,0.3-0.9,0.1c0,0-0.1-0.1-0.1-0.1
								c-0.1-0.3,0.1-0.8,0.5-1.1c0.3-0.2,0.6-0.2,0.9-0.2C21.5,8.4,21.6,8.4,21.6,8.4z"/>
						</g>
						<g>
							<path class="st14" d="M17.4,26.9c-0.1,0.4-0.6,0.5-1.2,0.3c-0.4-0.4-0.8-0.8-0.9-1.4c0.5-0.2,1-0.2,1.4-0.1
								C17.2,25.9,17.4,26.4,17.4,26.9z"/>
							<path class="st14" d="M19.4,26c-0.3,0.5-0.7,0.8-1,0.8c-0.3-0.3-0.2-1,0.1-1.6c0.3-0.4,0.7-0.7,1.1-0.8
								C19.7,24.9,19.6,25.4,19.4,26z"/>
							<path class="st14" d="M19.1,29.3c-0.1,0.4-0.7,0.7-1.3,0.5c0,0,0,0-0.1,0c-0.4-0.3-0.7-0.6-0.9-1c0.4-0.3,1-0.5,1.5-0.4
								c0.1,0,0.1,0,0.2,0.1C18.9,28.6,19.1,28.9,19.1,29.3z"/>
							<path class="st14" d="M21,27.8c-0.1,0.7-0.5,1.2-0.9,1.2c-0.3-0.4-0.4-1-0.2-1.5c0.2-0.5,0.4-1,0.8-1.3
								C21,26.7,21.1,27.3,21,27.8z"/>
							<path class="st14" d="M16,23.6c-0.1,0.3-0.5,0.3-0.9,0.2c0,0,0,0,0,0c-0.1,0-0.1-0.1-0.2-0.1c-0.4-0.5-0.7-1-0.8-1.6
								c0.4-0.1,0.8,0,1.2,0.1c0,0,0.1,0,0.1,0.1C15.9,22.6,16.2,23.2,16,23.6z"/>
							<path class="st14" d="M18.7,21.8c-0.1,0.6-0.3,1.1-0.7,1.6c-0.3,0.3-0.6,0.4-1,0.4c0,0-0.1-0.1-0.1-0.1c-0.2-0.4,0-1,0.5-1.5
								C17.8,21.9,18.2,21.8,18.7,21.8z"/>
							<path class="st14" d="M16.2,16.6c-0.1,0-0.2,0-0.3,0c-0.3-0.2-0.5-0.5-0.6-0.9c-0.1-0.6-0.1-1.2,0.1-1.9
								c0.4,0.3,0.7,0.7,0.9,1.1C16.7,15.7,16.6,16.4,16.2,16.6z"/>
							<path class="st14" d="M19,15.7c-0.2,0.5-0.5,1-1,1.4c-0.3,0.2-0.6,0.2-0.9,0.1C17,17.2,17,17.1,16.9,17
								c-0.1-0.4,0.2-1,0.8-1.3C18.2,15.6,18.6,15.6,19,15.7z"/>
							<path class="st14" d="M15.7,20.2c-0.1,0.1-0.3,0.2-0.5,0.1c-0.2-0.1-0.4-0.3-0.5-0.5c-0.3-0.6-0.4-1.2-0.4-1.8
								c0.2,0,0.4,0.1,0.6,0.2c0.2,0.1,0.4,0.3,0.5,0.5C15.9,19.2,16,19.9,15.7,20.2z"/>
							<path class="st14" d="M18.7,18.7c-0.2,0.6-0.5,1.1-0.9,1.5c-0.3,0.2-0.6,0.3-1,0.3c-0.1,0-0.1-0.1-0.1-0.2
								c-0.2-0.4,0.1-1,0.7-1.4C17.8,18.7,18.3,18.6,18.7,18.7z"/>
							<path class="st14" d="M17.3,13c0,0-0.1,0-0.1,0c-0.2-0.3-0.4-0.6-0.4-0.9c0-0.5,0.1-1,0.3-1.5c0.3,0.3,0.5,0.7,0.6,1.1
								C17.8,12.3,17.6,12.9,17.3,13z"/>
							<path class="st14" d="M19.7,13.2c0,0-0.5,0.9-1.1,1c-0.2,0.1-0.5,0.1-0.7,0c-0.1-0.1-0.2-0.2-0.2-0.3c-0.1-0.4,0.3-0.8,0.9-1
								c0.3,0,0.6,0,0.9,0.1C19.6,13.2,19.7,13.2,19.7,13.2z"/>
							<path class="st14" d="M18.8,10.4L18.8,10.4c-0.2-0.3-0.3-0.6-0.3-0.9c0-0.4,0.2-0.8,0.4-1.2c0.2,0.3,0.4,0.7,0.4,1
								C19.3,9.9,19.1,10.3,18.8,10.4z"/>
							<path class="st14" d="M20.7,11.2c0,0-0.5,0.7-1,0.7c-0.2,0-0.3,0-0.4-0.1c-0.1-0.1-0.2-0.2-0.2-0.4c0-0.3,0.4-0.7,0.8-0.7
								c0.1,0,0.3,0,0.4,0.1C20.4,10.9,20.6,11,20.7,11.2z"/>
							<path class="st14" d="M21.4,8.4c-0.1,0.4-0.3,0.8-0.6,1.1c-0.2,0.2-0.5,0.2-0.7,0.2c0,0-0.1-0.1-0.1-0.1
								c-0.1-0.3,0.1-0.8,0.5-1.1C20.7,8.4,21.1,8.3,21.4,8.4z"/>
						</g>
						<path class="st16" d="M42.7,19.5c0,8.3-6.8,15.1-15.1,15.1c-0.4,0-0.8,0-1.2,0c-5.6-0.5-10.4-3.9-12.6-9
							c22.4,5.2,21.1-15.3,20.7-18.9c0-0.1,0.1-0.3,0.1-0.4c2.7,1.4,4.9,3.5,6.3,6.2C42.1,14.6,42.7,17,42.7,19.5z"/>
						<path class="st17" d="M42.7,19.5c0,8.3-6.8,15.1-15.1,15.1c-0.4,0-0.8,0-1.2,0C36.6,31,39.7,20.1,40.6,14l0.7-0.7
							C42.3,15.3,42.7,17.4,42.7,19.5z"/>
					</g>
				</g>
				<g>
					<polygon class="st18" points="39.1,33.4 36.9,33.1 36.5,35.1 35.2,33.8 34.7,33.3 34.4,33 34.4,33 26.6,25.2 26.1,24.7 
						24.7,23.3 23,21.6 18.5,17.1 18.3,16.9 17.4,16 16.7,15.3 16.7,15.3 16.4,15 15.4,14 15.4,14 14.2,12.8 13.4,12 12.5,11.1 
						11.7,10.3 11.6,10.2 12.8,10 12.4,6.7 13.3,7.6 14.3,8.6 16.8,11.1 17.7,12 17.9,12.2 18.7,13 19.4,13.7 19.6,13.9 24.2,18.5 
						24.9,19.2 25.6,19.9 29,23.3 29.3,23.6 31.1,25.4 31.3,25.6 34,28.3 34,28.3 34.6,28.8 34.8,29.1 34.9,29.2 					"/>
					<polygon class="st18" points="41.1,33.3 41,33.3 40.9,33.2 38.8,31.1 38.2,30.5 37.5,29.8 37.4,29.7 36.4,28.6 35.4,27.7 
						35.1,27.4 34.2,26.5 32.4,24.7 32.3,24.6 30.4,22.6 29.6,21.8 13.5,5.7 15.4,5.9 16.3,6 16.5,6.2 16.7,6.4 17.4,7.1 18.8,8.5 
						19.2,8.9 19.5,9.2 22.4,12.1 22.4,12.1 25,14.7 25.3,15 27.1,16.8 33.2,22.9 33.5,23.2 35.3,25 36.5,26.2 37.6,27.3 37.8,27.5 
						37.8,27.5 38.8,28.5 39.4,29.1 40,29.7 40.1,29.8 40.8,30.5 					"/>
				</g>
			</g>
		</g>
	</g>
</g>
</svg>
