<svg xmlns="http://www.w3.org/2000/svg" xmlns:xlink="http://www.w3.org/1999/xlink" viewBox="0 0 279 278"><defs><linearGradient id="b" x1="160" y1="-150" x2="160" y2="35" gradientUnits="userSpaceOnUse"><stop offset=".1" stop-color="#fff" stop-opacity="0"/><stop offset=".5" stop-color="#fff" stop-opacity=".7"/><stop offset=".94" stop-color="#fff" stop-opacity="0"/></linearGradient><clipPath id="a"><path id="d" d="M247.1 222.3c-17.3-8.1-35.3 9.5-27.8 27 2.5 5.8-4.9 10.7-9.3 6.2-13.2-13.8-36.3-3.9-35.6 15.1.3 6.3-8.4 8.3-10.9 2.4-7.3-17.5-32.5-16.7-38.7 1.3-2 6-10.8 4.6-11-1.7-.5-19-24.3-27.3-36.5-12.8a5.7 5.7 0 01-9.7-5.5c6.4-18-12.8-34.3-29.5-25.1-5.5 3-11.1-4-7-8.7 12.5-14.4.5-36.6-18.4-34.1-6.2.8-9-7.7-3.4-10.6 16.8-9 13.7-33.9-4.8-38.4-6.2-1.5-5.6-10.4.6-11.2 18.9-2.2 25-26.7 9.4-37.5a5.7 5.7 0 014.7-10.2c18.4 4.7 32.9-15.9 22.3-31.6a5.7 5.7 0 018-7.8c15.4 11 36.4-2.9 32.2-21.5-1.4-6.1 6.8-9.6 10.2-4.4 10.5 15.9 35.1 10.4 37.8-8.4 1-6.3 9.9-6.6 11.2-.4 4 18.6 28.9 22.4 38.3 5.9a5.6 5.6 0 0110.5 3.7c-3 18.8 18.8 31.3 33.6 19.2 4.9-4 11.6 1.8 8.5 7.3-9.6 16.4 6.2 36 24.3 30.1 6-2 10.2 5.9 5.3 9.8-14.9 11.9-7.2 35.9 11.8 36.9 6.3.3 7.4 9.2 1.4 11.1-18.2 5.7-19.7 30.8-2.3 38.6 5.8 2.6 3.6 11.3-2.7 10.8-19-1.2-29.5 21.7-16.1 35.2 4.4 4.6-.7 11.9-6.4 9.3z" style="fill:none"/></clipPath></defs><path id="c" d="M247.1 222.3c-17.3-8.1-35.3 9.5-27.8 27 2.5 5.8-4.9 10.7-9.3 6.2-13.2-13.8-36.3-3.9-35.6 15.1.3 6.3-8.4 8.3-10.9 2.4-7.3-17.5-32.5-16.7-38.7 1.3-2 6-10.8 4.6-11-1.7-.5-19-24.3-27.3-36.5-12.8a5.7 5.7 0 01-9.7-5.5c6.4-18-12.8-34.3-29.5-25.1-5.5 3-11.1-4-7-8.7 12.5-14.4.5-36.6-18.4-34.1-6.2.8-9-7.7-3.4-10.6 16.8-9 13.7-33.9-4.8-38.4-6.2-1.5-5.6-10.4.6-11.2 18.9-2.2 25-26.7 9.4-37.5a5.7 5.7 0 014.7-10.2c18.4 4.7 32.9-15.9 22.3-31.6a5.7 5.7 0 018-7.8c15.4 11 36.4-2.9 32.2-21.5-1.4-6.1 6.8-9.6 10.2-4.4 10.5 15.9 35.1 10.4 37.8-8.4 1-6.3 9.9-6.6 11.2-.4 4 18.6 28.9 22.4 38.3 5.9a5.6 5.6 0 0110.5 3.7c-3 18.8 18.8 31.3 33.6 19.2 4.9-4 11.6 1.8 8.5 7.3-9.6 16.4 6.2 36 24.3 30.1 6-2 10.2 5.9 5.3 9.8-14.9 11.9-7.2 35.9 11.8 36.9 6.3.3 7.4 9.2 1.4 11.1-18.2 5.7-19.7 30.8-2.3 38.6 5.8 2.6 3.6 11.3-2.7 10.8-19-1.2-29.5 21.7-16.1 35.2 4.4 4.6-.7 11.9-6.4 9.3z" style="fill:red"/><path d="M69.5 184c-5.1 0-9.2-.9-12.3-2.9a16.7 16.7 0 01-6.5-8.6 41.3 41.3 0 01-1.9-13.4h11.3a45.6 45.6 0 00.6 7.5 14.2 14.2 0 002.7 6.1c1.4 1.5 3.5 2.3 6.4 2.3s5.3-.9 6.6-2.7A14.7 14.7 0 0079 165c.3-3.1.5-6.5.5-10.4a69 69 0 00-.6-9.9 11.8 11.8 0 00-2.7-6.3c-1.3-1.4-3.4-2.2-6.3-2.2a9 9 0 00-6 2.2 15.1 15.1 0 00-3.6 4.9h-9.6v-46h37v11.4H61l-.8 23.7a15.3 15.3 0 015.3-3.5 19.2 19.2 0 017.1-1.2c4.7 0 8.3 1.1 11 3.2a17.9 17.9 0 015.6 9.1 47.5 47.5 0 011.6 13.1 76.8 76.8 0 01-.9 12.2 31.2 31.2 0 01-3.3 9.9 16.5 16.5 0 01-6.6 6.5c-2.7 1.6-6.2 2.3-10.5 2.3zm52.1.2q-7.3 0-12-3.3a19.1 19.1 0 01-7-9 34 34 0 01-2.3-13.1v-37a35.8 35.8 0 012.2-13.2 18.1 18.1 0 017-8.8c3.1-2.1 7.1-3.2 12.1-3.2s9 1.1 12.1 3.2a18.5 18.5 0 016.9 8.8 38 38 0 012.2 13.2v37a36.1 36.1 0 01-2.3 13.2 18.8 18.8 0 01-6.9 8.9q-4.6 3.3-12 3.3zm0-9.4a7.9 7.9 0 006.1-2.3 12.9 12.9 0 002.8-6 31.6 31.6 0 00.8-7.6v-37.2a39.7 39.7 0 00-.7-7.8 12.1 12.1 0 00-2.8-5.9 8.5 8.5 0 00-6.2-2.2 8.6 8.6 0 00-6.3 2.2 12.1 12.1 0 00-2.8 5.9 39.7 39.7 0 00-.8 7.8v37.2a37.7 37.7 0 00.8 7.6 13.1 13.1 0 003 6 8.1 8.1 0 006.1 2.3zm47.7-31.9c-5.9 0-10.1-1.8-12.7-5.4s-4-8.4-4-14.5v-6.7c0-6.3 1.3-11.1 3.9-14.5s6.8-5.1 12.8-5.1 10.3 1.6 12.8 4.9 3.8 8 3.8 14.2v7.5c0 6.2-1.3 11-3.8 14.4s-6.9 5.2-12.8 5.2zm0-8.6a5.3 5.3 0 004.1-1.5 8.2 8.2 0 001.8-4.1 31 31 0 00.5-5.4v-7.5a20.1 20.1 0 00-1.2-7.4c-.7-2.1-2.5-3.1-5.2-3.1s-4.5 1-5.2 3.1a23.7 23.7 0 00-1.1 7.5v7.5a31 31 0 00.5 5.4 8.2 8.2 0 001.8 4 5.1 5.1 0 004 1.5zm10.2 48.9l23.6-86h9.8l-23.6 86zm43.3.5c-5.8 0-10.1-1.8-12.6-5.3s-3.9-8.4-3.9-14.6v-6.7c0-6.2 1.2-11 3.7-14.4s6.8-5.2 12.8-5.2 10.4 1.7 12.9 4.9 3.8 8.1 3.8 14.3v7.4c0 6.2-1.3 11.1-3.9 14.5s-6.8 5.1-12.8 5.1zm0-8.6a5.5 5.5 0 004.2-1.5 8.2 8.2 0 001.8-4.1 43.9 43.9 0 00.4-5.3v-7.6a22.6 22.6 0 00-1.1-7.4c-.8-2.1-2.5-3.1-5.3-3.1s-4.5 1-5.2 3.1a23.9 23.9 0 00-1 7.5v7.5a31.2 31.2 0 00.4 5.4 10.6 10.6 0 001.8 4 5.2 5.2 0 004 1.5z" style="fill:#fff"/><g style="clip-path:url(#a)"><path transform="rotate(26 -324.86 75)" d="M-90.2-118.8h538.4v150H-90.2z" id="e" style="fill:url(#b)"/></g><animateTransform xlink:href="#c" accumulate="none" additive="replace" attributeName="transform" calcMode="linear" dur="10s" fill="freeze" from="0 139 139" to="360 139 139" repeatCount="indefinite" restart="always" type="rotate"/><animateTransform xlink:href="#d" accumulate="none" additive="replace" attributeName="transform" calcMode="linear" dur="10s" fill="freeze" from="0 139 139" to="360 139 139" repeatCount="indefinite" restart="always" type="rotate"/><animateTransform xlink:href="#e" accumulate="none" additive="replace" attributeName="transform" dur="10s" fill="freeze" keyTimes="0;0.3;1" values="-50 -250;-50 400;-50 400" repeatCount="indefinite" restart="always" type="translate"/></svg>