<?xml version="1.0" encoding="utf-8"?>
<!-- Generator: Adobe Illustrator 24.1.1, SVG Export Plug-In . SVG Version: 6.00 Build 0)  -->
<svg version="1.1" id="Layer_1" xmlns="http://www.w3.org/2000/svg" xmlns:xlink="http://www.w3.org/1999/xlink" x="0px" y="0px"
	 viewBox="0 0 284.1 111.1" style="enable-background:new 0 0 284.1 111.1;" xml:space="preserve">
<style type="text/css">
	.st0{filter:url(#Adobe_OpacityMaskFilter);}
	.st1{mask:url(#SVGID_1_);}
	.st2{fill:#004A80;}
	.st3{fill:#F7931E;}
	.st4{opacity:0.7;fill:none;stroke:#FFFFFF;stroke-width:31.41;stroke-miterlimit:10;enable-background:new    ;}
</style>
<defs>
	<filter id="Adobe_OpacityMaskFilter" filterUnits="userSpaceOnUse" x="-21.7" y="-82.5" width="365.1" height="193.6">
		
			<feColorMatrix  type="matrix" values="-1 0 0 0 1  0 -1 0 0 1  0 0 -1 0 1  0 0 0 1 0" color-interpolation-filters="sRGB" result="source"/>
	</filter>
</defs>
<mask maskUnits="userSpaceOnUse" x="-21.7" y="-82.5" width="365.1" height="193.6" id="SVGID_1_">
	<g class="st0">
		<g>
			<polygon points="69.4,28.4 120.9,111.1 138.4,111.1 69.4,0.3 0.5,111.1 18,111.1 			"/>
			<polygon points="82.7,80.1 69.4,58.8 56.1,80.1 			"/>
			<path d="M83.9,82.1h-29l-5,8h39L83.9,82.1z M67.1,88.1h-8.9v-2.9h8.9V88.1z M69.3,85.2h0.9v0.9h-0.9V85.2z M71.1,88.1h-0.9v-0.9
				h0.9V88.1z M72.2,86.1h-0.9v-0.9h0.9V86.1z M73.1,88.1h-0.9v-0.9h0.9V88.1z M74.2,86.1h-0.9v-0.9h0.9V86.1z M75.1,88.1h-0.9v-0.9
				h0.9V88.1z M76.2,86.1h-0.9v-0.9h0.9V86.1z M77.1,88.1h-0.9v-0.9h0.9V88.1z M78.2,86.1h-0.9v-0.9h0.9V86.1z M79.1,88.1h-0.9v-0.9
				h0.9V88.1z M80.2,86.1h-0.9v-0.9h0.9V86.1z M81.1,88.1h-0.9v-0.9h0.9V88.1z"/>
			<path d="M90.2,92.1H48.7l-5,8h51.4L90.2,92.1z M67.1,97.9h-8.9V95h8.9V97.9z M70.2,95.9h-0.9V95h0.9V95.9z M71.1,97.9h-0.9V97
				h0.9V97.9z M72.2,95.9h-0.9V95h0.9V95.9z M73.1,97.9h-0.9V97h0.9V97.9z M74.2,95.9h-0.9V95h0.9V95.9z M75.1,97.9h-0.9V97h0.9
				V97.9z M76.2,95.9h-0.9V95h0.9V95.9z M77.1,97.9h-0.9V97h0.9V97.9z M78.2,95.9h-0.9V95h0.9V95.9z M79.1,97.9h-0.9V97h0.9V97.9z
				 M80.2,95.9h-0.9V95h0.9V95.9z M81.1,97.9h-0.9V97h0.9V97.9z"/>
			<path d="M96.4,102.1H42.5l-5.6,9H102L96.4,102.1z M67.1,107.7h-8.9v-2.9h8.9V107.7z M70.2,105.7h-0.9v-0.9h0.9V105.7z
				 M71.1,107.7h-0.9v-0.9h0.9V107.7z M72.2,105.7h-0.9v-0.9h0.9V105.7z M73.1,107.7h-0.9v-0.9h0.9V107.7z M74.2,105.7h-0.9v-0.9
				h0.9V105.7z M75.1,107.7h-0.9v-0.9h0.9V107.7z M76.2,105.7h-0.9v-0.9h0.9V105.7z M77.1,107.7h-0.9v-0.9h0.9V107.7z M78.2,105.7
				h-0.9v-0.9h0.9V105.7z M79.1,107.7h-0.9v-0.9h0.9V107.7z M80.2,105.7h-0.9v-0.9h0.9V105.7z M81.1,107.7h-0.9v-0.9h0.9V107.7z"/>
			<g>
				<g>
					<path d="M132.6,43.2l-8.3,19.6h5l1.7-4.5h7.7l1.7,4.5h5.2l-8.4-19.6H132.6z M132.5,54.2l2.2-5.9l2.3,5.9H132.5z"/>
					<path d="M154.4,48.2l-2.8,0c-1.1,0-2.1,0.1-3.1,0.4c-1,0.3-1.9,0.9-2.7,1.9c-0.6,0.8-1,1.6-1.3,2.6c-0.2,0.9-0.3,1.9-0.3,2.8
						c0.1,2.1,0.8,3.8,2,5c1.2,1.2,2.9,1.9,5.1,1.9h7.4V43.2h-4.4V48.2z M154.4,59.1h-0.2c-0.2,0-0.4,0-0.5,0l-0.3,0
						c-1.3,0-2.4-0.1-3.3-0.4c-0.8-0.2-1.3-1.2-1.3-2.9l0-0.7c0-0.5,0.1-0.9,0.3-1.4c0.1-0.4,0.4-0.8,0.7-1.1
						c0.2-0.2,0.4-0.3,0.6-0.4c0.2-0.1,0.4-0.2,0.7-0.2c0.3,0,0.6-0.1,0.9-0.1c0.3,0,0.6,0,0.9,0c0,0,1.5,0,1.5,0V59.1z"/>
					<path d="M173.6,49.7c-0.6-0.6-1.4-1.1-2.2-1.2c-0.8-0.2-1.6-0.3-2.4-0.3h-7.9v3.6l6.5,0c0.9,0,1.7,0.1,2.3,0.4
						c0.2,0.1,0.6,0.3,0.7,1.4l-4.5,0c-1.5,0-2.8,0.3-3.9,0.8c-1.2,0.5-1.8,1.7-2,3.5c-0.1,1.5,0.3,2.7,1.1,3.5
						c0.8,0.9,2,1.3,3.5,1.3H175v-9c0-0.7-0.1-1.5-0.3-2.2C174.5,50.9,174.1,50.3,173.6,49.7z M170.6,59.3h-4.2l-0.2,0
						c-0.4,0-0.8-0.1-1.1-0.2c-0.1,0-0.3-0.1-0.3-0.9c0-0.6,0.3-0.8,0.4-0.8c0.4-0.2,0.8-0.2,1.2-0.3l0-0.4l0.1,0.4l0.2,0h3.9V59.3z
						"/>
					<polygon points="186.6,48.2 181.3,54.3 181.3,43.2 176.9,43.2 176.9,62.8 181.3,62.8 181.3,56.7 186.3,62.8 192.2,62.8 
						185.5,55.4 192.3,48.2 					"/>
					<path d="M216.9,55.7c-0.1-0.6-0.2-1.2-0.4-1.8c-0.2-0.6-0.6-1.1-1-1.5c-0.5-0.5-1.1-0.8-1.7-1c-0.6-0.2-1.3-0.3-1.9-0.3
						c-0.2,0-0.4,0-0.7,0c-0.2,0-0.4,0-0.6,0l-5.3,0c-0.6,0-1.1-0.1-1.6-0.4c-0.4-0.2-0.6-0.7-0.6-1.3c0-0.8,0.2-1.4,0.7-1.7
						c0.5-0.3,1.2-0.5,2-0.5h10.2v-4.1l-10.8,0c-2.1,0-3.8,0.4-5,1.3c-1.3,0.9-1.9,2.5-2,4.8c0,2.2,0.6,3.8,1.8,4.6
						c1.2,0.8,2.7,1.2,4.7,1.2l4.8,0c0.7,0,1.3,0.1,1.8,0.3c0.1,0.1,0.6,0.2,0.7,1.2c0.2,1.3-0.4,1.6-0.6,1.7
						c-0.6,0.3-1.2,0.4-2,0.4l-10.5,0v4.1H210c2.1,0,3.8-0.4,5-1.2c1.3-0.8,1.9-2.4,2-4.8c0-0.2,0-0.4,0-0.5
						C217,56.1,216.9,55.9,216.9,55.7z"/>
					<path d="M222.5,48.6c-1,0.3-1.9,0.8-2.6,1.6c-0.6,0.6-1,1.4-1.3,2.2c-0.3,0.8-0.4,1.6-0.5,2.4c0,0.1,0,0.3,0,0.4l0,0.9
						c0.1,0.9,0.2,1.7,0.5,2.5c0.3,0.8,0.7,1.6,1.3,2.2c0.7,0.8,1.6,1.3,2.6,1.6c0.9,0.2,1.9,0.4,2.9,0.4h5.7v-3.6l-5.2,0
						c-1,0-1.8-0.1-2.3-0.4c-0.5-0.2-0.6-0.9-0.7-1.5h8.2v-3.6l-8.2,0c0.1-0.8,0.3-1.3,0.7-1.5c0.6-0.3,1.3-0.4,2.3-0.4h5.2v-3.6
						l-5.7,0C224.4,48.2,223.4,48.4,222.5,48.6z"/>
					<path d="M238.8,48.2h-6.5v14.6h4.4V51.6h0c1.6,0,1.9,0.2,1.9,0.2c0,0,0.2,0.3,0.2,2v0.9l4.2,0v-1.2c0-1.5-0.1-2.8-0.5-3.7
						C242.2,48.8,240.9,48.3,238.8,48.2z"/>
					<polygon points="255,48.2 251.2,57.4 247.6,48.2 242.7,48.2 248.9,62.8 253.3,62.8 259.8,48.2 					"/>
					<path d="M263.2,48.6c-1,0.3-1.9,0.8-2.6,1.6c-0.6,0.6-1,1.4-1.3,2.2c-0.3,0.8-0.4,1.6-0.5,2.4c0,0.1,0,0.3,0,0.4l0,0.9
						c0.1,0.9,0.2,1.7,0.5,2.5c0.3,0.8,0.7,1.6,1.3,2.2c0.7,0.8,1.6,1.3,2.6,1.6c0.9,0.2,1.9,0.4,2.9,0.4h5.7v-3.6l-5.2,0
						c-1,0-1.8-0.1-2.3-0.4c-0.5-0.2-0.6-0.9-0.7-1.5h8.2v-3.6l-8.2,0c0.1-0.8,0.3-1.3,0.7-1.5c0.6-0.3,1.3-0.4,2.3-0.4h5.2v-3.6
						l-5.7,0C265.2,48.3,264.2,48.4,263.2,48.6z"/>
					<path d="M283,49.9c-0.4-1.1-1.6-1.6-3.8-1.6h-6.5v14.6h4.4V51.6h0c1.6,0,1.9,0.2,1.9,0.2c0,0,0.2,0.3,0.2,2v0.9l4.2,0v-1.2
						C283.4,52,283.3,50.8,283,49.9z"/>
				</g>
			</g>
			<g>
				<path d="M150.8,70.1c0.3,0,0.5-0.1,0.7-0.2s0.3-0.4,0.3-0.6c0-0.5-0.3-0.8-1-0.8c-0.6,0-0.9,0.3-0.9,0.8c0,0.3,0.1,0.5,0.3,0.6
					C150.3,70,150.6,70.1,150.8,70.1z"/>
				<path d="M154,75.6c0,0.6-0.3,0.9-1,0.9c-0.3,0-0.6-0.1-0.9-0.3c-0.2-0.2-0.4-0.5-0.4-0.8v-2.1h-1.4v2.4c0,0.6-0.3,0.9-1,0.9
					c-0.3,0-0.6-0.1-0.9-0.3c-0.2-0.2-0.4-0.5-0.4-0.8v-2.1h-1.4v2c0,0.7-0.3,1.1-1,1.1h-2.9c-0.5,0-0.8-0.1-0.9-0.1
					c-0.2-0.1-0.4-0.3-0.4-0.7c0-0.1,0-0.3,0-0.6c0-0.8-0.2-1.5-0.6-2.1c-0.5-0.6-1.1-0.9-1.8-0.9c-0.9,0-1.5,0.3-2,0.9
					c-0.4,0.5-0.6,1.2-0.6,2.1c0,0.7,0,1-0.1,1.1c-0.1,0.1-0.5,0.2-1,0.2v0c-0.7,0-1.2-0.1-1.3-0.2c-0.2-0.2-0.3-0.6-0.3-1.2v-6.2
					h-1.4v6.8c0,0.7,0.2,1.2,0.5,1.5c0.4,0.4,1.2,0.6,2.2,0.7v0c1.4,0,2.1-0.3,2.2-0.8c0.2,0.3,0.5,0.5,0.8,0.7
					c0.4,0.2,0.7,0.3,1.1,0.3c0.9,0,1.6-0.3,2-1c0.2,0.4,0.5,0.6,0.7,0.7c0.2,0.1,0.5,0.1,1,0.1v0h3c0.6,0,1.3-0.3,1.9-1
					c0.6,0.8,1.3,1.2,2,1.2c0.6,0,1.2-0.3,1.8-1c0.6,0.7,1.2,1,2,1c0.7,0,1.2-0.3,1.5-0.8c0.3-0.4,0.5-1,0.5-1.7v-2.2H154V75.6z
					 M139,76.5c-0.8,0-1.3-0.5-1.3-1.5c0-1.1,0.4-1.6,1.3-1.6c0.8,0,1.2,0.5,1.2,1.5C140.2,75.9,139.8,76.5,139,76.5z"/>
				<path d="M149.5,72.2c0.2,0,0.5-0.1,0.6-0.3c0.2-0.2,0.3-0.4,0.3-0.6c0-0.5-0.3-0.8-1-0.8c-0.6,0-0.9,0.3-0.9,0.8
					c0,0.3,0.1,0.5,0.3,0.6C149,72.1,149.2,72.2,149.5,72.2z"/>
				<path d="M151.2,71.3c0,0.3,0.1,0.5,0.3,0.6c0.2,0.2,0.4,0.2,0.7,0.2c0.3,0,0.5-0.1,0.7-0.3c0.2-0.2,0.3-0.4,0.3-0.6
					c0-0.5-0.3-0.8-1-0.8C151.5,70.5,151.2,70.8,151.2,71.3z"/>
				<path d="M166.7,75.8c-0.4-0.1-1.1-0.2-2.3-0.2c0-0.9,0.1-1.4,0.2-1.6c0.2-0.5,0.6-0.7,1.1-0.7h1.7l-0.1-1.4h-1.7
					c-0.8,0-1.4,0.2-1.8,0.7c-0.5,0.5-0.7,1.1-0.7,1.8V77h2c0.1,0,0.2,0,0.4,0.1c0.7,0.2,1,0.5,1,0.9c0,0.6-0.2,1-0.7,1.4
					c-0.5,0.4-1,0.6-1.5,0.6h-1.9c-0.6,0-1.2-0.2-1.6-0.6c-0.5-0.4-0.7-0.9-0.7-1.6v-3.2h-1.4v3c0,1,0.3,1.9,0.9,2.6
					c0.7,0.8,1.5,1.1,2.5,1.1h2.2c0.7,0,1.4-0.2,2-0.6c1-0.7,1.5-1.7,1.5-3.1C167.8,76.7,167.4,76.1,166.7,75.8z"/>
				<path d="M178.3,70.7l-1.1,1l0.9,1c-0.5-0.5-1.1-0.8-1.7-0.8c-0.7,0-1.3,0.2-1.7,0.7c-0.4,0.4-0.7,1-0.7,1.7c0,0.6,0.3,1.3,0.8,2
					h-3.6c-0.7,0-1.2-0.1-1.3-0.2c-0.2-0.2-0.3-0.6-0.3-1.2v-6.2h-1.4v6.8c0,0.7,0.2,1.2,0.5,1.5c0.5,0.4,1.2,0.7,2.3,0.7v0l0.2,0
					c0,0,0,0,0,0v0l3.2,0c0.8,0,1.5-0.2,2.1-0.5c1.2,0.7,2.2,1.1,3,1.1c0.6,0,1.2-0.3,1.7-0.8c0.5-0.5,0.7-1.1,0.7-1.7
					C181.9,74.7,180.7,73,178.3,70.7z M176.6,75.7c-0.8-0.3-1.2-0.8-1.2-1.4c0-0.3,0.1-0.5,0.2-0.7c0.2-0.2,0.4-0.3,0.6-0.3
					c0.3,0,0.6,0.1,0.9,0.3c0.2,0.2,0.4,0.5,0.4,0.8C177.5,75,177.2,75.4,176.6,75.7z M179.4,76.8c-0.4,0-0.9-0.2-1.4-0.5
					c0.6-0.3,0.9-0.9,0.9-1.8c0-0.6-0.1-1-0.4-1.4c1.3,1.3,1.9,2.2,1.9,2.8C180.3,76.5,180,76.8,179.4,76.8z"/>
				<path d="M192.2,79.6c-0.6,0-0.9,0.3-0.9,0.8c0,0.3,0.1,0.5,0.3,0.6c0.2,0.1,0.4,0.2,0.7,0.2c0.3,0,0.5-0.1,0.6-0.2
					c0.2-0.2,0.3-0.4,0.3-0.6C193.2,79.9,192.9,79.6,192.2,79.6z"/>
				<path d="M189.4,79.6c-0.6,0-0.9,0.3-0.9,0.8c0,0.3,0.1,0.5,0.3,0.6c0.2,0.1,0.4,0.2,0.7,0.2c0.3,0,0.5-0.1,0.6-0.2
					c0.2-0.2,0.3-0.4,0.3-0.6C190.4,79.9,190.1,79.6,189.4,79.6z"/>
				<path d="M192,75.1c0,0.4-0.1,0.7-0.2,0.9c-0.2,0.2-0.4,0.2-0.8,0.2h-2.1v0h-2.6c-0.7,0-1.2-0.1-1.3-0.2
					c-0.2-0.2-0.3-0.6-0.3-1.2v-6.2h-1.4v6.8c0,0.7,0.2,1.2,0.5,1.5c0.4,0.4,1.1,0.6,2.1,0.7v0h2.5h0.6h2.5c0.6,0,1.1-0.2,1.5-0.7
					c0.4-0.5,0.6-1,0.6-1.6v-2.2H192V75.1z"/>
				<path d="M197,71.9c-0.8,0-1.4,0.2-1.8,0.5c-0.6,0.5-0.9,1.3-0.9,2.6c0,1.1,0.4,1.9,1.1,2.3c0.5,0.3,1.4,0.5,2.6,0.5
					c0,0.7-0.3,1.2-0.7,1.6c-0.5,0.4-1,0.6-1.7,0.6h-1.8l0.2,1.4h1.9c1,0,1.8-0.3,2.5-1c0.7-0.7,1.1-1.5,1.1-2.5v-1.8
					c0-1.3-0.1-2.2-0.3-2.8C198.9,72.4,198.1,71.9,197,71.9z M198.1,76.3c-0.7,0-1.2,0-1.5-0.1c-0.5-0.2-0.7-0.6-0.7-1.2
					c0-0.5,0.1-0.9,0.2-1.1c0.2-0.3,0.5-0.5,0.9-0.5c0.8,0,1.1,0.5,1.1,1.4V76.3z"/>
				<path d="M204.7,77.8c0,0.7-0.3,1.2-0.9,1.6c-0.5,0.3-1.1,0.5-1.8,0.5h-1.6l0.2,1.5h1.9c1.1,0,1.9-0.4,2.6-1.2
					c0.7-0.8,1-1.7,1-2.7v-4.3h-1.5V77.8z"/>
				<path d="M214.1,73.8c0.3,0,0.5-0.1,0.7-0.3c0.2-0.2,0.3-0.4,0.3-0.7c0-0.6-0.3-0.9-1-0.9c-0.7,0-1.1,0.3-1.1,0.9
					C213,73.5,213.3,73.8,214.1,73.8z"/>
				<path d="M226.2,71.9c-1.7,0-2.5,1-2.6,3c0,0.7,0,1.1-0.1,1.1c-0.1,0.2-0.6,0.2-1.4,0.2v0h-1.5v0c-1,0-1.6-0.4-1.6-1v-2.1h-1.4
					v4.6c0,0.6-0.2,1.1-0.7,1.5c-0.4,0.4-1,0.6-1.6,0.6h-1.9c-0.6,0-1.2-0.2-1.6-0.6c-0.5-0.4-0.7-0.9-0.7-1.5v-3.2h-1.4v3
					c0,1,0.3,1.9,1,2.6c0.7,0.8,1.5,1.1,2.5,1.1h2.2c1.2,0,2.1-0.4,2.8-1.3c0.6-0.8,0.9-1.8,0.9-3c0.3,0.4,0.8,0.7,1.5,0.7v0h1.5
					c1.2,0,2-0.1,2.5-0.3c0.5,0.4,1,0.5,1.6,0.5c0.8,0,1.4-0.3,1.9-0.9c0.4-0.5,0.6-1.2,0.6-2c0-0.8-0.2-1.5-0.6-2.1
					C227.7,72.3,227.1,71.9,226.2,71.9z M226.2,76.5c-0.8,0-1.3-0.5-1.3-1.5c0-1.1,0.4-1.6,1.3-1.6c0.8,0,1.2,0.5,1.2,1.6
					C227.5,76,227,76.5,226.2,76.5z"/>
				<rect x="230.2" y="68.5" width="1.4" height="9.3"/>
				<path d="M239.8,73.8c0.3,0,0.5-0.1,0.7-0.3s0.3-0.4,0.3-0.7c0-0.6-0.4-0.9-1.1-0.9c-0.7,0-1,0.3-1,0.9
					C238.7,73.5,239.1,73.8,239.8,73.8z"/>
				<path d="M243.5,77.8c0,0.6-0.2,1.1-0.7,1.5c-0.4,0.4-1,0.6-1.6,0.6h-1.9c-0.6,0-1.2-0.2-1.6-0.6c-0.5-0.4-0.7-0.9-0.7-1.5v-3.2
					h-1.4v3c0,1,0.3,1.9,1,2.6c0.7,0.8,1.5,1.1,2.5,1.1h2.2c1.1,0,2-0.4,2.7-1.1c0.6-0.7,1-1.6,1-2.8v-4.3h-1.4V77.8z"/>
				<path d="M253.8,79.5c-0.7,0-1,0.3-1,0.9c0,0.7,0.4,1,1.1,1c0.3,0,0.5-0.1,0.7-0.3c0.2-0.2,0.3-0.4,0.3-0.7
					C254.9,79.8,254.5,79.5,253.8,79.5z"/>
				<path d="M256.6,73.2h-1.5c0,0.2,0,0.5,0,0.9c0,0.4,0,0.7,0,0.9c0,0.8-0.2,1.2-0.5,1.3c-0.1,0-0.6,0.1-1.4,0.1h-3.7
					c-0.7,0-1.2-0.1-1.3-0.2c-0.2-0.2-0.3-0.6-0.3-1.2v-6.2h-1.4v6.8c0,0.7,0.2,1.2,0.5,1.5c0.4,0.4,1.1,0.6,2.1,0.7v0h3h1.2h1.2
					c0.6,0,1.1-0.2,1.5-0.7c0.4-0.5,0.6-1,0.6-1.6V73.2z"/>
				<path d="M260.8,70.3c0.3,0,0.5-0.1,0.7-0.3c0.2-0.2,0.3-0.4,0.3-0.7c0-0.6-0.4-0.9-1.1-0.9c-0.7,0-1.1,0.3-1.1,0.9
					C259.7,70,260,70.3,260.8,70.3z"/>
				<path d="M269.6,79.7c-0.6,0-0.9,0.3-0.9,0.8c0,0.3,0.1,0.5,0.3,0.6c0.2,0.2,0.4,0.2,0.7,0.2c0.2,0,0.5-0.1,0.6-0.2
					c0.2-0.2,0.3-0.4,0.3-0.6C270.6,79.9,270.2,79.7,269.6,79.7z"/>
				<path d="M266.8,79.7c-0.6,0-0.9,0.3-0.9,0.8c0,0.3,0.1,0.5,0.3,0.6c0.2,0.2,0.4,0.2,0.7,0.2c0.2,0,0.5-0.1,0.6-0.2
					c0.2-0.2,0.3-0.4,0.3-0.6C267.8,79.9,267.4,79.7,266.8,79.7z"/>
				<path d="M277.2,72.9c-0.5-0.6-1.1-1-1.9-1c-1.7,0-2.5,1-2.6,3c0,0.7,0,1.1-0.1,1.1c-0.1,0.1-0.5,0.2-1.1,0.2
					c-0.4,0-0.6-0.1-0.7-0.2c-0.2-0.2-0.3-0.5-0.3-0.9v-2H269v2c0,0.4-0.1,0.7-0.2,0.9c-0.2,0.2-0.4,0.2-0.8,0.2h-1.7v0h-3
					c-1,0-1.5-0.4-1.5-1v-2.1h-1.4v4.6c0,0.6-0.2,1.1-0.7,1.5c-0.5,0.4-1,0.6-1.6,0.6h-2l0.2,1.4h1.9c1.2,0,2.1-0.4,2.8-1.3
					c0.6-0.8,0.9-1.8,0.9-3c0.2,0.4,0.6,0.6,1.1,0.6v0h2.3h1h2.1c0.5,0,0.9-0.2,1.4-0.6c0.3,0.2,0.5,0.4,0.7,0.5
					c0.2,0,0.4,0.1,0.7,0.1v0c0.1,0,0.1,0,0.2,0c0.1,0,0.3,0,0.4,0v0c0.8,0,1.5-0.2,1.8-0.3c0.5,0.4,1,0.5,1.6,0.5
					c0.8,0,1.4-0.3,1.9-0.9c0.4-0.5,0.6-1.2,0.6-2C277.8,74.2,277.6,73.5,277.2,72.9z M275.3,76.5c-0.8,0-1.3-0.5-1.3-1.5
					c0-1.1,0.4-1.6,1.3-1.6c0.8,0,1.2,0.5,1.2,1.6C276.6,76,276.2,76.5,275.3,76.5z"/>
			</g>
		</g>
	</g>
</mask>
<g class="st1">
	<polygon class="st2" points="69.4,28.4 120.9,111.1 138.4,111.1 69.4,0.3 0.5,111.1 18,111.1 	"/>
	<polygon class="st3" points="82.7,80.1 69.4,58.8 56.1,80.1 	"/>
	<path class="st3" d="M83.9,82.1h-29l-5,8h39L83.9,82.1z M67.1,88.1h-8.9v-2.9h8.9V88.1z M69.3,85.2h0.9v0.9h-0.9V85.2z M71.1,88.1
		h-0.9v-0.9h0.9V88.1z M72.2,86.1h-0.9v-0.9h0.9V86.1z M73.1,88.1h-0.9v-0.9h0.9V88.1z M74.2,86.1h-0.9v-0.9h0.9V86.1z M75.1,88.1
		h-0.9v-0.9h0.9V88.1z M76.2,86.1h-0.9v-0.9h0.9V86.1z M77.1,88.1h-0.9v-0.9h0.9V88.1z M78.2,86.1h-0.9v-0.9h0.9V86.1z M79.1,88.1
		h-0.9v-0.9h0.9V88.1z M80.2,86.1h-0.9v-0.9h0.9V86.1z M81.1,88.1h-0.9v-0.9h0.9V88.1z"/>
	<path class="st3" d="M90.2,92.1H48.7l-5,8h51.4L90.2,92.1z M67.1,97.9h-8.9V95h8.9V97.9z M70.2,95.9h-0.9V95h0.9V95.9z M71.1,97.9
		h-0.9V97h0.9V97.9z M72.2,95.9h-0.9V95h0.9V95.9z M73.1,97.9h-0.9V97h0.9V97.9z M74.2,95.9h-0.9V95h0.9V95.9z M75.1,97.9h-0.9V97
		h0.9V97.9z M76.2,95.9h-0.9V95h0.9V95.9z M77.1,97.9h-0.9V97h0.9V97.9z M78.2,95.9h-0.9V95h0.9V95.9z M79.1,97.9h-0.9V97h0.9V97.9z
		 M80.2,95.9h-0.9V95h0.9V95.9z M81.1,97.9h-0.9V97h0.9V97.9z"/>
	<path class="st3" d="M96.4,102.1H42.5l-5.6,9H102L96.4,102.1z M67.1,107.7h-8.9v-2.9h8.9V107.7z M70.2,105.7h-0.9v-0.9h0.9V105.7z
		 M71.1,107.7h-0.9v-0.9h0.9V107.7z M72.2,105.7h-0.9v-0.9h0.9V105.7z M73.1,107.7h-0.9v-0.9h0.9V107.7z M74.2,105.7h-0.9v-0.9h0.9
		V105.7z M75.1,107.7h-0.9v-0.9h0.9V107.7z M76.2,105.7h-0.9v-0.9h0.9V105.7z M77.1,107.7h-0.9v-0.9h0.9V107.7z M78.2,105.7h-0.9
		v-0.9h0.9V105.7z M79.1,107.7h-0.9v-0.9h0.9V107.7z M80.2,105.7h-0.9v-0.9h0.9V105.7z M81.1,107.7h-0.9v-0.9h0.9V107.7z"/>
	
	<g>
		<g>
			<path class="st3" d="M132.6,43.2l-8.3,19.6h5l1.7-4.5h7.7l1.7,4.5h5.2l-8.4-19.6H132.6z M132.5,54.2l2.2-5.9l2.3,5.9H132.5z"/>
			<path class="st3" d="M154.4,48.2l-2.8,0c-1.1,0-2.1,0.1-3.1,0.4c-1,0.3-1.9,0.9-2.7,1.9c-0.6,0.8-1,1.6-1.3,2.6
				c-0.2,0.9-0.3,1.9-0.3,2.8c0.1,2.1,0.8,3.8,2,5c1.2,1.2,2.9,1.9,5.1,1.9h7.4V43.2h-4.4V48.2z M154.4,59.1h-0.2
				c-0.2,0-0.4,0-0.5,0l-0.3,0c-1.3,0-2.4-0.1-3.3-0.4c-0.8-0.2-1.3-1.2-1.3-2.9l0-0.7c0-0.5,0.1-0.9,0.3-1.4
				c0.1-0.4,0.4-0.8,0.7-1.1c0.2-0.2,0.4-0.3,0.6-0.4c0.2-0.1,0.4-0.2,0.7-0.2c0.3,0,0.6-0.1,0.9-0.1c0.3,0,0.6,0,0.9,0
				c0,0,1.5,0,1.5,0V59.1z"/>
			<path class="st3" d="M173.6,49.7c-0.6-0.6-1.4-1.1-2.2-1.2c-0.8-0.2-1.6-0.3-2.4-0.3h-7.9v3.6l6.5,0c0.9,0,1.7,0.1,2.3,0.4
				c0.2,0.1,0.6,0.3,0.7,1.4l-4.5,0c-1.5,0-2.8,0.3-3.9,0.8c-1.2,0.5-1.8,1.7-2,3.5c-0.1,1.5,0.3,2.7,1.1,3.5c0.8,0.9,2,1.3,3.5,1.3
				H175v-9c0-0.7-0.1-1.5-0.3-2.2C174.5,50.9,174.1,50.3,173.6,49.7z M170.6,59.3h-4.2l-0.2,0c-0.4,0-0.8-0.1-1.1-0.2
				c-0.1,0-0.3-0.1-0.3-0.9c0-0.6,0.3-0.8,0.4-0.8c0.4-0.2,0.8-0.2,1.2-0.3l0-0.4l0.1,0.4l0.2,0h3.9V59.3z"/>
			<polygon class="st3" points="186.6,48.2 181.3,54.3 181.3,43.2 176.9,43.2 176.9,62.8 181.3,62.8 181.3,56.7 186.3,62.8 
				192.2,62.8 185.5,55.4 192.3,48.2 			"/>
			<path class="st3" d="M216.9,55.7c-0.1-0.6-0.2-1.2-0.4-1.8c-0.2-0.6-0.6-1.1-1-1.5c-0.5-0.5-1.1-0.8-1.7-1
				c-0.6-0.2-1.3-0.3-1.9-0.3c-0.2,0-0.4,0-0.7,0c-0.2,0-0.4,0-0.6,0l-5.3,0c-0.6,0-1.1-0.1-1.6-0.4c-0.4-0.2-0.6-0.7-0.6-1.3
				c0-0.8,0.2-1.4,0.7-1.7c0.5-0.3,1.2-0.5,2-0.5h10.2v-4.1l-10.8,0c-2.1,0-3.8,0.4-5,1.3c-1.3,0.9-1.9,2.5-2,4.8
				c0,2.2,0.6,3.8,1.8,4.6c1.2,0.8,2.7,1.2,4.7,1.2l4.8,0c0.7,0,1.3,0.1,1.8,0.3c0.1,0.1,0.6,0.2,0.7,1.2c0.2,1.3-0.4,1.6-0.6,1.7
				c-0.6,0.3-1.2,0.4-2,0.4l-10.5,0v4.1H210c2.1,0,3.8-0.4,5-1.2c1.3-0.8,1.9-2.4,2-4.8c0-0.2,0-0.4,0-0.5
				C217,56.1,216.9,55.9,216.9,55.7z"/>
			<path class="st3" d="M222.5,48.6c-1,0.3-1.9,0.8-2.6,1.6c-0.6,0.6-1,1.4-1.3,2.2c-0.3,0.8-0.4,1.6-0.5,2.4c0,0.1,0,0.3,0,0.4
				l0,0.9c0.1,0.9,0.2,1.7,0.5,2.5c0.3,0.8,0.7,1.6,1.3,2.2c0.7,0.8,1.6,1.3,2.6,1.6c0.9,0.2,1.9,0.4,2.9,0.4h5.7v-3.6l-5.2,0
				c-1,0-1.8-0.1-2.3-0.4c-0.5-0.2-0.6-0.9-0.7-1.5h8.2v-3.6l-8.2,0c0.1-0.8,0.3-1.3,0.7-1.5c0.6-0.3,1.3-0.4,2.3-0.4h5.2v-3.6
				l-5.7,0C224.4,48.2,223.4,48.4,222.5,48.6z"/>
			<path class="st3" d="M238.8,48.2h-6.5v14.6h4.4V51.6h0c1.6,0,1.9,0.2,1.9,0.2c0,0,0.2,0.3,0.2,2v0.9l4.2,0v-1.2
				c0-1.5-0.1-2.8-0.5-3.7C242.2,48.8,240.9,48.3,238.8,48.2z"/>
			<polygon class="st3" points="255,48.2 251.2,57.4 247.6,48.2 242.7,48.2 248.9,62.8 253.3,62.8 259.8,48.2 			"/>
			<path class="st3" d="M263.2,48.6c-1,0.3-1.9,0.8-2.6,1.6c-0.6,0.6-1,1.4-1.3,2.2c-0.3,0.8-0.4,1.6-0.5,2.4c0,0.1,0,0.3,0,0.4
				l0,0.9c0.1,0.9,0.2,1.7,0.5,2.5c0.3,0.8,0.7,1.6,1.3,2.2c0.7,0.8,1.6,1.3,2.6,1.6c0.9,0.2,1.9,0.4,2.9,0.4h5.7v-3.6l-5.2,0
				c-1,0-1.8-0.1-2.3-0.4c-0.5-0.2-0.6-0.9-0.7-1.5h8.2v-3.6l-8.2,0c0.1-0.8,0.3-1.3,0.7-1.5c0.6-0.3,1.3-0.4,2.3-0.4h5.2v-3.6
				l-5.7,0C265.2,48.3,264.2,48.4,263.2,48.6z"/>
			<path class="st3" d="M283,49.9c-0.4-1.1-1.6-1.6-3.8-1.6h-6.5v14.6h4.4V51.6h0c1.6,0,1.9,0.2,1.9,0.2c0,0,0.2,0.3,0.2,2v0.9
				l4.2,0v-1.2C283.4,52,283.3,50.8,283,49.9z"/>
		</g>
	</g>
	<g>
		<path class="st2" d="M135.3,77.7c-1.2,0-2.1-0.2-2.6-0.7c-0.3-0.3-0.5-0.8-0.5-1.5v-6.8h1.4v6.2c0,0.7,0.1,1.1,0.3,1.2
			c0.1,0.1,0.6,0.1,1.3,0.2V77.7z"/>
		<path class="st2" d="M142.8,77.7c-0.5,0-0.8,0-1-0.1c-0.3-0.1-0.5-0.4-0.7-0.7c-0.4,0.7-1.1,1-2,1c-0.3,0-0.7-0.1-1.1-0.3
			c-0.4-0.2-0.6-0.4-0.8-0.7c-0.1,0.5-0.8,0.8-2.2,0.8v-1.4c0.8,0,1.3-0.1,1.4-0.2c0.1-0.1,0.1-0.5,0.1-1.1c0-0.9,0.2-1.6,0.6-2.1
			c0.5-0.6,1.1-0.9,2-0.9c0.8,0,1.4,0.3,1.8,0.9c0.4,0.6,0.6,1.2,0.6,2.1c0,0.3,0,0.5,0,0.6c0,0.3,0.2,0.6,0.4,0.7
			c0.1,0,0.4,0.1,0.9,0.1V77.7z M140.2,74.9c0-1-0.4-1.5-1.2-1.5c-0.8,0-1.3,0.5-1.3,1.6c0,1,0.4,1.5,1.3,1.5
			C139.8,76.5,140.2,75.9,140.2,74.9z"/>
		<path class="st2" d="M155.4,75.4c0,0.7-0.2,1.3-0.5,1.7c-0.4,0.5-0.9,0.8-1.5,0.8c-0.8,0-1.4-0.3-2-1c-0.6,0.7-1.1,1-1.8,1
			c-0.7,0-1.4-0.4-2-1.2c-0.6,0.7-1.3,1-1.9,1h-3v-1.4h2.9c0.7,0,1-0.4,1-1.1v-2h1.4v2.1c0,0.3,0.1,0.6,0.4,0.8
			c0.2,0.2,0.5,0.3,0.9,0.3c0.7,0,1-0.3,1-0.9v-2.4h1.4v2.1c0,0.3,0.1,0.6,0.4,0.8s0.5,0.3,0.9,0.3c0.7,0,1-0.3,1-0.9v-2.4h1.4V75.4
			z M150.4,71.3c0,0.2-0.1,0.5-0.3,0.6c-0.2,0.2-0.4,0.3-0.6,0.3c-0.3,0-0.5-0.1-0.7-0.2c-0.2-0.2-0.3-0.4-0.3-0.6
			c0-0.5,0.3-0.8,0.9-0.8C150,70.5,150.4,70.8,150.4,71.3z M151.8,69.2c0,0.3-0.1,0.5-0.3,0.6c-0.2,0.2-0.4,0.2-0.7,0.2
			c-0.3,0-0.5-0.1-0.7-0.2c-0.2-0.2-0.3-0.4-0.3-0.6c0-0.5,0.3-0.8,0.9-0.8C151.4,68.5,151.8,68.7,151.8,69.2z M153.2,71.3
			c0,0.3-0.1,0.5-0.3,0.6c-0.2,0.2-0.4,0.3-0.7,0.3c-0.3,0-0.5-0.1-0.7-0.2s-0.3-0.4-0.3-0.6c0-0.5,0.3-0.8,0.9-0.8
			C152.8,70.5,153.2,70.8,153.2,71.3z"/>
		<path class="st2" d="M167.8,77.6c0,1.4-0.5,2.5-1.5,3.1c-0.6,0.4-1.3,0.6-2,0.6H162c-1,0-1.8-0.4-2.5-1.1
			c-0.6-0.7-0.9-1.6-0.9-2.6v-3h1.4v3.2c0,0.6,0.2,1.2,0.7,1.6c0.5,0.4,1,0.6,1.6,0.6h1.9c0.6,0,1.1-0.2,1.5-0.6
			c0.5-0.4,0.7-0.9,0.7-1.4c0-0.5-0.3-0.8-1-0.9c-0.2,0-0.3-0.1-0.4-0.1h-2v-2.5c0-0.7,0.2-1.4,0.7-1.8c0.5-0.5,1.1-0.7,1.8-0.7h1.7
			l0.1,1.4h-1.7c-0.5,0-0.9,0.2-1.1,0.7c-0.1,0.2-0.1,0.8-0.2,1.6c1.1,0,1.9,0.1,2.3,0.2C167.4,76.1,167.8,76.7,167.8,77.6z"/>
		<path class="st2" d="M171.3,77.7c-1.2,0-2.1-0.2-2.6-0.7c-0.3-0.3-0.5-0.8-0.5-1.5v-6.8h1.4v6.2c0,0.7,0.1,1.1,0.3,1.2
			c0.1,0.1,0.6,0.1,1.3,0.2V77.7z"/>
		<path class="st2" d="M181.9,75.8c0,0.6-0.2,1.2-0.7,1.7c-0.5,0.5-1,0.8-1.7,0.8c-0.8,0-1.8-0.4-3-1.1c-0.6,0.3-1.3,0.5-2.1,0.5
			l-3.5,0v-1.4h3.9c-0.5-0.7-0.8-1.4-0.8-2c0-0.7,0.2-1.2,0.7-1.7c0.4-0.4,1-0.7,1.7-0.7c0.6,0,1.2,0.3,1.7,0.8l-0.9-1l1.1-1
			C180.7,73,181.9,74.7,181.9,75.8z M177.5,74.4c0-0.3-0.1-0.6-0.4-0.8c-0.2-0.2-0.5-0.3-0.9-0.3c-0.3,0-0.5,0.1-0.6,0.3
			c-0.1,0.2-0.2,0.4-0.2,0.7c0,0.6,0.4,1.1,1.2,1.4C177.2,75.4,177.5,75,177.5,74.4z M180.3,75.9c0-0.6-0.6-1.5-1.9-2.8
			c0.3,0.3,0.4,0.8,0.4,1.4c0,0.9-0.3,1.5-0.9,1.8c0.5,0.3,1,0.5,1.4,0.5C180,76.8,180.3,76.5,180.3,75.9z"/>
		<path class="st2" d="M186.3,77.6c-1.2,0-2.1-0.2-2.6-0.7c-0.3-0.3-0.5-0.8-0.5-1.5v-6.8h1.4v6.2c0,0.7,0.1,1.1,0.3,1.2
			c0.1,0.1,0.6,0.1,1.3,0.2V77.6z"/>
		<path class="st2" d="M188.8,77.6h-3v-1.4h3V77.6z"/>
		<path class="st2" d="M193.4,75.3c0,0.6-0.2,1.2-0.6,1.6c-0.4,0.5-0.9,0.7-1.5,0.7h-3.1v-1.4h2.6c0.4,0,0.7-0.1,0.8-0.2
			c0.2-0.2,0.2-0.5,0.2-0.9v-2h1.4V75.3z M190.4,80.4c0,0.2-0.1,0.5-0.3,0.6c-0.2,0.2-0.4,0.2-0.6,0.2c-0.3,0-0.5-0.1-0.7-0.2
			c-0.2-0.2-0.3-0.4-0.3-0.6c0-0.5,0.3-0.8,0.9-0.8C190.1,79.6,190.4,79.9,190.4,80.4z M193.2,80.4c0,0.2-0.1,0.5-0.3,0.6
			c-0.2,0.2-0.4,0.2-0.6,0.2c-0.3,0-0.5-0.1-0.7-0.2c-0.2-0.2-0.3-0.4-0.3-0.6c0-0.5,0.3-0.8,0.9-0.8
			C192.9,79.6,193.2,79.9,193.2,80.4z"/>
		<path class="st2" d="M199.6,77.9c0,1-0.4,1.8-1.1,2.5s-1.6,1-2.5,1h-1.9l-0.2-1.4h1.8c0.7,0,1.3-0.2,1.7-0.6
			c0.5-0.4,0.7-0.9,0.7-1.6c-1.2,0-2.1-0.2-2.6-0.5c-0.7-0.4-1.1-1.2-1.1-2.3c0-1.2,0.3-2.1,0.9-2.6c0.4-0.3,0.9-0.5,1.8-0.5
			c1.1,0,1.8,0.5,2.2,1.4c0.2,0.6,0.3,1.5,0.3,2.8V77.9z M198.1,76.3v-1.5c0-0.9-0.4-1.4-1.1-1.4c-0.5,0-0.8,0.2-0.9,0.5
			c-0.1,0.2-0.2,0.6-0.2,1.1c0,0.6,0.2,1,0.7,1.2C196.9,76.2,197.4,76.3,198.1,76.3z"/>
		<path class="st2" d="M206.1,77.5c0,1.1-0.3,2-1,2.7c-0.7,0.8-1.6,1.2-2.6,1.2h-1.9l-0.2-1.5h1.6c0.7,0,1.3-0.2,1.8-0.5
			c0.6-0.4,0.9-0.9,0.9-1.6v-4.6h1.5V77.5z"/>
		<path class="st2" d="M220.7,77.7c-0.8,0-1.3-0.2-1.6-0.7c0,1.2-0.3,2.2-0.9,3c-0.7,0.9-1.6,1.3-2.8,1.3h-2.2c-1,0-1.8-0.4-2.5-1.1
			c-0.7-0.7-1-1.6-1-2.6v-3h1.4v3.2c0,0.6,0.2,1.1,0.7,1.5c0.5,0.4,1,0.6,1.6,0.6h1.9c0.6,0,1.2-0.2,1.6-0.6
			c0.4-0.4,0.7-0.9,0.7-1.5v-4.6h1.4v2.1c0,0.7,0.5,1,1.6,1V77.7z M215.1,72.8c0,0.3-0.1,0.5-0.3,0.7c-0.2,0.2-0.4,0.3-0.7,0.3
			c-0.7,0-1.1-0.3-1.1-1c0-0.6,0.4-0.9,1.1-0.9C214.7,72,215.1,72.3,215.1,72.8z"/>
		<path class="st2" d="M222.1,77.7h-1.5v-1.4h1.5V77.7z"/>
		<path class="st2" d="M228.7,75c0,0.8-0.2,1.5-0.6,2c-0.5,0.6-1.1,0.9-1.9,0.9c-0.6,0-1.2-0.2-1.6-0.5c-0.5,0.2-1.3,0.3-2.5,0.3
			v-1.4c0.8,0,1.3-0.1,1.4-0.2c0-0.1,0.1-0.4,0.1-1.1c0-2,0.9-3,2.6-3c0.8,0,1.4,0.3,1.9,1C228.5,73.5,228.7,74.2,228.7,75z
			 M227.5,74.9c0-1-0.4-1.6-1.2-1.6c-0.8,0-1.3,0.5-1.3,1.6c0,1,0.4,1.5,1.3,1.5C227,76.5,227.5,76,227.5,74.9z"/>
		<path class="st2" d="M231.6,77.8h-1.4v-9.3h1.4V77.8z"/>
		<path class="st2" d="M244.9,77.5c0,1.1-0.3,2.1-1,2.8c-0.7,0.7-1.6,1.1-2.7,1.1h-2.2c-1,0-1.8-0.4-2.5-1.1c-0.7-0.7-1-1.6-1-2.6
			v-3h1.4v3.2c0,0.6,0.2,1.1,0.7,1.5c0.5,0.4,1,0.6,1.6,0.6h1.9c0.6,0,1.2-0.2,1.6-0.6c0.4-0.4,0.7-0.9,0.7-1.5v-4.6h1.4V77.5z
			 M240.8,72.8c0,0.3-0.1,0.5-0.3,0.7c-0.2,0.2-0.4,0.3-0.7,0.3c-0.7,0-1.1-0.3-1.1-1c0-0.6,0.3-0.9,1-0.9
			C240.5,72,240.8,72.3,240.8,72.8z"/>
		<path class="st2" d="M249.6,77.7c-1.2,0-2.1-0.2-2.6-0.7c-0.3-0.3-0.5-0.8-0.5-1.5v-6.8h1.4v6.2c0,0.7,0.1,1.1,0.3,1.2
			c0.1,0.1,0.6,0.1,1.3,0.2V77.7z"/>
		<path class="st2" d="M253.3,77.7h-4.2v-1.4h4.2V77.7z"/>
		<path class="st2" d="M256.6,75.4c0,0.6-0.2,1.2-0.6,1.6c-0.4,0.5-0.9,0.7-1.5,0.7h-2.4v-1.4c1.5,0,2.4,0,2.5-0.1
			c0.3-0.1,0.5-0.6,0.5-1.3c0-0.2,0-0.5,0-0.9c0-0.4,0-0.7,0-0.9h1.5V75.4z M254.9,80.4c0,0.3-0.1,0.5-0.3,0.7
			c-0.2,0.2-0.4,0.3-0.7,0.3c-0.7,0-1.1-0.3-1.1-1c0-0.6,0.3-0.9,1-0.9C254.5,79.5,254.9,79.8,254.9,80.4z"/>
		<path class="st2" d="M263.4,77.7c-0.8,0-1.3-0.2-1.6-0.7c0,1.2-0.3,2.2-0.9,3c-0.7,0.9-1.6,1.3-2.8,1.3h-1.9l-0.2-1.4h2
			c0.6,0,1.1-0.2,1.6-0.6c0.5-0.4,0.7-0.9,0.7-1.5v-4.6h1.4v2.1c0,0.7,0.5,1,1.6,1V77.7z M261.8,69.3c0,0.3-0.1,0.5-0.3,0.7
			c-0.2,0.2-0.4,0.3-0.7,0.3c-0.7,0-1.1-0.3-1.1-1c0-0.6,0.4-0.9,1.1-0.9C261.4,68.5,261.8,68.7,261.8,69.3z"/>
		<path class="st2" d="M266.3,77.7H263v-1.4h3.3V77.7z"/>
		<path class="st2" d="M271.8,77.7c-0.6,0-1,0-1.3-0.1c-0.2-0.1-0.5-0.3-0.7-0.5c-0.5,0.4-0.9,0.6-1.4,0.6h-3.1v-1.4h2.7
			c0.4,0,0.7-0.1,0.8-0.2c0.2-0.2,0.2-0.5,0.2-0.9v-2h1.4v2c0,0.5,0.1,0.8,0.3,0.9c0.2,0.1,0.5,0.2,1,0.2V77.7z M267.8,80.5
			c0,0.2-0.1,0.5-0.3,0.6s-0.4,0.2-0.6,0.2c-0.3,0-0.5-0.1-0.7-0.2c-0.2-0.2-0.3-0.4-0.3-0.6c0-0.5,0.3-0.8,0.9-0.8
			C267.4,79.7,267.8,79.9,267.8,80.5z M270.6,80.5c0,0.2-0.1,0.5-0.3,0.6s-0.4,0.2-0.6,0.2c-0.3,0-0.5-0.1-0.7-0.2
			c-0.2-0.2-0.3-0.4-0.3-0.6c0-0.5,0.3-0.8,0.9-0.8C270.2,79.7,270.6,79.9,270.6,80.5z"/>
		<path class="st2" d="M277.8,75c0,0.8-0.2,1.5-0.6,2c-0.5,0.6-1.1,0.9-1.9,0.9c-0.6,0-1.2-0.2-1.6-0.5c-0.5,0.2-1.3,0.3-2.5,0.3
			v-1.4c0.8,0,1.3-0.1,1.4-0.2c0-0.1,0.1-0.4,0.1-1.1c0-2,0.9-3,2.6-3c0.8,0,1.4,0.3,1.9,1C277.6,73.5,277.8,74.2,277.8,75z
			 M276.6,74.9c0-1-0.4-1.6-1.2-1.6c-0.8,0-1.3,0.5-1.3,1.6c0,1,0.4,1.5,1.3,1.5C276.2,76.5,276.6,76,276.6,74.9z"/>
	</g>


	<line id="highlight" class="st4" x1="-17.1" y1="-67.5" x2="338.9" y2="40.6"/>
	
		<animateTransform  
				        xlink:href="#highlight" accumulate="none"
                additive="replace" attributeName="transform"
                attributeType="XML" begin="0s" calcMode="linear"
                dur="5s" fill="freeze"
                values="0 -50;0 400;0 400"
                keyTimes="0; 0.10;1"
                repeatCount="indefinite"
                restart="always" type="translate" >
        </animateTransform>

	
</g>
</svg>
