<svg xmlns="http://www.w3.org/2000/svg" xmlns:xlink="http://www.w3.org/1999/xlink" viewBox="0 0 284.149 111.111">
  <defs>
    <style>
      .a {
        fill: #fff;
      }

      .b {
        mask: url(#a);
      }

      .c {
        fill: #004a80;
      }

      .d, .e {
        fill: #f7931e;
      }

      .e {
        font-size: 38px;
        font-family: HandelGothic, Handel Gothic;
      }

      .f {
        fill: none;
        stroke: #fff;
        stroke-miterlimit: 10;
        stroke-width: 31.41px;
        opacity: 0.7;
      }
    </style>
    <mask id="a" x="-21.642" y="-82.499" width="365.125" height="193.61" maskUnits="userSpaceOnUse">
      <g>
        <polygon class="a" points="69.426 28.399 120.888 111.111 138.362 111.111 69.426 0.314 0.489 111.111 17.963 111.111 69.426 28.399"/>
        <polygon class="a" points="82.709 80.132 69.426 58.782 56.142 80.132 82.709 80.132"/>
        <g>
          <path class="a" d="M127.833,21.834,139.156,48.4H132.94L130.5,42.073H118.954L116.585,48.4H110.7l11.21-26.566Zm-7.067,15.5h7.918l-4.032-10.212Z"/>
          <path class="a" d="M153.881,21.834q6.067.038,9.065,3t3.4,9.25q.036.555.056,1.11c.011.37.006.753-.019,1.147a18.035,18.035,0,0,1-.962,5.347,9.64,9.64,0,0,1-3.108,4.421,8.773,8.773,0,0,1-3.9,1.887,22.845,22.845,0,0,1-4.384.407H141.707V21.834Zm-.111,4.625h-6.475V43.775h6.475a.359.359,0,0,0,.166.037h.167a11.751,11.751,0,0,0,2.387-.241,3.723,3.723,0,0,0,2.053-1.239A5.942,5.942,0,0,0,159.783,40a14.677,14.677,0,0,0,.462-2.627c.024-.37.037-.74.037-1.11V33.988a9.566,9.566,0,0,0-.075-1.2,11.947,11.947,0,0,0-.424-2.553,5.38,5.38,0,0,0-1.24-2.22,3.835,3.835,0,0,0-2.053-1.258A11.027,11.027,0,0,0,154.1,26.5h-.333Z"/>
          <path class="a" d="M184.48,21.834,195.8,48.4h-6.216l-2.442-6.327H175.6L173.232,48.4h-5.883L178.56,21.834Zm-7.067,15.5h7.917L181.3,27.125Z"/>
          <path class="a" d="M203.941,21.834V34.6l10.471-12.765h6.7L210.453,34.821,221.22,48.4h-7.141L203.941,35.191V48.4h-5.587V21.834Z"/>
        </g>
        <g>
          <path class="a" d="M169.588,68.1a6.244,6.244,0,0,0-3.053.758,2.913,2.913,0,0,0-1.239,2.757,2.421,2.421,0,0,0,1.054,2.22,4.509,4.509,0,0,0,2.461.666l7.4-.037q.406.038.851.037t.888.037a12.012,12.012,0,0,1,2.553.425,5.5,5.5,0,0,1,3.552,3.238,8.708,8.708,0,0,1,.555,2.368c.024.246.043.487.055.721s.019.476.019.722q-.075,4.624-2.553,6.271a12.035,12.035,0,0,1-6.734,1.647H160.523V85.2h13.986a7.158,7.158,0,0,0,3.2-.592q1.35-.628,1.092-2.849-.186-1.738-1.295-2.147a8.246,8.246,0,0,0-2.627-.443l-6.586-.037a10.91,10.91,0,0,1-6.494-1.647Q159.413,75.8,159.45,71.4q.074-4.624,2.571-6.309a11.926,11.926,0,0,1,6.753-1.683l14.615-.037V68.1Z"/>
          <path class="a" d="M193.545,89.432a7.009,7.009,0,0,1-3.423-2.09,7.944,7.944,0,0,1-1.72-2.96,13.991,13.991,0,0,1-.648-3.4v-1.24a3.635,3.635,0,0,1,.037-.5,13.089,13.089,0,0,1,.648-3.275,7.936,7.936,0,0,1,1.683-2.867,6.9,6.9,0,0,1,3.423-2.128,16.053,16.053,0,0,1,4.014-.5l7.511-.037V74.5h-6.807a8.49,8.49,0,0,0-3.442.647q-1.294.611-1.368,3.053l11.617-.037v4.07H193.453q.072,2.553,1.294,3.108a8.66,8.66,0,0,0,3.478.555l6.845-.037v4.07h-7.511A16.054,16.054,0,0,1,193.545,89.432Z"/>
          <path class="a" d="M217.539,70.433q4.18.037,4.847,1.924a15.139,15.139,0,0,1,.629,5.069v1.221l-4.921-.037V77.8q0-2.7-.426-3.144t-3.089-.444h-.555V89.932h-5.143v-19.5Z"/>
          <path class="a" d="M230.378,70.433l5.4,13.838,5.735-13.838h5.55l-8.658,19.5h-5.55l-8.251-19.5Z"/>
          <path class="a" d="M254.557,89.432a7.009,7.009,0,0,1-3.423-2.09,7.96,7.96,0,0,1-1.721-2.96,13.99,13.99,0,0,1-.647-3.4v-1.24a3.484,3.484,0,0,1,.037-.5,13.045,13.045,0,0,1,.648-3.275,7.936,7.936,0,0,1,1.683-2.867,6.9,6.9,0,0,1,3.423-2.128,16.042,16.042,0,0,1,4.014-.5l7.511-.037V74.5h-6.808a8.489,8.489,0,0,0-3.441.647q-1.294.611-1.369,3.053l11.618-.037v4.07H254.464q.074,2.553,1.295,3.108a8.657,8.657,0,0,0,3.478.555l6.845-.037v4.07h-7.511A16.042,16.042,0,0,1,254.557,89.432Z"/>
          <path class="a" d="M278.551,70.433q4.181.037,4.847,1.924a15.139,15.139,0,0,1,.629,5.069v1.221l-4.921-.037V77.8q0-2.7-.426-3.144t-3.089-.444h-.555V89.932h-5.143v-19.5Z"/>
        </g>
        <path class="a" d="M83.935,82.1H54.916l-4.987,8.015H88.922ZM67.128,88.079H58.192v-2.9h8.936Zm2.127-2.9h.936v.935h-.936Zm1.873,2.9h-.937v-.935h.937Zm1.063-1.969h-.936v-.935h.936Zm.941,1.969h-.938v-.935h.938Zm1.059-1.969h-.936v-.935h.936Zm.944,1.969H74.2v-.935h.937Zm1.056-1.969h-.936v-.935h.936Zm.948,1.969H76.2v-.935h.937Zm1.052-1.969h-.936v-.935h.936Zm.951,1.969h-.937v-.935h.937Zm1.049-1.969h-.936v-.935h.936Zm.955,1.969h-.937v-.935h.937Z"/>
        <path class="a" d="M90.153,92.1H48.7l-4.977,8H95.13ZM67.128,97.872H58.192v-2.9h8.936ZM70.19,95.9h-.935v-.935h.935Zm.938,1.969h-.937v-.936h.937ZM72.19,95.9h-.935v-.935h.935Zm.942,1.969h-.938v-.936h.938ZM74.19,95.9h-.935v-.935h.935Zm.945,1.969H74.2v-.936h.937ZM76.19,95.9h-.935v-.935h.935Zm.949,1.969H76.2v-.936h.937ZM78.19,95.9h-.935v-.935h.935Zm.952,1.969h-.937v-.936h.937ZM80.19,95.9h-.935v-.935h.935Zm.956,1.969h-.937v-.936h.937Z"/>
        <path class="a" d="M96.4,102.13H42.455l-5.588,8.981h65.117Zm-29.268,5.535H58.192v-2.9h8.936ZM70.19,105.7h-.935v-.935h.935Zm.938,1.969h-.937v-.936h.937ZM72.19,105.7h-.935v-.935h.935Zm.942,1.969h-.938v-.936h.938ZM74.19,105.7h-.935v-.935h.935Zm.945,1.969H74.2v-.936h.937ZM76.19,105.7h-.935v-.935h.935Zm.949,1.969H76.2v-.936h.937ZM78.19,105.7h-.935v-.935h.935Zm.952,1.969h-.937v-.936h.937ZM80.19,105.7h-.935v-.935h.935Zm.956,1.969h-.937v-.936h.937Z"/>
      </g>
    </mask>
  </defs>
  <g class="b">
    <g>
      <polygon class="c" points="69.426 28.399 120.888 111.111 138.362 111.111 69.426 0.314 0.489 111.111 17.963 111.111 69.426 28.399"/>
      <polygon class="d" points="82.709 80.132 69.426 58.782 56.142 80.132 82.709 80.132"/>
      <text class="e" transform="translate(111.553 48.4)">ADAK</text>
      <text class="e" transform="translate(158.192 89.932)">Server</text>
      <path class="d" d="M83.935,82.1H54.916l-4.987,8.015H88.922ZM67.128,88.079H58.192v-2.9h8.936Zm2.127-2.9h.936v.935h-.936Zm1.873,2.9h-.937v-.935h.937Zm1.063-1.969h-.936v-.935h.936Zm.941,1.969h-.938v-.935h.938Zm1.059-1.969h-.936v-.935h.936Zm.944,1.969H74.2v-.935h.937Zm1.056-1.969h-.936v-.935h.936Zm.948,1.969H76.2v-.935h.937Zm1.052-1.969h-.936v-.935h.936Zm.951,1.969h-.937v-.935h.937Zm1.049-1.969h-.936v-.935h.936Zm.955,1.969h-.937v-.935h.937Z"/>
      <path class="d" d="M90.153,92.1H48.7l-4.977,8H95.13ZM67.128,97.872H58.192v-2.9h8.936ZM70.19,95.9h-.935v-.935h.935Zm.938,1.969h-.937v-.936h.937ZM72.19,95.9h-.935v-.935h.935Zm.942,1.969h-.938v-.936h.938ZM74.19,95.9h-.935v-.935h.935Zm.945,1.969H74.2v-.936h.937ZM76.19,95.9h-.935v-.935h.935Zm.949,1.969H76.2v-.936h.937ZM78.19,95.9h-.935v-.935h.935Zm.952,1.969h-.937v-.936h.937ZM80.19,95.9h-.935v-.935h.935Zm.956,1.969h-.937v-.936h.937Z"/>
      <path class="d" d="M96.4,102.13H42.455l-5.588,8.981h65.117Zm-29.268,5.535H58.192v-2.9h8.936ZM70.19,105.7h-.935v-.935h.935Zm.938,1.969h-.937v-.936h.937ZM72.19,105.7h-.935v-.935h.935Zm.942,1.969h-.938v-.936h.938ZM74.19,105.7h-.935v-.935h.935Zm.945,1.969H74.2v-.936h.937ZM76.19,105.7h-.935v-.935h.935Zm.949,1.969H76.2v-.936h.937ZM78.19,105.7h-.935v-.935h.935Zm.952,1.969h-.937v-.936h.937ZM80.19,105.7h-.935v-.935h.935Zm.956,1.969h-.937v-.936h.937Z"/>
      <line class="f" id="highlight" x1="-17.079" y1="-67.471" x2="338.921" y2="40.619"/>

      
        <animateTransform  
				        xlink:href="#highlight" accumulate="none"
                additive="replace" attributeName="transform"
                attributeType="XML" begin="0s" calcMode="linear"
                dur="5s" fill="freeze"
                values="0 -50;0 400;0 400"
                keyTimes="0; 0.10;1"
                repeatCount="indefinite"
                restart="always" type="translate" >
        </animateTransform>
    </g>
  </g>
</svg>
