<?xml version="1.0" encoding="utf-8"?>
<!-- Generator: Adobe Illustrator 24.1.1, SVG Export Plug-In . SVG Version: 6.00 Build 0)  -->
<svg version="1.1" id="Layer_1" xmlns="http://www.w3.org/2000/svg" xmlns:xlink="http://www.w3.org/1999/xlink" x="0px" y="0px"
	 viewBox="0 0 174.7 172.5" style="enable-background:new 0 0 174.7 172.5;" xml:space="preserve">
<style type="text/css">
	.st0{clip-path:url(#SVGID_2_);}
	
		.st1{fill:none;stroke:#FBCC34;stroke-width:3;stroke-linecap:round;stroke-linejoin:round;stroke-dasharray:15.233,4.48,17.025,3.584,25.985,7.168;}
	.st2{fill:none;stroke:#FBCC34;stroke-width:3;stroke-linecap:round;stroke-linejoin:round;stroke-dasharray:13,17,55,5,25,7;}
	.st3 {
        fill:none;stroke:#ED1C24;
        stroke-width:1.877;
        stroke-linecap:round;
        stroke-linejoin:round;
        stroke-dasharray:12,15,51,4,23,6;
    }

    @keyframes ofst{
        0% {
            stroke-dashoffset: 110;
        }
        100% {
            stroke-dashoffset: 0;
        }
    }

	.st4{
		fill:none;
		stroke:#FFFFFF;
		stroke-width:30;
		stroke-linecap:round;
		stroke-linejoin:round;
		opacity: 0.7; 
	}
</style>
<g>
	<defs>
		<polygon id="SVGID_1_" points="75.9,15.2 60.4,4.3 54.2,22.3 36,16.7 35.7,35.7 16.7,36 22.3,54.2 4.3,60.4 15.2,75.9 0,87.3 
			15.2,98.8 4.3,114.3 22.3,120.5 16.7,138.7 35.7,139 36,158 54.2,152.4 60.4,170.4 75.9,159.5 87.3,174.7 98.8,159.5 114.3,170.4 
			120.5,152.4 138.7,158 139,139 158,138.7 152.4,120.5 170.4,114.3 159.5,98.8 174.7,87.3 159.5,75.9 170.4,60.4 152.4,54.2 
			158,36 139,35.7 138.7,16.7 120.5,22.3 114.3,4.3 98.8,15.2 87.3,0 		"/>
	</defs>
	<clipPath id="SVGID_2_">
		<use xlink:href="#SVGID_1_"  style="overflow:visible;"/>
	</clipPath>
	<g class="st0">
		<path class="st1" d="M76.4,18.3L61.5,7.8L55.6,25l-17.4-5.4l-0.3,18.2l-18.2,0.3L25,55.6L7.8,61.5l10.5,14.9L3.7,87.3l14.6,10.9
			L7.8,113.2l17.3,5.9l-5.4,17.4l18.2,0.3l0.3,18.2l17.4-5.4l5.9,17.3l14.9-10.5L87.3,171l10.9-14.6l14.9,10.5l5.9-17.3l17.4,5.4
			l0.3-18.2l18.2-0.3l-5.4-17.4l17.3-5.9l-10.5-14.9L171,87.3l-14.6-10.9l10.5-14.9l-17.3-5.9l5.4-17.4l-18.2-0.3l-0.3-18.2
			L119.1,25l-5.9-17.3L98.3,18.3L87.3,3.7L76.4,18.3z"/>
		<circle class="st1" cx="88.2" cy="87.3" r="63.3"/>
		<path class="st2" d="M31.4,87.3c0-31.3,25.4-56.7,56.7-56.7"/>
		<path class="st1" d="M130.8,125.3c-20.5,23.7-56.4,26.2-80,5.6"/>
		<path class="st3" d="M50.9,95.3c-0.2-0.1-0.4-0.3-0.5-0.5l-7.1-10.6v10.5c0,0.5-0.4,0.8-0.8,0.8h-4.1c-0.5,0-0.8-0.4-0.8-0.8v-20
			c0-0.5,0.4-0.8,0.8-0.8h3.2c0.3,0,0.6,0.1,0.8,0.2c0.2,0.1,0.4,0.3,0.5,0.5l7.1,10.6V74.7c0-0.5,0.4-0.8,0.8-0.8H55
			c0.5,0,0.8,0.4,0.8,0.8v20c0,0.5-0.4,0.8-0.8,0.8h-3.2C51.4,95.6,51.2,95.5,50.9,95.3z"/>
		<path class="st3" d="M65.9,90.6h9.8c0.5,0,0.8,0.4,0.8,0.8v3.3c0,0.5-0.4,0.8-0.8,0.8H61c-0.5,0-0.8-0.4-0.8-0.8v-20
			c0-0.5,0.4-0.8,0.8-0.8h14.4c0.5,0,0.8,0.4,0.8,0.8V78c0,0.5-0.4,0.8-0.8,0.8h-9.5v3.3h8.9c0.5,0,0.8,0.4,0.8,0.8v3.3
			c0,0.5-0.4,0.8-0.8,0.8h-8.9V90.6z"/>
		<path class="st3" d="M97.1,74.7c0-0.2,0.2-0.5,0.4-0.6c0.2-0.1,0.4-0.2,0.6-0.2h4.1c0.4,0,0.7,0.3,0.7,0.7l0,0.2l-4,19.6
			c-0.1,0.3-0.2,0.6-0.5,0.8c-0.3,0.2-0.7,0.4-1,0.4h-2.6c-0.4,0-0.7-0.1-1-0.4c-0.3-0.2-0.4-0.5-0.6-0.8l-2.3-7l-2.3,7
			c-0.1,0.3-0.3,0.6-0.6,0.8c-0.3,0.2-0.6,0.4-1,0.4h-2.6c-0.4,0-0.7-0.1-1-0.4c-0.3-0.2-0.4-0.5-0.5-0.8l-4-19.6l0-0.2
			c0-0.4,0.3-0.7,0.7-0.7h4.1c0.2,0,0.4,0.1,0.6,0.2c0.2,0.2,0.3,0.4,0.4,0.6l2,10.5l1.8-5.6c0.2-0.6,0.6-0.9,1.1-0.9h2.9
			c0.5,0,0.8,0.3,1.1,0.9l1.8,5.6L97.1,74.7z"/>
		<path class="st3" d="M106,95.3c-0.2-0.2-0.3-0.4-0.2-0.6v-20c0-0.5,0.4-0.8,0.8-0.8h10c1.5-0.1,3,0.3,4.3,0.9
			c1,0.5,1.8,1.4,2.4,2.4c0.5,1,0.7,2.1,0.7,3.1c0,0.9-0.1,1.7-0.5,2.5c-0.3,0.6-0.7,1-1.2,1.4c0.7,0.5,1.3,1.1,1.7,1.9
			c0.4,0.8,0.5,1.8,0.5,2.7c0.1,1.8-0.6,3.5-1.7,4.8c-1.2,1.3-3,1.9-5.4,1.9h-10.6C106.4,95.6,106.2,95.5,106,95.3z M111.5,78.7v3.5
			h4.8c0.5,0,1-0.1,1.4-0.5c0.6-0.7,0.6-1.9,0-2.6c-0.4-0.3-0.9-0.5-1.4-0.5L111.5,78.7z M116.6,90.8c0.5,0,1.1-0.2,1.5-0.5
			c0.7-0.8,0.7-2,0-2.7c-0.4-0.4-0.9-0.6-1.5-0.5h-5.1v3.8H116.6z"/>
		<path class="st3" d="M133.6,90.6h9.8c0.5,0,0.8,0.4,0.8,0.8v3.3c0,0.5-0.4,0.8-0.8,0.8h-14.7c-0.5,0-0.8-0.4-0.8-0.8v-20
			c0-0.5,0.4-0.8,0.8-0.8h14.4c0.5,0,0.8,0.4,0.8,0.8V78c0,0.5-0.4,0.8-0.8,0.8h-9.5v3.3h8.9c0.5,0,0.8,0.4,0.8,0.8v3.3
			c0,0.5-0.4,0.8-0.8,0.8h-8.9V90.6z"/>
		<line class="st1" x1="49.1" y1="106" x2="130.8" y2="106"/>
		<line class="st1" x1="68.3" y1="113.7" x2="139.1" y2="113.7"/>
		<line class="st1" x1="56.7" y1="121.5" x2="93.8" y2="121.5"/>
		<line class="st1" x1="50.7" y1="65.7" x2="87.8" y2="65.7"/>
		<path id="highlight" class="st4" d="M2.2-69.6L211.4,35"/>
		
        <animateTransform  
				xlink:href="#highlight" accumulate="none"
                additive="replace" attributeName="transform"
                attributeType="XML" begin="0s" calcMode="linear"
                dur="10s" fill="freeze"
                values="0 -50;0 400;0 -50;0 400;0 400"                   
                keyTimes="0;0.05;0.05;0.08;1" 
                repeatCount="indefinite"
                restart="always" type="translate" >
        </animateTransform>
	</g>
</g>
</svg>
