<?xml version="1.0" encoding="utf-8"?>
<!-- Generator: Adobe Illustrator 24.1.1, SVG Export Plug-In . SVG Version: 6.00 Build 0)  -->
<svg version="1.1" id="Layer_1" xmlns="http://www.w3.org/2000/svg" xmlns:xlink="http://www.w3.org/1999/xlink" x="0px" y="0px"
	 viewBox="0 0 56.1 63.1" style="enable-background:new 0 0 56.1 63.1;" xml:space="preserve">
<style type="text/css">
	.st0{fill:#D39D18;}
	.st1{fill:#FFB500;}
	.st2{fill:#FFFFFF;}
	.st3{opacity:0.5;fill:url(#SVGID_1_);enable-background:new    ;}
	.st4{fill:#FF8D2B;}
	.st5{fill:#FFBC00;}
	.st6{opacity:0.5;fill:url(#SVGID_2_);enable-background:new    ;}
	.st7{opacity:0.2;enable-background:new    ;}
	.st8{fill:url(#SVGID_3_);}
	.st9{fill:url(#SVGID_4_);}
	.st10{fill:url(#SVGID_5_);}
	.st11{fill:url(#SVGID_6_);}
	.st12{fill:url(#SVGID_7_);}
	.st13{opacity:0.3;fill:url(#SVGID_8_);enable-background:new    ;}
	.st14{opacity:0.3;fill:url(#SVGID_9_);enable-background:new    ;}
	.st15{fill:#FF9D09;}
	.st16{opacity:0.3;}
	.st17{fill:#767676;}
	.st18{opacity:0.2;fill:#767676;enable-background:new    ;}
	.st19{opacity:0.6;fill:#767676;enable-background:new    ;}
	.st20{fill:#E78B00;}
	.st21{opacity:0.2;fill:#A6A6A6;enable-background:new    ;}
	.st22{opacity:0.44;}
	.st23{opacity:0.8;fill:url(#SVGID_10_);enable-background:new    ;}
	.st24{opacity:0.8;fill:url(#SVGID_11_);enable-background:new    ;}
</style>
<g>
	<g id="Layer_2_1_">
		<g id="Layer_1-2">
			<g>
				<g>
					<polygon class="st0" points="30.5,28.9 30.5,28.9 30.4,29.2 29.2,32 28.4,33.9 28.4,33.9 28.1,34.5 27.6,35.9 27.1,37.1 
						25.9,39.7 16.2,62.3 16.1,62.5 16,62.6 16,62.6 15.8,62.7 15.1,62.8 10.3,53.6 10.3,53.6 7.9,54.1 6.7,54.4 5.9,54.6 2.9,55.3 
						0.9,55.8 0.9,55.8 0.9,55.8 0,56 11,31.6 13.8,25.5 15.4,22.1 15.4,22.1 15.9,22.3 16,22.4 17.5,23.1 19.8,24.1 20.4,24.4 
						21.2,24.7 26.2,27 27,27.4 27,27.4 27.5,27.6 27.5,27.6 28,27.8 28,27.8 28,27.8 29,28.2 29,28.2 29.8,28.6 					"/>
					<polygon class="st1" points="31.4,28.7 31.2,29 31.1,29.3 30.9,29.7 30.9,29.7 29.5,32.7 29.5,32.7 28.7,34.5 28.7,34.6 
						28.4,35.2 28.1,35.9 26.8,38.9 16.2,62.3 16.1,62.5 16,62.6 15.2,60.8 13.7,58.1 13.4,57.5 12.8,56.4 12.8,56.4 11.2,53.3 
						10.3,53.6 7.9,54.3 6.6,54.5 5.9,54.7 2.9,55.3 2.5,55.4 0.9,55.8 0.9,55.8 0.9,55.8 11.8,31.7 11.8,31.7 14.2,26.4 16,22.4 
						16.2,21.8 17.8,22.5 20,23.5 20.6,23.8 21.5,24.2 26.4,26.4 27.3,26.8 27.8,27.1 27.8,27.1 28.7,27.5 28.7,27.5 29.7,27.9 
						29.7,27.9 30,28.1 30.2,28.1 31,28.5 31.3,28.6 					"/>
					<polygon class="st2" points="20,23.5 19.8,24.1 5.9,54.6 5.9,54.6 5.9,54.7 2.9,55.3 2.9,55.3 2.9,55.3 17.5,23.1 17.8,22.5 
											"/>
					<polygon class="st2" points="30,28.1 15.2,60.8 13.7,58.1 27.8,27.1 					"/>
					<polygon class="st2" points="27.3,26.8 13.4,57.5 12.8,56.4 26.4,26.4 					"/>
					<polygon class="st2" points="21.5,24.2 21.2,24.7 7.9,54.1 7.9,54.1 7.9,54.3 6.6,54.5 6.7,54.4 6.7,54.4 20.4,24.4 20.6,23.8 
											"/>
					
						<linearGradient id="SVGID_1_" gradientUnits="userSpaceOnUse" x1="16.116" y1="35.2948" x2="16.116" y2="2.2478" gradientTransform="matrix(1 0 0 -1 0 63.8898)">
						<stop  offset="0" style="stop-color:#858585"/>
						<stop  offset="5.000000e-03" style="stop-color:#888888"/>
						<stop  offset="7.500000e-02" style="stop-color:#ACACAC"/>
						<stop  offset="0.149" style="stop-color:#CACACA"/>
						<stop  offset="0.227" style="stop-color:#E2E2E2"/>
						<stop  offset="0.309" style="stop-color:#F2F2F2"/>
						<stop  offset="0.401" style="stop-color:#FCFCFC"/>
						<stop  offset="0.52" style="stop-color:#FFFFFF"/>
						<stop  offset="0.595" style="stop-color:#FAFAFA"/>
						<stop  offset="0.686" style="stop-color:#EBEBEB"/>
						<stop  offset="0.785" style="stop-color:#D3D3D3"/>
						<stop  offset="0.89" style="stop-color:#B1B1B1"/>
						<stop  offset="0.998" style="stop-color:#868686"/>
						<stop  offset="1" style="stop-color:#858585"/>
					</linearGradient>
					<polygon class="st3" points="31.4,28.3 31.3,28.6 31.2,29 31.1,29.3 30.9,29.7 30.9,29.7 29.5,32.7 29.5,32.7 28.7,34.5 
						28.7,34.6 28.4,35.2 28.1,35.9 26.8,38.9 26.8,38.9 16.2,62.3 16.1,62.5 16,62.6 16,62.6 15.8,62.7 15.1,62.8 15.1,62.8 
						10.3,53.6 7.9,54.3 6.6,54.5 5.9,54.7 2.9,55.3 2.5,55.4 0.9,55.8 0.9,55.4 11.6,31.7 15.9,22.3 16.2,21.5 29.1,27.3 30,27.7 
						30.1,27.7 30.8,28 					"/>
				</g>
				<g>
					<polygon class="st4" points="56.1,55 55.9,55.9 45.4,53 40.9,63.1 30.8,40.5 28.4,35.2 28.1,34.5 28.1,34.5 27.6,33.4 
						26.3,30.4 26,29.7 25.9,29.6 26,29.6 26.4,29.4 26.4,29.4 26.8,29.2 27.8,28.8 29,28.2 29,28.2 29,28.2 29.7,27.9 29.7,27.9 
						30,27.8 30.1,27.7 30.5,27.5 31.4,27.1 36.3,24.9 37.2,24.5 37.8,24.3 40,23.3 41.1,22.8 42.9,26.8 44.2,29.5 44.2,29.5 
						44.7,30.6 					"/>
					<polygon class="st5" points="56.1,55 53.9,54.4 53.9,54.4 50.9,53.6 50,53.3 48.9,53 48.9,53 45.5,52.1 44,55.4 43.5,56.5 
						43.1,57.2 42.2,59.1 41.8,60.1 41.8,60.1 40.9,61.9 32.8,43.6 31.1,39.9 29.3,36 28.7,34.6 28.7,34.5 28.4,33.9 28.4,33.9 
						28.4,33.8 28.4,33.8 27.9,32.7 26.6,29.7 26.6,29.7 26.4,29.4 26.3,29 26.3,29 26.1,28.7 26.1,28.7 26.5,28.5 26.5,28.5 
						27.3,28.2 27.5,28.1 28,27.8 28,27.8 28.7,27.5 28.7,27.5 29.1,27.3 29.7,27.1 30.2,26.8 31.1,26.4 36,24.2 36.9,23.8 
						36.9,23.8 37.5,23.5 39.7,22.5 41.2,21.8 41.2,21.8 43.3,26.6 43.5,26.9 					"/>
					<polygon class="st2" points="53.9,54.4 53.9,54.4 50.9,53.6 41,31.5 37.8,24.3 37.5,23.5 39.7,22.5 39.7,22.5 40,23.3 43.5,31 
											"/>
					<polygon class="st2" points="43.1,57.2 42.2,59.1 41.8,60.1 32,38.2 29.5,32.7 29.2,32 29.2,31.9 28.7,30.9 27.8,28.8 
						27.5,28.1 28,27.8 28,27.8 28.7,27.5 28.7,27.5 29.1,27.3 29.7,27.1 30,27.7 30,27.8 30.2,28.1 30.9,29.7 35.2,39.4 					"/>
					<polygon class="st2" points="44,55.4 43.5,56.5 35.8,39.4 31.2,29 31.2,29 31,28.5 30.8,28 30.5,27.5 30.2,26.8 31.1,26.4 
						31.4,27.1 36.4,38.3 					"/>
					<polygon class="st2" points="50,53.3 48.9,53 41.1,35.6 36.3,24.9 36,24.2 36.9,23.8 36.9,23.8 37.2,24.5 40.7,32.5 					"/>
					
						<linearGradient id="SVGID_2_" gradientUnits="userSpaceOnUse" x1="41.082" y1="35.1568" x2="41.082" y2="3.1948" gradientTransform="matrix(1 0 0 -1 0 63.8898)">
						<stop  offset="0" style="stop-color:#858585"/>
						<stop  offset="5.000000e-03" style="stop-color:#888888"/>
						<stop  offset="7.500000e-02" style="stop-color:#ACACAC"/>
						<stop  offset="0.149" style="stop-color:#CACACA"/>
						<stop  offset="0.227" style="stop-color:#E2E2E2"/>
						<stop  offset="0.309" style="stop-color:#F2F2F2"/>
						<stop  offset="0.401" style="stop-color:#FCFCFC"/>
						<stop  offset="0.52" style="stop-color:#FFFFFF"/>
						<stop  offset="0.595" style="stop-color:#FAFAFA"/>
						<stop  offset="0.686" style="stop-color:#EBEBEB"/>
						<stop  offset="0.785" style="stop-color:#D3D3D3"/>
						<stop  offset="0.89" style="stop-color:#B1B1B1"/>
						<stop  offset="0.998" style="stop-color:#868686"/>
						<stop  offset="1" style="stop-color:#858585"/>
					</linearGradient>
					<polygon class="st6" points="56.1,55 53.9,54.4 53.9,54.4 50.9,53.6 50,53.3 48.9,53 48.9,53 46.4,52.3 45.5,52.1 44,55.4 
						43.5,56.5 43.1,57.2 42.2,59.1 41.8,60.1 41.8,60.1 40.9,61.9 40.9,61.9 32.8,43.6 31.1,39.9 29.3,36 28.7,34.5 28.4,33.9 
						28.4,33.9 28.4,33.8 28.4,33.8 27.9,32.7 26.6,29.7 26.4,29.4 26.3,29 26.1,28.7 26.5,28.5 26.5,28.5 27.3,28.2 27.5,28.1 
						28,27.8 28,27.8 28.7,27.5 28.7,27.5 29.1,27.3 29.7,27.1 30.2,26.8 31.1,26.4 36,24.2 36.9,23.8 36.9,23.8 37.5,23.5 
						39.7,22.5 39.7,22.5 41.2,21.8 43.3,26.6 					"/>
					<polygon class="st7" points="44.7,30.6 44.7,30.6 44,30.9 43.5,31 41,31.5 40.6,31.6 40.7,32.5 41.1,35.6 41.1,35.6 40.5,35.9 
						36.9,35.5 36.4,38.3 36.2,39.3 35.8,39.4 35.5,39.5 35.2,39.4 32.1,38 32,38.2 31.1,39.9 30.8,40.5 28.4,35.2 28.1,35.9 
						26.8,38.9 26.8,38.9 25.9,39.7 25.8,39.7 24.2,41.3 24,41.4 23.5,41.6 22.2,39.3 21.9,38.7 21.4,38 21.1,38.1 18.3,39.4 
						17.6,39.7 16.8,35.6 16.3,35.7 15.2,35.8 14.4,35.9 14.4,35.9 12.7,36.1 12.6,36.1 12.9,33.2 12.9,33.2 13,32.1 13.1,32 
						11.8,31.7 11.8,31.7 11.6,31.7 11,31.6 13.8,25.5 15.4,22.1 15.4,22.1 15.9,22.3 16.2,21.5 29.1,27.3 29.7,27.1 30.2,26.8 
						31.1,26.4 36,24.2 36.9,23.8 37.5,23.5 39.7,22.5 41.2,21.8 41.2,21.8 43.3,26.6 43.3,26.6 43,26.7 42.9,26.8 42.9,26.8 
						43,26.9 44.2,29.5 44.2,29.5 					"/>
				</g>
				<g>
					
						<linearGradient id="SVGID_3_" gradientUnits="userSpaceOnUse" x1="6.926" y1="44.2818" x2="45.866" y2="44.2818" gradientTransform="matrix(1 0 0 -1 0 63.8898)">
						<stop  offset="0" style="stop-color:#FFD945"/>
						<stop  offset="1" style="stop-color:#FF9D09"/>
					</linearGradient>
					<polygon class="st8" points="42.2,24.7 44.7,28.2 44,28.5 39.9,29.4 41.1,33.3 40.5,33.5 36.3,33.1 36.2,36.9 35.5,37.2 
						31.7,35.5 30.3,38.9 29.7,39.2 26.6,36.3 24.2,38.9 23.5,39.2 21.4,35.6 18.3,37.1 17.6,37.4 16.8,33.3 12.7,33.8 12.6,33.8 
						13,29.8 13.1,29.6 8.9,28.9 9,28.8 10.7,25 10.6,25 7,23 9.8,19.9 9.7,19.8 6.9,16.9 7,16.8 10.6,14.8 10.5,14.6 8.8,11 
						9.5,10.7 12.9,10.1 12.3,6 13,5.7 16.5,6.4 17.3,2.3 18,2 21.1,4 23.1,0.3 23.8,0.1 26.2,3.1 29.3,0.3 30,0 31.4,3.9 35.1,2.3 
						36,6.2 40.2,5.7 39.7,9.8 43.8,10.6 42.1,14.5 45.8,16.5 43,19.6 45.9,22.6 					"/>
					<path class="st2" d="M16.6,29.1l-2.8,4l-1.1,0.6l-0.1,0l0.4-4l1.3-0.7l-4.2-0.8L9,28.8l1.7-3.7l-0.1,0l1.2-0.4l-3.5-2L7,23
						l2.8-3.1l-0.1-0.1l1.2-0.3l0.3-1.1l-3-1.9L7,16.8l3.5-2l-0.1-0.1l1-0.3c0.7,1.2,1.4,2.4,1.9,3.7C13.3,18.2,16.6,29.1,16.6,29.1
						z"/>
					
						<radialGradient id="SVGID_4_" cx="27.01" cy="45.5188" r="25.628" gradientTransform="matrix(1 0 0 -1 0 63.8898)" gradientUnits="userSpaceOnUse">
						<stop  offset="0" style="stop-color:#FFDA45"/>
						<stop  offset="1" style="stop-color:#FF9D09"/>
					</radialGradient>
					<polygon class="st9" points="40.6,29.1 41.1,33.3 37,32.8 36.2,36.9 32.4,35.2 30.3,38.9 27.2,36.1 24.2,38.9 22.1,35.3 
						18.3,37.1 17.5,33 13.3,33.5 13.7,29.4 9.6,28.6 11.3,24.8 11.3,24.8 11.3,24.7 7.7,22.7 10.4,19.7 10.5,19.6 10.4,19.6 
						7.6,16.6 11.1,14.6 11.2,14.5 11.2,14.4 9.8,11.3 9.7,11.2 9.5,10.7 13.3,9.9 13.6,9.8 13.5,9.6 13.5,9.5 13.1,6.2 13,5.7 
						15.4,5.9 17,6.1 17.2,6.1 17.2,6 18,2 21.8,3.7 23.8,0.1 26.9,2.9 30,0 32.1,3.6 35.8,1.8 36.7,5.9 40.9,5.4 40.4,9.6 
						44.5,10.4 42.8,14.1 42.8,14.2 42.9,14.2 46.5,16.2 43.8,19.2 43.7,19.3 43.8,19.4 46.6,22.4 43,24.4 42.9,24.4 43,24.6 
						44.7,28.2 40.6,29.1 40.6,29.1 40.6,29.1 					"/>
					<g>
						
							<linearGradient id="SVGID_5_" gradientUnits="userSpaceOnUse" x1="10.4" y1="44.5571" x2="42.2704" y2="44.5571" gradientTransform="matrix(1 0 0 -1 0 63.8898)">
							<stop  offset="0" style="stop-color:#FFD945"/>
							<stop  offset="1" style="stop-color:#FF9D09"/>
						</linearGradient>
						<path class="st10" d="M42.3,19.6c0,2.5-0.5,5-1.6,7.3c-0.1,0.2-0.2,0.3-0.3,0.5c-0.1,0.2-0.2,0.4-0.3,0.6c0,0,0,0,0,0
							c-0.1,0.2-0.2,0.3-0.3,0.5s-0.2,0.3-0.3,0.5c-0.2,0.3-0.5,0.6-0.7,0.9c-0.1,0.1-0.2,0.2-0.3,0.3c-0.7,0.8-1.5,1.6-2.4,2.2
							c-0.1,0.1-0.2,0.2-0.3,0.2c-2.6,1.8-5.7,2.7-8.9,2.7c-1.6,0-3.1-0.2-4.6-0.6c0,0-0.1,0-0.1,0c-5-1.4-9-5.1-10.8-9.9
							c0,0,0-0.1,0-0.1c-0.6-1.6-0.9-3.3-0.9-5c0-0.1,0-0.1,0-0.2v0c0-1.7,0.2-3.3,0.7-4.9c0-0.1,0-0.1,0.1-0.2
							c0.2-0.6,0.4-1.1,0.6-1.6c0-0.1,0.1-0.2,0.1-0.3c0-0.1,0.1-0.1,0.1-0.2c0.1-0.3,0.3-0.5,0.4-0.8c0.3-0.6,0.6-1.1,1-1.6
							c0.1-0.1,0.1-0.2,0.2-0.3l0,0c0,0,0-0.1,0.1-0.1c0.3-0.4,0.5-0.7,0.8-1c0.1-0.1,0.2-0.3,0.4-0.4h0C14.9,8,14.9,7.9,15,7.9
							c0.2-0.2,0.4-0.4,0.6-0.6C15.7,7.2,15.9,7,16,6.9c0.3-0.3,0.6-0.5,1-0.8c0,0,0,0,0,0c0.1,0,0.1-0.1,0.2-0.1
							C19,4.7,21,3.9,23.2,3.5v0c1.8-0.2,3.6-0.3,5.4,0c0.9,0.1,1.7,0.4,2.5,0.8c0.2,0.1,0.5,0.1,0.7,0c2.7,1,5.1,2.7,6.9,4.9
							c0,0,0,0,0,0c0.1,0.1,0.1,0.2,0.2,0.2c0,0,0,0,0,0l0,0c1,1.2,1.7,2.6,2.3,4.1l0,0C41.9,15.4,42.3,17.5,42.3,19.6z"/>
						
							<linearGradient id="SVGID_6_" gradientUnits="userSpaceOnUse" x1="11.4679" y1="44.3618" x2="43.7649" y2="44.3618" gradientTransform="matrix(1 0 0 -1 0 63.8898)">
							<stop  offset="0" style="stop-color:#FF9D09"/>
							<stop  offset="0.995" style="stop-color:#FFE373"/>
						</linearGradient>
						<path class="st11" d="M43.8,19.4c0-0.1,0-0.1,0-0.2c0-1.7-0.3-3.4-0.9-5c0,0,0,0,0-0.1C41,8.9,36.5,5,31.1,3.8
							c-0.8-0.2-1.7-0.3-2.5-0.3c-1.6-0.1-3.3,0-4.8,0.4v0c-2.2,0.5-4.2,1.5-6,2.9c-0.5,0.4-0.9,0.8-1.4,1.2
							c-0.4,0.4-0.8,0.8-1.1,1.2c-0.8,0.9-1.5,2-2,3.1l0,0l0,0c-4,8-0.8,17.7,7.2,21.7c0.6,0.3,1.2,0.5,1.8,0.8c0,0,0.1,0,0.1,0
							c4.7,1.7,9.9,1.1,14.1-1.6c0,0,0,0,0,0c1-0.7,2-1.4,2.9-2.3h0c0.4-0.4,0.7-0.8,1.1-1.2c0.1-0.2,0.3-0.3,0.4-0.5c0,0,0,0,0,0
							c0.2-0.3,0.5-0.6,0.7-1c0.7-1.1,1.3-2.3,1.7-3.6c0-0.1,0-0.1,0.1-0.2c0.5-1.6,0.7-3.2,0.7-4.9C43.8,19.5,43.8,19.4,43.8,19.4z
							"/>
						
							<radialGradient id="SVGID_7_" cx="27.616" cy="44.3588" r="15.069" gradientTransform="matrix(1 0 0 -1 0 63.8898)" gradientUnits="userSpaceOnUse">
							<stop  offset="0" style="stop-color:#FFDF10"/>
							<stop  offset="1" style="stop-color:#FFC441"/>
						</radialGradient>
						<path class="st12" d="M27.6,34.6c-8.3,0-15.1-6.7-15.1-15.1S19.3,4.5,27.6,4.5c8.3,0,15.1,6.7,15.1,15.1v0
							C42.7,27.9,35.9,34.6,27.6,34.6z"/>
						<g>
							
								<linearGradient id="SVGID_8_" gradientUnits="userSpaceOnUse" x1="15.945" y1="34.8862" x2="39.157" y2="53.7342" gradientTransform="matrix(1 0 0 -1 0 63.8898)">
								<stop  offset="0" style="stop-color:#FFFFFF"/>
								<stop  offset="0.431" style="stop-color:#FFFFFF"/>
								<stop  offset="0.505" style="stop-color:#FFFFFF"/>
								<stop  offset="0.547" style="stop-color:#FFFFFF"/>
								<stop  offset="1" style="stop-color:#FFFFFF"/>
							</linearGradient>
							<path class="st13" d="M27.6,34.6c-8.3,0-15.1-6.7-15.1-15.1S19.3,4.5,27.6,4.5c8.3,0,15.1,6.7,15.1,15.1v0
								C42.7,27.9,35.9,34.6,27.6,34.6z"/>
						</g>
						<g>
							
								<linearGradient id="SVGID_9_" gradientUnits="userSpaceOnUse" x1="29.0766" y1="59.3562" x2="26.1526" y2="29.3072" gradientTransform="matrix(1 0 0 -1 0 63.8898)">
								<stop  offset="0" style="stop-color:#FFFFFF"/>
								<stop  offset="0.505" style="stop-color:#FFFFFF"/>
								<stop  offset="0.547" style="stop-color:#FFFFFF"/>
								<stop  offset="1" style="stop-color:#FFFFFF"/>
							</linearGradient>
							<path class="st14" d="M42.7,19.5c0,8.3-6.8,15.1-15.1,15.1c-6,0-11.4-3.6-13.8-9.1c-0.8-1.9-1.2-3.9-1.2-6
								c0-8.3,6.7-15.1,15.1-15.1S42.7,11.2,42.7,19.5L42.7,19.5z"/>
						</g>
						<g>
							<path class="st15" d="M24.2,28.1v-2.1h1V12.8H24v-2.3h6.2v15.4h1v2.1H24.2z"/>
							<g class="st16">
								<path class="st17" d="M30.2,25.9V10.5H24v0.8h5.5v15.4h1v1.3h0.7v-2.1H30.2z"/>
							</g>
							<polygon class="st18" points="29.5,11.3 30.2,10.5 30.2,25.8 29.5,26.7 							"/>
							<polygon class="st18" points="31.2,25.9 31.2,28.1 30.5,28.1 30.5,26.8 							"/>
						</g>
						<path class="st19" d="M42.7,19.5c0,8.1-6.4,14.7-14.4,15.1c7.7-0.7,13.6-7.3,13.4-15c0.1-8.2-6.4-14.9-14.5-15.1
							c-0.1,0-0.1,0-0.2,0c-0.2,0-0.5,0-0.7,0c0.4,0,0.9-0.1,1.4-0.1C35.9,4.5,42.7,11.2,42.7,19.5z"/>
						<g>
							<path class="st20" d="M39.9,26.1c-0.2,0.5-0.6,1-1,1.4c-0.2,0.1-0.5,0.2-0.8,0.2l0,0c-0.2,0-0.4-0.1-0.5-0.4
								c-0.1-0.4,0.2-1,0.8-1.2c0.1-0.1,0.3-0.1,0.4-0.1C39.2,25.9,39.5,25.9,39.9,26.1z"/>
							<path class="st20" d="M36.8,27c-0.1,0.1-0.2,0.1-0.4,0.1c-0.4-0.1-0.7-0.4-0.8-0.7c-0.2-0.5-0.3-1.1-0.3-1.7c0,0,0-0.1,0-0.1
								c0.5,0.1,1,0.4,1.3,0.9C37,26,37.1,26.7,36.8,27z"/>
							<path class="st20" d="M38.3,28.9c0,0-0.6,1-1.2,1.1c-0.2,0-0.4,0.1-0.5,0.1c-0.3,0-0.6-0.2-0.7-0.5c-0.1-0.4,0.4-0.9,1-1.1
								c0,0,0.1,0,0.1,0C37.4,28.5,37.9,28.6,38.3,28.9z"/>
							<path class="st20" d="M34.8,29.2c-0.1,0-0.1,0-0.2,0c-0.4-0.2-0.7-0.7-0.7-1.1c0-0.5,0-1.1,0.3-1.6c0-0.1,0.1-0.2,0.1-0.2
								c0.4,0.4,0.8,0.8,1,1.4C35.4,28.5,35.2,29.1,34.8,29.2z"/>
							<path class="st20" d="M41.1,22.4c-0.1,0.6-0.4,1.1-0.8,1.5c-0.3,0.2-0.6,0.3-1,0.3c-0.2,0-0.3-0.1-0.4-0.2
								c-0.2-0.4,0.1-1,0.6-1.4c0.3-0.2,0.6-0.3,0.9-0.3l0,0C40.6,22.4,40.9,22.4,41.1,22.4z"/>
							<path class="st20" d="M38.3,24c-0.1,0.2-0.4,0.3-0.6,0.2c-0.3,0-0.5-0.2-0.8-0.4c-0.4-0.5-0.6-1-0.7-1.6c0,0,0.1,0,0.2,0
								c0,0,0,0,0,0c0.5,0,0.9,0.1,1.3,0.3C38.3,23,38.5,23.7,38.3,24z"/>
							<path class="st20" d="M39.8,16.5c-0.2,0.6-0.7,1.1-1,0.9l0,0c0,0,0,0-0.1,0c-0.3-0.2-0.4-0.9-0.2-1.5c0.2-0.4,0.5-0.8,1-1.1
								c0.1-0.1,0.2-0.1,0.2-0.1C39.9,15.2,39.9,15.9,39.8,16.5z"/>
							<path class="st20" d="M38.2,17.7c-0.1,0.3-0.4,0.4-0.8,0.4c-0.2,0-0.4-0.1-0.6-0.2c-0.6-0.3-1-1.4-1-1.4
								c0.3-0.1,0.6-0.2,0.9-0.2c0.2,0,0.5,0,0.7,0.1C38,16.7,38.4,17.3,38.2,17.7z"/>
							<path class="st20" d="M40.5,20.3c-0.3,0.5-0.8,0.7-1.1,0.6c-0.1,0-0.1,0-0.2-0.1c-0.3-0.3-0.2-1,0.2-1.5
								c0.4-0.4,0.9-0.7,1.4-0.8C40.9,19.1,40.8,19.7,40.5,20.3z"/>
							<path class="st20" d="M38.4,20.8c-0.1,0.2-0.4,0.3-0.7,0.3c-0.2,0-0.5-0.1-0.7-0.3c-0.4-0.4-0.7-0.9-0.9-1.5
								c0.2,0,0.4-0.1,0.6-0.1h0c0.3,0,0.6,0,0.9,0.2C38.3,19.8,38.6,20.4,38.4,20.8z"/>
							<path class="st20" d="M38.4,12.9c-0.1,0.6-0.5,1.1-0.8,1c0,0,0,0,0,0c-0.3-0.1-0.4-0.7-0.3-1.3c0.1-0.4,0.4-0.8,0.7-1.1
								c0.1-0.1,0.2-0.2,0.2-0.2C38.3,11.9,38.4,12.4,38.4,12.9z"/>
							<path class="st20" d="M37.4,14.8c-0.1,0.3-0.4,0.5-0.9,0.5c-0.1,0-0.2,0-0.2,0c-0.5-0.1-1.1-1-1.1-1c0.3-0.2,0.6-0.3,1-0.4
								c0.1,0,0.2,0,0.3,0C37.1,14,37.5,14.4,37.4,14.8z"/>
							<path class="st20" d="M36.7,10.5c0,0.6-0.3,1-0.6,1c0,0-0.1,0-0.1,0c-0.3-0.3-0.4-0.6-0.4-1c0.1-0.4,0.2-0.7,0.4-1
								c0.1-0.1,0.1-0.2,0.1-0.2C36.5,9.6,36.6,10,36.7,10.5z"/>
							<path class="st20" d="M36.1,12.3c0,0.3-0.4,0.6-0.9,0.5h0c-0.4-0.1-0.7-0.4-1-0.7c0.3-0.2,0.6-0.4,0.9-0.5c0.1,0,0.1,0,0.2,0
								C35.8,11.7,36.1,12,36.1,12.3z"/>
							<path class="st20" d="M35.2,10.6c-0.1,0.2-0.3,0.3-0.5,0.2c-0.2,0-0.3-0.1-0.5-0.2c-0.3-0.3-0.5-0.7-0.6-1.1
								c0.1,0,0.2,0,0.4,0c0.3,0,0.6,0,0.8,0.2C35.1,9.9,35.3,10.4,35.2,10.6z"/>
						</g>
						<g>
							<path class="st15" d="M39.6,26.1c0,0-0.4,1.1-1,1.4c-0.2,0.1-0.4,0.1-0.6,0.2l0,0c-0.2,0-0.4-0.1-0.5-0.4
								c-0.1-0.4,0.2-1,0.8-1.2c0.1-0.1,0.3-0.1,0.4-0.1C39.1,25.9,39.4,26,39.6,26.1z"/>
							<path class="st15" d="M36.5,27c0,0-0.1,0.1-0.2,0.1c-0.4-0.1-0.7-0.4-0.8-0.7c-0.2-0.5-0.3-1.1-0.3-1.7
								c0.4,0.1,0.8,0.4,1.1,0.8C36.8,26,36.8,26.7,36.5,27z"/>
							<path class="st15" d="M38.1,28.9c0,0-0.6,1-1.2,1.1c-0.1,0-0.2,0-0.3,0.1c-0.3,0-0.6-0.2-0.7-0.5c-0.1-0.4,0.4-0.9,1-1.1
								c0,0,0.1,0,0.1,0C37.3,28.5,37.7,28.6,38.1,28.9z"/>
							<path class="st15" d="M34.6,29.2c-0.4-0.2-0.7-0.7-0.7-1.1c0-0.5,0-1.1,0.3-1.6c0.4,0.3,0.7,0.8,0.8,1.2
								C35.1,28.5,35,29.1,34.6,29.2z"/>
							<path class="st15" d="M40.8,22.4C40.7,23,40.4,23.5,40,24c-0.2,0.2-0.5,0.3-0.7,0.3c-0.2,0-0.3-0.1-0.4-0.2
								c-0.2-0.4,0.1-1,0.6-1.4c0.3-0.2,0.6-0.3,0.9-0.3l0,0C40.6,22.4,40.7,22.4,40.8,22.4z"/>
							<path class="st15" d="M38.1,24c-0.1,0.1-0.2,0.2-0.3,0.2c-0.3,0-0.5-0.2-0.8-0.4c-0.4-0.5-0.6-1-0.7-1.6c0,0,0.1,0,0.2,0
								c0,0,0,0,0,0c0.4,0,0.7,0.1,1.1,0.3C38,23,38.3,23.7,38.1,24z"/>
							<path class="st15" d="M39.5,16.5c-0.1,0.4-0.4,0.8-0.8,0.9l0,0c0,0,0,0-0.1,0c-0.3-0.2-0.4-0.9-0.2-1.5
								c0.2-0.4,0.5-0.8,1-1.1C39.6,15.3,39.7,15.9,39.5,16.5z"/>
							<path class="st15" d="M38,17.7c-0.1,0.2-0.3,0.4-0.5,0.4c-0.2,0-0.4-0.1-0.6-0.2c-0.6-0.3-1-1.4-1-1.4
								c0.3-0.1,0.6-0.2,0.9-0.2c0.1,0,0.3,0,0.4,0.1C37.8,16.7,38.1,17.3,38,17.7z"/>
							<path class="st15" d="M40.3,20.3c-0.2,0.3-0.5,0.5-0.8,0.6c-0.1,0-0.1,0-0.2-0.1c-0.3-0.3-0.2-1,0.2-1.5
								c0.3-0.4,0.7-0.6,1.2-0.7C40.6,19.2,40.5,19.7,40.3,20.3z"/>
							<path class="st15" d="M38.2,20.8c-0.1,0.2-0.3,0.3-0.4,0.3c-0.2,0-0.5-0.1-0.7-0.3c-0.4-0.4-0.7-0.9-0.9-1.5
								c0.2,0,0.4-0.1,0.6-0.1h0c0.2,0,0.5,0.1,0.7,0.2C38.1,19.8,38.4,20.4,38.2,20.8z"/>
							<path class="st15" d="M38.2,12.9c0,0.4-0.3,0.8-0.6,1c-0.3-0.1-0.4-0.7-0.3-1.3c0.1-0.4,0.4-0.8,0.7-1.1
								C38.1,12,38.2,12.5,38.2,12.9z"/>
							<path class="st15" d="M37.2,14.8c-0.1,0.3-0.3,0.5-0.6,0.5c-0.1,0-0.2,0-0.2,0c-0.5-0.1-1.1-1-1.1-1c0.3-0.2,0.6-0.3,1-0.4
								c0,0,0.1,0,0.1,0C36.8,14,37.2,14.4,37.2,14.8z"/>
							<path class="st15" d="M36.4,10.5c0,0.4-0.1,0.7-0.4,0.9c-0.3-0.3-0.4-0.6-0.4-1c0.1-0.4,0.2-0.7,0.4-1
								C36.3,9.7,36.4,10.1,36.4,10.5z"/>
							<path class="st15" d="M35.9,12.3c0,0.3-0.3,0.5-0.7,0.5c-0.4-0.1-0.7-0.4-1-0.7c0.3-0.2,0.6-0.4,0.9-0.5
								C35.6,11.8,35.9,12,35.9,12.3z"/>
							<path class="st15" d="M35,10.6c-0.1,0.1-0.2,0.2-0.3,0.2c-0.2,0-0.3-0.1-0.5-0.2c-0.3-0.3-0.5-0.7-0.6-1.1c0.1,0,0.2,0,0.4,0
								c0.2,0,0.4,0.1,0.6,0.2C34.9,9.9,35.1,10.4,35,10.6z"/>
						</g>
						<g>
							<path class="st20" d="M17.6,27c-0.1,0.4-0.7,0.5-1.3,0.2l-0.1,0c-0.4-0.4-0.8-0.8-0.9-1.4c0.5-0.2,1-0.2,1.4-0.1
								c0,0,0.1,0,0.1,0C17.4,26,17.8,26.6,17.6,27z"/>
							<path class="st20" d="M19.6,26.1c-0.4,0.6-0.9,0.9-1.2,0.7c0,0,0,0,0,0c-0.3-0.3-0.2-1,0.1-1.6c0.3-0.4,0.7-0.7,1.1-0.8
								c0.1,0,0.2-0.1,0.2-0.1C19.9,24.8,19.8,25.5,19.6,26.1z"/>
							<path class="st20" d="M19.3,29.4c-0.1,0.4-0.7,0.7-1.3,0.5c-0.1,0-0.2-0.1-0.3-0.1c-0.4-0.3-0.7-0.6-0.9-1
								c0.4-0.3,1-0.5,1.5-0.4c0.1,0,0.1,0,0.2,0.1C19,28.5,19.3,28.9,19.3,29.4z"/>
							<path class="st20" d="M21.2,27.9c-0.1,0.8-0.6,1.3-0.9,1.2c-0.1,0-0.1-0.1-0.2-0.1c-0.3-0.4-0.4-1-0.2-1.5
								c0.2-0.5,0.4-1,0.8-1.3c0.1-0.1,0.1-0.1,0.1-0.1C21.2,26.7,21.3,27.3,21.2,27.9z"/>
							<path class="st20" d="M16.2,23.7C16,24,15.6,24,15.1,23.8c0,0,0,0,0,0c-0.1,0-0.1-0.1-0.2-0.1c-0.4-0.5-0.7-1-0.8-1.6
								c0.4-0.1,0.8,0,1.2,0.1c0.1,0,0.2,0.1,0.3,0.2C16.2,22.7,16.4,23.3,16.2,23.7z"/>
							<path class="st20" d="M18.9,21.9c-0.1,0.6-0.4,1.2-0.7,1.7c-0.5,0.4-1,0.5-1.2,0.3c0,0-0.1-0.1-0.1-0.1c-0.2-0.4,0-1,0.5-1.5
								c0.4-0.3,0.8-0.4,1.3-0.3C18.8,21.8,18.9,21.9,18.9,21.9z"/>
							<path class="st20" d="M16.5,16.7c-0.2,0.1-0.4,0-0.5-0.1c-0.3-0.2-0.5-0.5-0.6-0.9c-0.1-0.6-0.1-1.2,0.1-1.9c0,0,0,0,0,0
								c0.5,0.3,0.9,0.7,1.2,1.2C16.9,15.8,16.8,16.5,16.5,16.7z"/>
							<path class="st20" d="M19.3,15.8c0,0-0.4,1.1-1,1.4c-0.3,0.2-0.8,0.2-1.2,0C17,17.2,17,17.1,16.9,17c-0.1-0.4,0.2-1,0.8-1.3
								c0.4-0.2,0.9-0.1,1.3,0C19.2,15.8,19.3,15.8,19.3,15.8z"/>
							<path class="st20" d="M15.9,20.3c-0.2,0.2-0.4,0.1-0.7,0c-0.2-0.1-0.4-0.3-0.5-0.5c-0.3-0.6-0.4-1.2-0.4-1.8
								c0.2,0,0.4,0.1,0.6,0.2c0.3,0.1,0.6,0.3,0.8,0.6C16.1,19.3,16.2,20,15.9,20.3z"/>
							<path class="st20" d="M19,18.8c-0.2,0.6-0.5,1.1-0.9,1.5c-0.3,0.3-0.8,0.3-1.2,0.1c-0.1,0-0.1-0.1-0.1-0.2
								c-0.2-0.4,0.1-1,0.7-1.4c0.4-0.2,0.9-0.3,1.3-0.2C18.8,18.7,18.9,18.8,19,18.8z"/>
							<path class="st20" d="M17.6,13.1c-0.1,0-0.3,0-0.3-0.1c-0.2-0.3-0.4-0.6-0.4-0.9c0-0.5,0.1-1,0.3-1.5c0-0.1,0-0.1,0-0.1
								c0.4,0.3,0.7,0.8,0.8,1.3C18,12.4,17.9,13,17.6,13.1z"/>
							<path class="st20" d="M19.9,13.4c0,0-0.5,0.9-1.1,1c-0.3,0.1-0.6,0.1-0.9-0.1c-0.1-0.1-0.2-0.2-0.2-0.3
								c-0.1-0.4,0.3-0.8,0.9-1c0.3,0,0.6,0,0.9,0.1C19.7,13.2,19.8,13.3,19.9,13.4z"/>
							<path class="st20" d="M19.1,10.5c-0.1,0-0.2,0-0.3-0.1c-0.2-0.3-0.3-0.6-0.3-0.9c0-0.4,0.2-0.8,0.4-1.2
								c0-0.1,0.1-0.1,0.1-0.1c0.3,0.4,0.5,0.8,0.6,1.2C19.5,10,19.3,10.5,19.1,10.5z"/>
							<path class="st20" d="M21,11.3c0,0-0.5,0.7-1,0.7c-0.2,0-0.5,0-0.7-0.2c-0.1-0.1-0.2-0.2-0.2-0.4c0-0.3,0.4-0.7,0.8-0.7
								c0.1,0,0.3,0,0.4,0.1C20.5,10.9,20.7,11.1,21,11.3z"/>
							<path class="st20" d="M21.6,8.4c-0.1,0.4-0.3,0.9-0.6,1.2c-0.4,0.3-0.8,0.3-0.9,0.1c0,0-0.1-0.1-0.1-0.1
								c-0.1-0.3,0.1-0.8,0.5-1.1c0.3-0.2,0.6-0.2,0.9-0.2C21.5,8.4,21.6,8.4,21.6,8.4z"/>
						</g>
						<g>
							<path class="st15" d="M17.4,26.9c-0.1,0.4-0.6,0.5-1.2,0.3c-0.4-0.4-0.8-0.8-0.9-1.4c0.5-0.2,1-0.2,1.4-0.1
								C17.2,25.9,17.4,26.4,17.4,26.9z"/>
							<path class="st15" d="M19.4,26c-0.3,0.5-0.7,0.8-1,0.8c-0.3-0.3-0.2-1,0.1-1.6c0.3-0.4,0.7-0.7,1.1-0.8
								C19.7,24.9,19.6,25.4,19.4,26z"/>
							<path class="st15" d="M19.1,29.3c-0.1,0.4-0.7,0.7-1.3,0.5c0,0,0,0-0.1,0c-0.4-0.3-0.7-0.6-0.9-1c0.4-0.3,1-0.5,1.5-0.4
								c0.1,0,0.1,0,0.2,0.1C18.9,28.6,19.1,28.9,19.1,29.3z"/>
							<path class="st15" d="M21,27.8c-0.1,0.7-0.5,1.2-0.9,1.2c-0.3-0.4-0.4-1-0.2-1.5c0.2-0.5,0.4-1,0.8-1.3
								C21,26.7,21.1,27.3,21,27.8z"/>
							<path class="st15" d="M16,23.6c-0.1,0.3-0.5,0.3-0.9,0.2c0,0,0,0,0,0c-0.1,0-0.1-0.1-0.2-0.1c-0.4-0.5-0.7-1-0.8-1.6
								c0.4-0.1,0.8,0,1.2,0.1c0,0,0.1,0,0.1,0.1C15.9,22.6,16.2,23.2,16,23.6z"/>
							<path class="st15" d="M18.7,21.8c-0.1,0.6-0.3,1.1-0.7,1.6c-0.3,0.3-0.6,0.4-1,0.4c0,0-0.1-0.1-0.1-0.1c-0.2-0.4,0-1,0.5-1.5
								C17.8,21.9,18.2,21.8,18.7,21.8z"/>
							<path class="st15" d="M16.2,16.6c-0.1,0-0.2,0-0.3,0c-0.3-0.2-0.5-0.5-0.6-0.9c-0.1-0.6-0.1-1.2,0.1-1.9
								c0.4,0.3,0.7,0.7,0.9,1.1C16.7,15.7,16.6,16.4,16.2,16.6z"/>
							<path class="st15" d="M19,15.7c-0.2,0.5-0.5,1-1,1.4c-0.3,0.2-0.6,0.2-0.9,0.1C17,17.2,17,17.1,16.9,17
								c-0.1-0.4,0.2-1,0.8-1.3C18.2,15.6,18.6,15.6,19,15.7z"/>
							<path class="st15" d="M15.7,20.2c-0.1,0.1-0.3,0.2-0.5,0.1c-0.2-0.1-0.4-0.3-0.5-0.5c-0.3-0.6-0.4-1.2-0.4-1.8
								c0.2,0,0.4,0.1,0.6,0.2c0.2,0.1,0.4,0.3,0.5,0.5C15.9,19.2,16,19.9,15.7,20.2z"/>
							<path class="st15" d="M18.7,18.7c-0.2,0.6-0.5,1.1-0.9,1.5c-0.3,0.2-0.6,0.3-1,0.3c-0.1,0-0.1-0.1-0.1-0.2
								c-0.2-0.4,0.1-1,0.7-1.4C17.8,18.7,18.3,18.6,18.7,18.7z"/>
							<path class="st15" d="M17.3,13c0,0-0.1,0-0.1,0c-0.2-0.3-0.4-0.6-0.4-0.9c0-0.5,0.1-1,0.3-1.5c0.3,0.3,0.5,0.7,0.6,1.1
								C17.8,12.3,17.6,12.9,17.3,13z"/>
							<path class="st15" d="M19.7,13.2c0,0-0.5,0.9-1.1,1c-0.2,0.1-0.5,0.1-0.7,0c-0.1-0.1-0.2-0.2-0.2-0.3c-0.1-0.4,0.3-0.8,0.9-1
								c0.3,0,0.6,0,0.9,0.1C19.6,13.2,19.7,13.2,19.7,13.2z"/>
							<path class="st15" d="M18.8,10.4L18.8,10.4c-0.2-0.3-0.3-0.6-0.3-0.9c0-0.4,0.2-0.8,0.4-1.2c0.2,0.3,0.4,0.7,0.4,1
								C19.3,9.9,19.1,10.3,18.8,10.4z"/>
							<path class="st15" d="M20.7,11.2c0,0-0.5,0.7-1,0.7c-0.2,0-0.3,0-0.4-0.1c-0.1-0.1-0.2-0.2-0.2-0.4c0-0.3,0.4-0.7,0.8-0.7
								c0.1,0,0.3,0,0.4,0.1C20.4,10.9,20.6,11,20.7,11.2z"/>
							<path class="st15" d="M21.4,8.4c-0.1,0.4-0.3,0.8-0.6,1.1c-0.2,0.2-0.5,0.2-0.7,0.2c0,0-0.1-0.1-0.1-0.1
								c-0.1-0.3,0.1-0.8,0.5-1.1C20.7,8.4,21.1,8.3,21.4,8.4z"/>
						</g>
						<path class="st21" d="M42.7,19.5c0,8.3-6.8,15.1-15.1,15.1c-0.4,0-0.8,0-1.2,0c-5.6-0.5-10.4-3.9-12.6-9
							c22.4,5.2,21.1-15.3,20.7-18.9c0-0.1,0.1-0.3,0.1-0.4c2.7,1.4,4.9,3.5,6.3,6.2C42.1,14.6,42.7,17,42.7,19.5z"/>
						<path class="st18" d="M42.7,19.5c0,8.3-6.8,15.1-15.1,15.1c-0.4,0-0.8,0-1.2,0C36.6,31,39.7,20.1,40.7,14l0.7-0.7
							C42.3,15.3,42.7,17.4,42.7,19.5z"/>
						<g class="st22">
							
								<linearGradient id="SVGID_10_" gradientUnits="userSpaceOnUse" x1="37.032" y1="31.9357" x2="13.159" y2="53.5077" gradientTransform="matrix(1 0 0 -1 0 63.8898)">
								<stop  offset="0" style="stop-color:#FFFFFF"/>
								<stop  offset="1" style="stop-color:#FFFFFF"/>
							</linearGradient>
							<path class="st23" d="M39.1,30.8L39.1,30.8L39.1,30.8c-0.9,0.9-1.8,1.7-2.9,2.3l-0.2-0.7L36,32l0,0l0.6-1l-6.4-5.9l-0.7,0.9
								l-4.3-2.3v-0.5l-11.6-9.4l-0.4-1.7l0,0l-1.1,0.3l-0.3-0.1l-2.1-1.1c0,0,0-0.1-0.1-0.1l-0.2-0.5l3.9-0.8
								c0.1-0.1,0.1-0.2,0.2-0.3l0-0.1l0.1,0l0.2,0l1.5-0.4l0.1,1.7v0l9.9,8.1l0,0.5l4.3,2.8l0.7-0.6l4.6,5.1v0l1.8,1.6l1,0.9
								l0.1,0.1l0.2,0.2h0.8l0.1,0.2L39.1,30.8z"/>
						</g>
						<g class="st22">
							
								<linearGradient id="SVGID_11_" gradientUnits="userSpaceOnUse" x1="36.5747" y1="37.9364" x2="19.5337" y2="54.4634" gradientTransform="matrix(1 0 0 -1 0 63.8898)">
								<stop  offset="0" style="stop-color:#FFFFFF"/>
								<stop  offset="1" style="stop-color:#FFFFFF"/>
							</linearGradient>
							<path class="st24" d="M41.3,28.1c-0.2,0.3-0.4,0.6-0.7,1l0,0c0,0,0,0,0,0c-0.1,0.2-0.3,0.3-0.4,0.5l-0.4-1.1l0,0h-0.8l-8.7-8
								l-0.7,0.4l-4.3-3.3l0-0.8l-8.7-7.4L16.3,8l-1,0l-0.5,0c0,0-0.9-1-1.7-1.9L13,5.7l2.4,0.3c0.3,0.5,0.5,1,0.6,1l0.3,0l1.4-0.1
								l0,1.4l7.5,6.3l0,1.1l4.3,3.1l0.7-0.3l9.4,8.2l0.3,0.3l0.8,0h0.1L41.3,28.1z"/>
						</g>
					</g>
				</g>
			</g>
		</g>
	</g>
</g>
</svg>
