<svg xmlns="http://www.w3.org/2000/svg" xmlns:xlink="http://www.w3.org/1999/xlink" viewBox="0 0 57.922 84.18">
  <defs>
    <style>
      .cls-1 {
        mask: url(#mask);
        filter: url(#luminosity-noclip-17);
      }

      .cls-10, .cls-12, .cls-14, .cls-16, .cls-18, .cls-2, .cls-20, .cls-22, .cls-24, .cls-26, .cls-28, .cls-30, .cls-32, .cls-4, .cls-6, .cls-8 {
        mix-blend-mode: multiply;
      }

      .cls-2 {
        fill: url(#linear-gradient);
      }

      .cls-3 {
        mask: url(#mask-2);
        filter: url(#luminosity-noclip-22);
      }

      .cls-4 {
        fill: url(#linear-gradient-2);
      }

      .cls-5 {
        mask: url(#mask-3);
        filter: url(#luminosity-noclip-23);
      }

      .cls-6 {
        fill: url(#linear-gradient-3);
      }

      .cls-7 {
        mask: url(#mask-4);
        filter: url(#luminosity-noclip-24);
      }

      .cls-8 {
        fill: url(#linear-gradient-4);
      }

      .cls-9 {
        mask: url(#mask-5);
        filter: url(#luminosity-noclip-25);
      }

      .cls-10 {
        fill: url(#linear-gradient-5);
      }

      .cls-11 {
        mask: url(#mask-6);
        filter: url(#luminosity-noclip-26);
      }

      .cls-12 {
        fill: url(#linear-gradient-6);
      }

      .cls-13 {
        mask: url(#mask-7);
        filter: url(#luminosity-noclip-18);
      }

      .cls-14 {
        fill: url(#linear-gradient-7);
      }

      .cls-15 {
        mask: url(#mask-8);
        filter: url(#luminosity-noclip-27);
      }

      .cls-16 {
        fill: url(#linear-gradient-8);
      }

      .cls-17 {
        mask: url(#mask-9);
        filter: url(#luminosity-noclip-28);
      }

      .cls-18 {
        fill: url(#linear-gradient-9);
      }

      .cls-19 {
        mask: url(#mask-10);
        filter: url(#luminosity-noclip-29);
      }

      .cls-20 {
        fill: url(#linear-gradient-10);
      }

      .cls-21 {
        mask: url(#mask-11);
        filter: url(#luminosity-noclip-30);
      }

      .cls-22 {
        fill: url(#linear-gradient-11);
      }

      .cls-23 {
        mask: url(#mask-12);
        filter: url(#luminosity-noclip-31);
      }

      .cls-24 {
        fill: url(#linear-gradient-12);
      }

      .cls-25 {
        mask: url(#mask-13);
        filter: url(#luminosity-noclip-32);
      }

      .cls-26 {
        fill: url(#linear-gradient-13);
      }

      .cls-27 {
        mask: url(#mask-14);
        filter: url(#luminosity-noclip-19);
      }

      .cls-28 {
        fill: url(#linear-gradient-14);
      }

      .cls-29 {
        mask: url(#mask-15);
        filter: url(#luminosity-noclip-20);
      }

      .cls-30 {
        fill: url(#linear-gradient-15);
      }

      .cls-31 {
        mask: url(#mask-16);
        filter: url(#luminosity-noclip-21);
      }

      .cls-32 {
        fill: url(#linear-gradient-16);
      }

      .cls-33 {
        isolation: isolate;
      }

      .cls-34 {
        fill: url(#linear-gradient-17);
      }

      .cls-35, .cls-36, .cls-37, .cls-38 {
        fill: #717171;
      }

      .cls-35 {
        opacity: 0.3;
      }

      .cls-35, .cls-36, .cls-37, .cls-38, .cls-53, .cls-54, .cls-55, .cls-56, .cls-57, .cls-58, .cls-59, .cls-60, .cls-61, .cls-62, .cls-63, .cls-64, .cls-65 {
        mix-blend-mode: color-burn;
      }

      .cls-36, .cls-53, .cls-54, .cls-55, .cls-56, .cls-57, .cls-58, .cls-59, .cls-60, .cls-61, .cls-62, .cls-63, .cls-64, .cls-65 {
        opacity: 0.2;
      }

      .cls-37 {
        opacity: 0.5;
      }

      .cls-38 {
        opacity: 0.6;
      }

      .cls-39 {
        fill: url(#linear-gradient-18);
      }

      .cls-40 {
        fill: url(#linear-gradient-19);
      }

      .cls-41 {
        fill: url(#linear-gradient-20);
      }

      .cls-42 {
        fill: url(#linear-gradient-21);
      }

      .cls-43 {
        fill: url(#linear-gradient-22);
      }

      .cls-44 {
        fill: url(#linear-gradient-23);
      }

      .cls-45 {
        fill: url(#linear-gradient-24);
      }

      .cls-46 {
        fill: url(#linear-gradient-25);
      }

      .cls-47 {
        fill: url(#linear-gradient-26);
      }

      .cls-48 {
        fill: url(#linear-gradient-27);
      }

      .cls-49 {
        fill: url(#linear-gradient-28);
      }

      .cls-50 {
        fill: url(#linear-gradient-29);
      }

      .cls-51 {
        fill: url(#linear-gradient-30);
      }

      .cls-52 {
        fill: url(#linear-gradient-31);
      }

      .cls-53 {
        fill: url(#linear-gradient-32);
      }

      .cls-54 {
        fill: url(#linear-gradient-33);
      }

      .cls-55 {
        fill: url(#linear-gradient-34);
      }

      .cls-56 {
        fill: url(#linear-gradient-35);
      }

      .cls-57 {
        fill: url(#linear-gradient-36);
      }

      .cls-58 {
        fill: url(#linear-gradient-37);
      }

      .cls-59 {
        fill: url(#linear-gradient-38);
      }

      .cls-60 {
        fill: url(#linear-gradient-39);
      }

      .cls-61 {
        fill: url(#linear-gradient-40);
      }

      .cls-62 {
        fill: url(#linear-gradient-41);
      }

      .cls-63 {
        fill: url(#linear-gradient-42);
      }

      .cls-64 {
        fill: url(#linear-gradient-43);
      }

      .cls-65 {
        fill: url(#linear-gradient-44);
      }

      .cls-66 {
        mask: url(#mask-17);
      }

      .cls-67, .cls-69, .cls-71, .cls-73, .cls-75, .cls-77, .cls-79, .cls-81, .cls-83, .cls-85, .cls-87, .cls-89, .cls-91, .cls-93, .cls-95, .cls-97 {
        opacity: 0.8;
        mix-blend-mode: soft-light;
      }

      .cls-67 {
        fill: url(#linear-gradient-45);
      }

      .cls-68 {
        mask: url(#mask-18);
      }

      .cls-69 {
        fill: url(#linear-gradient-46);
      }

      .cls-70 {
        mask: url(#mask-19);
      }

      .cls-71 {
        fill: url(#linear-gradient-47);
      }

      .cls-72 {
        mask: url(#mask-20);
      }

      .cls-73 {
        fill: url(#linear-gradient-48);
      }

      .cls-74 {
        mask: url(#mask-21);
      }

      .cls-75 {
        fill: url(#linear-gradient-49);
      }

      .cls-76 {
        mask: url(#mask-22);
      }

      .cls-77 {
        fill: url(#linear-gradient-50);
      }

      .cls-78 {
        mask: url(#mask-23);
      }

      .cls-79 {
        fill: url(#linear-gradient-51);
      }

      .cls-80 {
        mask: url(#mask-24);
      }

      .cls-81 {
        fill: url(#linear-gradient-52);
      }

      .cls-82 {
        mask: url(#mask-25);
      }

      .cls-83 {
        fill: url(#linear-gradient-53);
      }

      .cls-84 {
        mask: url(#mask-26);
      }

      .cls-85 {
        fill: url(#linear-gradient-54);
      }

      .cls-86 {
        mask: url(#mask-27);
      }

      .cls-87 {
        fill: url(#linear-gradient-55);
      }

      .cls-88 {
        mask: url(#mask-28);
      }

      .cls-89 {
        fill: url(#linear-gradient-56);
      }

      .cls-90 {
        mask: url(#mask-29);
      }

      .cls-91 {
        fill: url(#linear-gradient-57);
      }

      .cls-92 {
        mask: url(#mask-30);
      }

      .cls-93 {
        fill: url(#linear-gradient-58);
      }

      .cls-94 {
        mask: url(#mask-31);
      }

      .cls-95 {
        fill: url(#linear-gradient-59);
      }

      .cls-96 {
        mask: url(#mask-32);
      }

      .cls-97 {
        fill: url(#linear-gradient-60);
      }

      .cls-98 {
        filter: url(#luminosity-noclip-16);
      }

      .cls-99 {
        filter: url(#luminosity-noclip-15);
      }

      .cls-100 {
        filter: url(#luminosity-noclip-14);
      }

      .cls-101 {
        filter: url(#luminosity-noclip-13);
      }

      .cls-102 {
        filter: url(#luminosity-noclip-12);
      }

      .cls-103 {
        filter: url(#luminosity-noclip-11);
      }

      .cls-104 {
        filter: url(#luminosity-noclip-10);
      }

      .cls-105 {
        filter: url(#luminosity-noclip-9);
      }

      .cls-106 {
        filter: url(#luminosity-noclip-8);
      }

      .cls-107 {
        filter: url(#luminosity-noclip-7);
      }

      .cls-108 {
        filter: url(#luminosity-noclip-6);
      }

      .cls-109 {
        filter: url(#luminosity-noclip-5);
      }

      .cls-110 {
        filter: url(#luminosity-noclip-4);
      }

      .cls-111 {
        filter: url(#luminosity-noclip-3);
      }

      .cls-112 {
        filter: url(#luminosity-noclip-2);
      }

      .cls-113 {
        filter: url(#luminosity-noclip);
      }
    </style>
    <filter id="luminosity-noclip" x="5.115" y="-8456.177" width="4.664" height="32766" filterUnits="userSpaceOnUse" color-interpolation-filters="sRGB">
      <feFlood flood-color="#fff" result="bg"/>
      <feBlend in="SourceGraphic" in2="bg"/>
    </filter>
    <mask id="mask" x="5.115" y="-8456.177" width="4.664" height="32766" maskUnits="userSpaceOnUse">
      <g class="cls-113"/>
    </mask>
    <linearGradient id="linear-gradient" x1="5.42" y1="50.542" x2="8.309" y2="48.436" gradientUnits="userSpaceOnUse">
      <stop offset="0"/>
      <stop offset="1" stop-color="#fff"/>
    </linearGradient>
    <filter id="luminosity-noclip-2" x="27.003" y="-8456.177" width="9.843" height="32766" filterUnits="userSpaceOnUse" color-interpolation-filters="sRGB">
      <feFlood flood-color="#fff" result="bg"/>
      <feBlend in="SourceGraphic" in2="bg"/>
    </filter>
    <mask id="mask-2" x="27.003" y="-8456.177" width="9.843" height="32766" maskUnits="userSpaceOnUse">
      <g class="cls-112"/>
    </mask>
    <linearGradient id="linear-gradient-2" x1="28.307" y1="55.651" x2="33.198" y2="52.086" xlink:href="#linear-gradient"/>
    <filter id="luminosity-noclip-3" x="27.052" y="-8456.177" width="9" height="32766" filterUnits="userSpaceOnUse" color-interpolation-filters="sRGB">
      <feFlood flood-color="#fff" result="bg"/>
      <feBlend in="SourceGraphic" in2="bg"/>
    </filter>
    <mask id="mask-3" x="27.052" y="-8456.177" width="9" height="32766" maskUnits="userSpaceOnUse">
      <g class="cls-111"/>
    </mask>
    <linearGradient id="linear-gradient-3" x1="28.467" y1="58.954" x2="32.709" y2="55.862" xlink:href="#linear-gradient"/>
    <filter id="luminosity-noclip-4" x="16.851" y="-8456.177" width="0.244" height="32766" filterUnits="userSpaceOnUse" color-interpolation-filters="sRGB">
      <feFlood flood-color="#fff" result="bg"/>
      <feBlend in="SourceGraphic" in2="bg"/>
    </filter>
    <mask id="mask-4" x="16.851" y="-8456.177" width="0.244" height="32766" maskUnits="userSpaceOnUse">
      <g class="cls-110"/>
    </mask>
    <linearGradient id="linear-gradient-4" x1="16.955" y1="43.819" x2="17.054" y2="43.747" xlink:href="#linear-gradient"/>
    <filter id="luminosity-noclip-5" x="22.939" y="-8456.177" width="10.49" height="32766" filterUnits="userSpaceOnUse" color-interpolation-filters="sRGB">
      <feFlood flood-color="#fff" result="bg"/>
      <feBlend in="SourceGraphic" in2="bg"/>
    </filter>
    <mask id="mask-5" x="22.939" y="-8456.177" width="10.49" height="32766" maskUnits="userSpaceOnUse">
      <g class="cls-109"/>
    </mask>
    <linearGradient id="linear-gradient-5" x1="25.26" y1="45.256" x2="29.39" y2="42.246" xlink:href="#linear-gradient"/>
    <filter id="luminosity-noclip-6" x="19.767" y="-8456.177" width="8.481" height="32766" filterUnits="userSpaceOnUse" color-interpolation-filters="sRGB">
      <feFlood flood-color="#fff" result="bg"/>
      <feBlend in="SourceGraphic" in2="bg"/>
    </filter>
    <mask id="mask-6" x="19.767" y="-8456.177" width="8.481" height="32766" maskUnits="userSpaceOnUse">
      <g class="cls-108"/>
    </mask>
    <linearGradient id="linear-gradient-6" x1="20.414" y1="38.793" x2="25.426" y2="35.14" xlink:href="#linear-gradient"/>
    <filter id="luminosity-noclip-7" x="11.543" y="-8456.177" width="4.968" height="32766" filterUnits="userSpaceOnUse" color-interpolation-filters="sRGB">
      <feFlood flood-color="#fff" result="bg"/>
      <feBlend in="SourceGraphic" in2="bg"/>
    </filter>
    <mask id="mask-7" x="11.543" y="-8456.177" width="4.968" height="32766" maskUnits="userSpaceOnUse">
      <g class="cls-107"/>
    </mask>
    <linearGradient id="linear-gradient-7" x1="11.757" y1="64.667" x2="14.924" y2="62.358" xlink:href="#linear-gradient"/>
    <filter id="luminosity-noclip-8" x="26.047" y="-8456.177" width="7.156" height="32766" filterUnits="userSpaceOnUse" color-interpolation-filters="sRGB">
      <feFlood flood-color="#fff" result="bg"/>
      <feBlend in="SourceGraphic" in2="bg"/>
    </filter>
    <mask id="mask-8" x="26.047" y="-8456.177" width="7.156" height="32766" maskUnits="userSpaceOnUse">
      <g class="cls-106"/>
    </mask>
    <linearGradient id="linear-gradient-8" x1="26.202" y1="27.428" x2="30.662" y2="24.178" xlink:href="#linear-gradient"/>
    <filter id="luminosity-noclip-9" x="27.181" y="-8456.177" width="6.217" height="32766" filterUnits="userSpaceOnUse" color-interpolation-filters="sRGB">
      <feFlood flood-color="#fff" result="bg"/>
      <feBlend in="SourceGraphic" in2="bg"/>
    </filter>
    <mask id="mask-9" x="27.181" y="-8456.177" width="6.217" height="32766" maskUnits="userSpaceOnUse">
      <g class="cls-105"/>
    </mask>
    <linearGradient id="linear-gradient-9" x1="27.455" y1="16.591" x2="31.259" y2="13.819" xlink:href="#linear-gradient"/>
    <filter id="luminosity-noclip-10" x="25.708" y="-8456.177" width="2.524" height="32766" filterUnits="userSpaceOnUse" color-interpolation-filters="sRGB">
      <feFlood flood-color="#fff" result="bg"/>
      <feBlend in="SourceGraphic" in2="bg"/>
    </filter>
    <mask id="mask-10" x="25.708" y="-8456.177" width="2.524" height="32766" maskUnits="userSpaceOnUse">
      <g class="cls-104"/>
    </mask>
    <linearGradient id="linear-gradient-10" x1="26.699" y1="4.635" x2="27.429" y2="4.103" xlink:href="#linear-gradient"/>
    <filter id="luminosity-noclip-11" x="14.327" y="-8456.177" width="4.936" height="32766" filterUnits="userSpaceOnUse" color-interpolation-filters="sRGB">
      <feFlood flood-color="#fff" result="bg"/>
      <feBlend in="SourceGraphic" in2="bg"/>
    </filter>
    <mask id="mask-11" x="14.327" y="-8456.177" width="4.936" height="32766" maskUnits="userSpaceOnUse">
      <g class="cls-103"/>
    </mask>
    <linearGradient id="linear-gradient-11" x1="14.727" y1="13.056" x2="17.463" y2="11.061" xlink:href="#linear-gradient"/>
    <filter id="luminosity-noclip-12" x="5.778" y="-8456.177" width="3.707" height="32766" filterUnits="userSpaceOnUse" color-interpolation-filters="sRGB">
      <feFlood flood-color="#fff" result="bg"/>
      <feBlend in="SourceGraphic" in2="bg"/>
    </filter>
    <mask id="mask-12" x="5.778" y="-8456.177" width="3.707" height="32766" maskUnits="userSpaceOnUse">
      <g class="cls-102"/>
    </mask>
    <linearGradient id="linear-gradient-12" x1="5.73" y1="35.783" x2="8.282" y2="33.923" xlink:href="#linear-gradient"/>
    <filter id="luminosity-noclip-13" x="7.755" y="-8456.177" width="3.075" height="32766" filterUnits="userSpaceOnUse" color-interpolation-filters="sRGB">
      <feFlood flood-color="#fff" result="bg"/>
      <feBlend in="SourceGraphic" in2="bg"/>
    </filter>
    <mask id="mask-13" x="7.755" y="-8456.177" width="3.075" height="32766" maskUnits="userSpaceOnUse">
      <g class="cls-101"/>
    </mask>
    <linearGradient id="linear-gradient-13" x1="7.107" y1="17.84" x2="9.463" y2="16.122" xlink:href="#linear-gradient"/>
    <filter id="luminosity-noclip-14" x="23.765" y="-8456.177" width="5.407" height="32766" filterUnits="userSpaceOnUse" color-interpolation-filters="sRGB">
      <feFlood flood-color="#fff" result="bg"/>
      <feBlend in="SourceGraphic" in2="bg"/>
    </filter>
    <mask id="mask-14" x="23.765" y="-8456.177" width="5.407" height="32766" maskUnits="userSpaceOnUse">
      <g class="cls-100"/>
    </mask>
    <linearGradient id="linear-gradient-14" x1="23.774" y1="76.558" x2="27.305" y2="73.984" xlink:href="#linear-gradient"/>
    <filter id="luminosity-noclip-15" x="27.747" y="-8456.177" width="3.854" height="32766" filterUnits="userSpaceOnUse" color-interpolation-filters="sRGB">
      <feFlood flood-color="#fff" result="bg"/>
      <feBlend in="SourceGraphic" in2="bg"/>
    </filter>
    <mask id="mask-15" x="27.747" y="-8456.177" width="3.854" height="32766" maskUnits="userSpaceOnUse">
      <g class="cls-99"/>
    </mask>
    <linearGradient id="linear-gradient-15" x1="27.478" y1="76.101" x2="30.154" y2="74.15" xlink:href="#linear-gradient"/>
    <filter id="luminosity-noclip-16" x="36.407" y="-8456.177" width="7.448" height="32766" filterUnits="userSpaceOnUse" color-interpolation-filters="sRGB">
      <feFlood flood-color="#fff" result="bg"/>
      <feBlend in="SourceGraphic" in2="bg"/>
    </filter>
    <mask id="mask-16" x="36.407" y="-8456.177" width="7.448" height="32766" maskUnits="userSpaceOnUse">
      <g class="cls-98"/>
    </mask>
    <linearGradient id="linear-gradient-16" x1="37.635" y1="64.574" x2="41.15" y2="62.012" xlink:href="#linear-gradient"/>
    <linearGradient id="linear-gradient-17" y1="42.324" x2="57.922" y2="42.324" gradientUnits="userSpaceOnUse">
      <stop offset="0.005" stop-color="#d34300"/>
      <stop offset="1" stop-color="#ffd83b"/>
    </linearGradient>
    <linearGradient id="linear-gradient-18" x1="0.486" y1="32.783" x2="12.368" y2="32.783" gradientUnits="userSpaceOnUse">
      <stop offset="0" stop-color="#fe9900"/>
      <stop offset="1" stop-color="#ffd83b"/>
    </linearGradient>
    <linearGradient id="linear-gradient-19" x1="0.016" y1="48.878" x2="15.525" y2="48.878" xlink:href="#linear-gradient-18"/>
    <linearGradient id="linear-gradient-20" x1="3.837" y1="62.974" x2="23.264" y2="62.974" xlink:href="#linear-gradient-18"/>
    <linearGradient id="linear-gradient-21" x1="14.701" y1="74.308" x2="33.235" y2="74.308" xlink:href="#linear-gradient-18"/>
    <linearGradient id="linear-gradient-22" x1="7.737" y1="19.814" x2="15.352" y2="19.814" xlink:href="#linear-gradient-18"/>
    <linearGradient id="linear-gradient-23" x1="14.181" y1="10.854" x2="19.928" y2="10.854" xlink:href="#linear-gradient-18"/>
    <linearGradient id="linear-gradient-24" x1="19.442" y1="25.161" x2="34.935" y2="25.161" xlink:href="#linear-gradient-18"/>
    <linearGradient id="linear-gradient-25" x1="21.512" y1="44.341" x2="34.449" y2="44.341" xlink:href="#linear-gradient-18"/>
    <linearGradient id="linear-gradient-26" x1="27.003" y1="52.395" x2="37.135" y2="52.395" xlink:href="#linear-gradient-18"/>
    <linearGradient id="linear-gradient-27" x1="36.327" y1="59.793" x2="43.871" y2="59.793" xlink:href="#linear-gradient-18"/>
    <linearGradient id="linear-gradient-28" x1="18.342" y1="35.067" x2="33.397" y2="35.067" xlink:href="#linear-gradient-18"/>
    <linearGradient id="linear-gradient-29" x1="22.501" y1="14.27" x2="36.555" y2="14.27" xlink:href="#linear-gradient-18"/>
    <linearGradient id="linear-gradient-30" x1="21.985" y1="6.563" x2="28.411" y2="6.563" xlink:href="#linear-gradient-18"/>
    <linearGradient id="linear-gradient-31" x1="16.48" y1="60.541" x2="35.27" y2="46.845" gradientUnits="userSpaceOnUse">
      <stop offset="0" stop-color="#fe8c00"/>
      <stop offset="1" stop-color="#fd5"/>
    </linearGradient>
    <linearGradient id="linear-gradient-32" y1="48.784" x2="12.094" y2="48.784" gradientUnits="userSpaceOnUse">
      <stop offset="0.088" stop-color="#717171"/>
      <stop offset="1" stop-color="#b1b1b1"/>
    </linearGradient>
    <linearGradient id="linear-gradient-33" x1="3.837" y1="62.972" x2="18.989" y2="62.972" xlink:href="#linear-gradient-32"/>
    <linearGradient id="linear-gradient-34" x1="14.701" y1="75.334" x2="31.584" y2="75.334" xlink:href="#linear-gradient-32"/>
    <linearGradient id="linear-gradient-35" x1="0.486" y1="32.054" x2="7.981" y2="32.054" xlink:href="#linear-gradient-32"/>
    <linearGradient id="linear-gradient-36" x1="7.737" y1="17.799" x2="11.752" y2="17.799" xlink:href="#linear-gradient-32"/>
    <linearGradient id="linear-gradient-37" x1="14.181" y1="9.18" x2="17.613" y2="9.18" xlink:href="#linear-gradient-32"/>
    <linearGradient id="linear-gradient-38" x1="21.103" y1="29.556" x2="25.844" y2="26.101" gradientUnits="userSpaceOnUse">
      <stop offset="0.088" stop-color="#494949"/>
      <stop offset="1" stop-color="#b1b1b1"/>
    </linearGradient>
    <linearGradient id="linear-gradient-39" x1="20.256" y1="39.687" x2="25.733" y2="35.695" xlink:href="#linear-gradient-38"/>
    <linearGradient id="linear-gradient-40" x1="22.752" y1="49.979" x2="28.819" y2="45.557" xlink:href="#linear-gradient-38"/>
    <linearGradient id="linear-gradient-41" x1="27.892" y1="58.137" x2="33.588" y2="53.985" xlink:href="#linear-gradient-38"/>
    <linearGradient id="linear-gradient-42" x1="37.914" y1="65.992" x2="41.995" y2="63.017" xlink:href="#linear-gradient-38"/>
    <linearGradient id="linear-gradient-43" x1="22.686" y1="11.148" x2="26.323" y2="8.497" xlink:href="#linear-gradient-38"/>
    <linearGradient id="linear-gradient-44" x1="24.215" y1="17.829" x2="28.286" y2="14.861" xlink:href="#linear-gradient-38"/>
    <filter id="luminosity-noclip-17" x="5.115" y="44.875" width="4.664" height="8.58" filterUnits="userSpaceOnUse" color-interpolation-filters="sRGB">
      <feFlood flood-color="#fff" result="bg"/>
      <feBlend in="SourceGraphic" in2="bg"/>
    </filter>
    <mask id="mask-17" x="5.115" y="44.875" width="4.664" height="8.58" maskUnits="userSpaceOnUse">
      <g class="cls-1">
        <path class="cls-2" d="M9.778,45.732l-.147.373L8.143,49.668l-.049.129-.243.6L6.734,53.084l-.162.371-.031-.031a12.183,12.183,0,0,1-1.426-1.477l.129-.306L6.572,48.42l.016-.031.21-.5L7.916,45.2l.129-.324C8.644,45.133,9.226,45.426,9.778,45.732Z"/>
      </g>
    </mask>
    <linearGradient id="linear-gradient-45" x1="5.42" y1="50.542" x2="8.309" y2="48.436" gradientUnits="userSpaceOnUse">
      <stop offset="0" stop-color="#fafafa"/>
      <stop offset="1" stop-color="#fafafa"/>
    </linearGradient>
    <filter id="luminosity-noclip-18" x="11.543" y="58.943" width="4.968" height="8.256" filterUnits="userSpaceOnUse" color-interpolation-filters="sRGB">
      <feFlood flood-color="#fff" result="bg"/>
      <feBlend in="SourceGraphic" in2="bg"/>
    </filter>
    <mask id="mask-18" x="11.543" y="58.943" width="4.968" height="8.256" maskUnits="userSpaceOnUse">
      <g class="cls-13">
        <path class="cls-14" d="M16.511,59.363l-.242.584L14.927,63.2l-.211.5-.08.176L13.518,66.6l-.244.6a14.887,14.887,0,0,1-1.731-.826l.226-.566,1.084-2.621L13.1,62.6l.274-.661.988-2.38.258-.616a8.853,8.853,0,0,1,1.684.34A1.145,1.145,0,0,1,16.511,59.363Z"/>
      </g>
    </mask>
    <linearGradient id="linear-gradient-46" x1="11.757" y1="64.667" x2="14.924" y2="62.358" xlink:href="#linear-gradient-45"/>
    <filter id="luminosity-noclip-19" x="23.765" y="70.373" width="5.407" height="8.414" filterUnits="userSpaceOnUse" color-interpolation-filters="sRGB">
      <feFlood flood-color="#fff" result="bg"/>
      <feBlend in="SourceGraphic" in2="bg"/>
    </filter>
    <mask id="mask-19" x="23.765" y="70.373" width="5.407" height="8.414" maskUnits="userSpaceOnUse">
      <g class="cls-27">
        <path class="cls-28" d="M29.172,70.777l-.179.405-1.215,2.963h-.014l-.227.548-.2.471-1.229,2.977-.21.519a10.02,10.02,0,0,1-2.138.115l.193-.47L25.3,75.051h.015l.21-.533,1.539-3.709.179-.436A9,9,0,0,1,29.172,70.777Z"/>
      </g>
    </mask>
    <linearGradient id="linear-gradient-47" x1="23.774" y1="76.558" x2="27.305" y2="73.984" xlink:href="#linear-gradient-45"/>
    <filter id="luminosity-noclip-20" x="27.747" y="71.281" width="3.854" height="6.877" filterUnits="userSpaceOnUse" color-interpolation-filters="sRGB">
      <feFlood flood-color="#fff" result="bg"/>
      <feBlend in="SourceGraphic" in2="bg"/>
    </filter>
    <mask id="mask-20" x="27.747" y="71.281" width="3.854" height="6.877" maskUnits="userSpaceOnUse">
      <g class="cls-29">
        <path class="cls-30" d="M31.6,71.764l-.146.39-.534,1.278-.244.6H30.66l-.4,1-.679,1.621-.016.016-.26.648a8.934,8.934,0,0,1-1.554.84l.244-.582v-.015l1.019-2.448.325-.773.226-.569.873-2.087.162-.4C30.954,71.441,31.293,71.6,31.6,71.764Z"/>
      </g>
    </mask>
    <linearGradient id="linear-gradient-48" x1="27.478" y1="76.101" x2="30.154" y2="74.15" xlink:href="#linear-gradient-45"/>
    <filter id="luminosity-noclip-21" x="36.407" y="59.98" width="7.448" height="5.422" filterUnits="userSpaceOnUse" color-interpolation-filters="sRGB">
      <feFlood flood-color="#fff" result="bg"/>
      <feBlend in="SourceGraphic" in2="bg"/>
    </filter>
    <mask id="mask-21" x="36.407" y="59.98" width="7.448" height="5.422" maskUnits="userSpaceOnUse">
      <g class="cls-31">
        <path class="cls-32" d="M43.855,59.98a12.337,12.337,0,0,1-.113,1.375l-.066.032L40.747,63.07l-.567.325-.567.324L39.6,63.7l-.923.551-.226.129-.454.244-.86.484h-.014l-.422.242-.079.049a8.477,8.477,0,0,1-.213-1.166l.049-.015,1.184-.662.726-.424.033-.014.47-.275.016-.018.324-.193h.015l2.494-1.44,2.1-1.2Z"/>
      </g>
    </mask>
    <linearGradient id="linear-gradient-49" x1="37.635" y1="64.574" x2="41.15" y2="62.012" xlink:href="#linear-gradient-45"/>
    <filter id="luminosity-noclip-22" x="27.003" y="49.1" width="9.843" height="7.852" filterUnits="userSpaceOnUse" color-interpolation-filters="sRGB">
      <feFlood flood-color="#fff" result="bg"/>
      <feBlend in="SourceGraphic" in2="bg"/>
    </filter>
    <mask id="mask-22" x="27.003" y="49.1" width="9.843" height="7.852" maskUnits="userSpaceOnUse">
      <g class="cls-3">
        <path class="cls-4" d="M36.846,49.1a6.984,6.984,0,0,1-.1.8c-.032.291-.081.6-.127.888-.034.244-.065.487-.115.729l-.1.049-3.964,2.283-1.75,1-.987.566-1.99,1.149-.018-.014-.5.291-.179.1L27,56.951a12.893,12.893,0,0,1,.243-2.33v-.033h.016l.129-.063v-.017l4.079-2.332.76-.438,1.863-1.068L36.6,49.23l.049-.017.145-.1Z"/>
      </g>
    </mask>
    <linearGradient id="linear-gradient-50" x1="28.307" y1="55.651" x2="33.198" y2="52.086" xlink:href="#linear-gradient-45"/>
    <filter id="luminosity-noclip-23" x="27.052" y="53.52" width="9" height="6.348" filterUnits="userSpaceOnUse" color-interpolation-filters="sRGB">
      <feFlood flood-color="#fff" result="bg"/>
      <feBlend in="SourceGraphic" in2="bg"/>
    </filter>
    <mask id="mask-23" x="27.052" y="53.52" width="9" height="6.348" maskUnits="userSpaceOnUse">
      <g class="cls-5">
        <path class="cls-6" d="M36.052,53.52c-.065.244-.13.484-.21.712a7.146,7.146,0,0,1-.291.873l-.018.016-.258.147-4.63,2.654-.566.326-.018-.018-.55.323-.389.228-.275.162-.954.534h-.017l-.275.162h-.016l-.339.2-.065.033c-.049-.357-.1-.762-.129-1.2l.031-.018,1.019-.564.471-.275.258-.145.52-.311.242-.144,1.166-.662L35.906,53.6Z"/>
      </g>
    </mask>
    <linearGradient id="linear-gradient-51" x1="28.467" y1="58.954" x2="32.709" y2="55.862" xlink:href="#linear-gradient-45"/>
    <filter id="luminosity-noclip-24" x="16.851" y="43.643" width="0.244" height="0.342" filterUnits="userSpaceOnUse" color-interpolation-filters="sRGB">
      <feFlood flood-color="#fff" result="bg"/>
      <feBlend in="SourceGraphic" in2="bg"/>
    </filter>
    <mask id="mask-24" x="16.851" y="43.643" width="0.244" height="0.342" maskUnits="userSpaceOnUse">
      <g class="cls-7">
        <path class="cls-8" d="M17,43.66l.1-.017a2.022,2.022,0,0,1-.065.341.724.724,0,0,1-.081-.144c-.033-.049-.064-.115-.1-.164Z"/>
      </g>
    </mask>
    <linearGradient id="linear-gradient-52" x1="16.955" y1="43.819" x2="17.054" y2="43.747" xlink:href="#linear-gradient-45"/>
    <filter id="luminosity-noclip-25" x="22.939" y="41.041" width="10.49" height="3.639" filterUnits="userSpaceOnUse" color-interpolation-filters="sRGB">
      <feFlood flood-color="#fff" result="bg"/>
      <feBlend in="SourceGraphic" in2="bg"/>
    </filter>
    <mask id="mask-25" x="22.939" y="41.041" width="10.49" height="3.639" maskUnits="userSpaceOnUse">
      <g class="cls-9">
        <path class="cls-10" d="M33.429,41.041c-.081.322-.194.662-.307,1-.065.227-.145.484-.228.728a2.009,2.009,0,0,0-.112.323l-.178.035-2.995.484h-.032l-1.311.209-1.637.26-.1.016-3.32.535-.275.047a7.988,7.988,0,0,1,.971-1.52,8.493,8.493,0,0,1,.648-.713l.631-.1,4.906-.778v-.017l3.2-.5Z"/>
      </g>
    </mask>
    <linearGradient id="linear-gradient-53" x1="25.26" y1="45.256" x2="29.39" y2="42.246" xlink:href="#linear-gradient-45"/>
    <filter id="luminosity-noclip-26" x="19.767" y="30.824" width="8.481" height="10.246" filterUnits="userSpaceOnUse" color-interpolation-filters="sRGB">
      <feFlood flood-color="#fff" result="bg"/>
      <feBlend in="SourceGraphic" in2="bg"/>
    </filter>
    <mask id="mask-26" x="19.767" y="30.824" width="8.481" height="10.246" maskUnits="userSpaceOnUse">
      <g class="cls-11">
        <path class="cls-12" d="M26.517,31.391c.566-.211,1.166-.4,1.731-.567l-.226.356L26.063,34.4l-.308.536h-.016l-.4.679-.292.469-1.375,2.283h-.017l-.307.5-.258.438-.6.986-.325.551h-.015a11.25,11.25,0,0,1-1.863.209c-.176.017-.355.017-.516.017l.306-.5,1.02-1.681h.017l.226-.389.065-.111.1-.149.358-.6.68-1.118v-.015l1.764-2.9.711-1.166.358-.582C25.739,31.7,26.127,31.535,26.517,31.391Z"/>
      </g>
    </mask>
    <linearGradient id="linear-gradient-54" x1="20.414" y1="38.793" x2="25.426" y2="35.14" xlink:href="#linear-gradient-45"/>
    <filter id="luminosity-noclip-27" x="26.047" y="20.254" width="7.156" height="9.777" filterUnits="userSpaceOnUse" color-interpolation-filters="sRGB">
      <feFlood flood-color="#fff" result="bg"/>
      <feBlend in="SourceGraphic" in2="bg"/>
    </filter>
    <mask id="mask-27" x="26.047" y="20.254" width="7.156" height="9.777" maskUnits="userSpaceOnUse">
      <g class="cls-15">
        <path class="cls-16" d="M33.2,20.381l-.211.357-.519.84-2.46,4.082-.892,1.471-.549.908-.517.857-.018.016a2.207,2.207,0,0,1-.322.246c-.228.143-.454.289-.7.418a3.026,3.026,0,0,1-.355.162l-.016.018a4.124,4.124,0,0,1-.6.275l.178-.324.194-.309v-.017l2.187-3.592,1.585-2.605.081-.147h.017l1.425-2.363.129-.2c.42-.1.793-.161,1.15-.223h.016a.291.291,0,0,1,.08.047A.64.64,0,0,1,33.2,20.381Z"/>
      </g>
    </mask>
    <linearGradient id="linear-gradient-55" x1="26.202" y1="27.428" x2="30.662" y2="24.178" xlink:href="#linear-gradient-45"/>
    <filter id="luminosity-noclip-28" x="27.181" y="10.539" width="6.217" height="8.078" filterUnits="userSpaceOnUse" color-interpolation-filters="sRGB">
      <feFlood flood-color="#fff" result="bg"/>
      <feBlend in="SourceGraphic" in2="bg"/>
    </filter>
    <mask id="mask-28" x="27.181" y="10.539" width="6.217" height="8.078" maskUnits="userSpaceOnUse">
      <g class="cls-17">
        <path class="cls-18" d="M33.4,10.539l-.13.211-.631,1.035-.567.955h-.016l-.033.065-.291.486-.015.016-.2.322-.565.941-.358.6L29.43,17.1l-.274.451h-.015v.017l-.229.374-.144.242a5.065,5.065,0,0,1-.956.291,4.67,4.67,0,0,1-.631.146L27.2,18.6l.325-.536,1.294-2.138.89-1.471L30,14l.017-.051.146-.242.371-.615.374-.616.679-1.117.161-.258.21-.339C32.443,10.668,32.928,10.6,33.4,10.539Z"/>
      </g>
    </mask>
    <linearGradient id="linear-gradient-56" x1="27.455" y1="16.591" x2="31.259" y2="13.819" xlink:href="#linear-gradient-45"/>
    <filter id="luminosity-noclip-29" x="25.708" y="1.684" width="2.524" height="5.117" filterUnits="userSpaceOnUse" color-interpolation-filters="sRGB">
      <feFlood flood-color="#fff" result="bg"/>
      <feBlend in="SourceGraphic" in2="bg"/>
    </filter>
    <mask id="mask-29" x="25.708" y="1.684" width="2.524" height="5.117" maskUnits="userSpaceOnUse">
      <g class="cls-19">
        <path class="cls-20" d="M28.232,4.9v.018c-.048.324-.08.631-.13.937s-.1.633-.16.942L27.86,6.67V6.652l-.469-.888L26.824,4.68l-.177-.358-.794-1.506-.145-.308c.275-.289.55-.565.826-.824l.178.308L27.439,3.4l.745,1.409Z"/>
      </g>
    </mask>
    <linearGradient id="linear-gradient-57" x1="26.699" y1="4.635" x2="27.429" y2="4.103" xlink:href="#linear-gradient-45"/>
    <filter id="luminosity-noclip-30" x="14.327" y="8.418" width="4.936" height="6.33" filterUnits="userSpaceOnUse" color-interpolation-filters="sRGB">
      <feFlood flood-color="#fff" result="bg"/>
      <feBlend in="SourceGraphic" in2="bg"/>
    </filter>
    <mask id="mask-30" x="14.327" y="8.418" width="4.936" height="6.33" maskUnits="userSpaceOnUse">
      <g class="cls-21">
        <path class="cls-22" d="M19.263,9.568l-.129.145-2.055,2.316v.016l-.145.162v.016l-1.652,1.845v.018l-.421.469-.033.033-.127.16a7.594,7.594,0,0,1-.374-1.295l.08-.082,1.069-1.2v-.016l1.264-1.424.145-.164,1.779-2.006.13-.146C18.957,8.807,19.119,9.18,19.263,9.568Z"/>
      </g>
    </mask>
    <linearGradient id="linear-gradient-58" x1="14.727" y1="13.056" x2="17.463" y2="11.061" xlink:href="#linear-gradient-45"/>
    <filter id="luminosity-noclip-31" x="5.778" y="30.58" width="3.707" height="7.607" filterUnits="userSpaceOnUse" color-interpolation-filters="sRGB">
      <feFlood flood-color="#fff" result="bg"/>
      <feBlend in="SourceGraphic" in2="bg"/>
    </filter>
    <mask id="mask-31" x="5.778" y="30.58" width="3.707" height="7.607" maskUnits="userSpaceOnUse">
      <g class="cls-23">
        <path class="cls-24" d="M9.485,31.406l-.145.34L8.094,34.758,8.03,34.9l-.924,2.266-.275.617V37.8l-.161.387c-.307-.223-.6-.467-.892-.727l.146-.373.534-1.262.777-1.879.05-.113,1.2-2.914.148-.34C8.936,30.855,9.226,31.131,9.485,31.406Z"/>
      </g>
    </mask>
    <linearGradient id="linear-gradient-59" x1="5.73" y1="35.783" x2="8.282" y2="33.923" xlink:href="#linear-gradient-45"/>
    <filter id="luminosity-noclip-32" x="7.755" y="12.578" width="3.075" height="8.127" filterUnits="userSpaceOnUse" color-interpolation-filters="sRGB">
      <feFlood flood-color="#fff" result="bg"/>
      <feBlend in="SourceGraphic" in2="bg"/>
    </filter>
    <mask id="mask-32" x="7.755" y="12.578" width="3.075" height="8.127" maskUnits="userSpaceOnUse">
      <g class="cls-25">
        <path class="cls-26" d="M10.83,14.148l-.129.309-.632,1.521-1.91,4.581-.048.146A14.881,14.881,0,0,1,7.9,19.184c-.049-.405-.08-.8-.1-1.182,0-.1-.015-.2-.015-.291-.017-.406-.032-.793-.032-1.184v-.013L8.4,14.959,9.26,12.9l.13-.324c.176.193.371.391.581.615C10.249,13.486,10.538,13.809,10.83,14.148Z"/>
      </g>
    </mask>
    <linearGradient id="linear-gradient-60" x1="7.107" y1="17.84" x2="9.463" y2="16.122" xlink:href="#linear-gradient-45"/>
  </defs>
  <g class="cls-33">
    <g id="Layer_2" data-name="Layer 2">
      <g id="Layer_1-2" data-name="Layer 1">
        <g>
          <path class="cls-34" d="M57.906,83.777l-.7.4c-4.356-7.721-9.277-8.936-15.509-10.471l-1.183-.293a27.8,27.8,0,0,1-3.495-1.262c-.293.1-.794.289-1.426.567-.825.34-1.86.808-2.914,1.373a.058.058,0,0,0-.048.017A13.786,13.786,0,0,1,29.3,77.318a8.934,8.934,0,0,1-1.554.84,7.065,7.065,0,0,1-1.458.455,3.176,3.176,0,0,1-.386.047,10.02,10.02,0,0,1-2.138.115A36.675,36.675,0,0,1,14.7,76.93v-.487s.095-.082.273-.228c.048-.031.1-.08.162-.127a39.914,39.914,0,0,1,5.277-3.434,16.779,16.779,0,0,1,4.339-1.732,8.035,8.035,0,0,1,2.315-.113,10.6,10.6,0,0,1,1.926.373,13.208,13.208,0,0,1,1.441.5c.373.162.712.308,1.02.47.536.276.956.518,1.264.711a3.5,3.5,0,0,0,.306.209c.049.051.1.067.13.1a.654.654,0,0,0,.081.047c.178-.114.373-.209.552-.323l.095-.064c.5-.275.988-.533,1.425-.744.275-.149.535-.26.761-.375-.162-.063-.323-.145-.486-.225a37.368,37.368,0,0,1-7.446-4.679c-.778-.114-2.558-.325-4.356-.422-.291-.032-.566-.049-.858-.063-.015,0-.015.014-.032.014A14.361,14.361,0,0,1,15.881,67.8a10.168,10.168,0,0,1-1.149-.162c-.227-.049-.47-.114-.7-.18-.245-.08-.5-.16-.762-.258a14.887,14.887,0,0,1-1.731-.826A41.27,41.27,0,0,1,3.837,60.3v-.68s.064-.016.177-.033c.033,0,.065-.016.114-.016a.1.1,0,0,1,.065-.015,45,45,0,0,1,8.078-.243,19.924,19.924,0,0,1,2.088.243,12.266,12.266,0,0,1,1.91.388c.017.018.017.018.032.018a9.314,9.314,0,0,1,1.393.547c.34.179.664.357.97.552a13.62,13.62,0,0,1,4.212,4.42c.031.049.063.1.079.131a.756.756,0,0,1,.065.112c.049,0,.21.015.469.031l.389.033.616.047.324.017.679.049.647.049.309.016c.274.017.516.033.694.033-.193-.164-.371-.324-.566-.5a33.069,33.069,0,0,1-6.168-7.48l-1.376-.452a26.39,26.39,0,0,1-3.076-1.295c-.241-.13-.452-.261-.7-.39h-.034A15.019,15.019,0,0,1,8.854,54.83a7.824,7.824,0,0,1-1-.5,8.092,8.092,0,0,1-1.279-.873l-.031-.031a12.183,12.183,0,0,1-1.426-1.477A39.079,39.079,0,0,1,0,42.8v-.487l.016.018a2.742,2.742,0,0,1,.339.064.642.642,0,0,1,.163.034l.016.015a.517.517,0,0,1,.211.047,53.429,53.429,0,0,1,5.373,1.879c.6.26,1.2.533,1.8.826a16.619,16.619,0,0,1,1.715.906,10.98,10.98,0,0,1,1.28.827,6.543,6.543,0,0,1,.663.5,2.792,2.792,0,0,1,.244.226,12.8,12.8,0,0,1,3.593,6.9c.033.162.05.306.065.42,0,.033.016.05.016.08v.064c0,.049.017.1.017.131a.73.73,0,0,1,.016.129c.21.1.469.242.695.324A31.961,31.961,0,0,0,19.912,57.1c0-.016-.016-.016-.016-.034-.1-.177-.212-.337-.308-.515-.162-.326-.34-.635-.5-.973A33.226,33.226,0,0,1,15.93,44.824c-.016-.013-.034-.031-.049-.045-.179-.2-.486-.551-.907-1.021-.647-.711-1.505-1.684-2.282-2.735-.163-.2-.324-.408-.469-.617A13.819,13.819,0,0,1,6.67,38.188c-.307-.223-.6-.467-.892-.727a8.068,8.068,0,0,1-.89-.924,2.276,2.276,0,0,1-.242-.322A13.085,13.085,0,0,1,3.4,34.191,40.306,40.306,0,0,1,.486,26.08v-.469s.16.063.453.209A54.78,54.78,0,0,1,5.633,28.7c.016,0,.016.018.033.018.55.388,1.085.775,1.6,1.181q.635.51,1.215,1.02a8.2,8.2,0,0,1,.858.826q.317.317.584.631a12.263,12.263,0,0,1,2.428,7.2.061.061,0,0,1,.016.049c-.016.211-.016.326-.016.326a.307.307,0,0,1,.016.111c.2.227.42.454.63.7.438.468.858.939,1.28,1.377.438.42.843.806,1.183,1.148.128.113.226.211.323.307a4.938,4.938,0,0,1-.033-.5c-.031-.26-.016-.549-.031-.809a.094.094,0,0,1,0-.1c-.018-.016-.018-.016,0-.034-.033-.371-.05-.728-.065-1.1q-.05-.8-.05-1.6c0-.293.017-.584.017-.89.015-.422.033-.842.048-1.264.065-.842.13-1.7.226-2.572.034-.278.065-.553.1-.829a.22.22,0,0,0-.033-.1.022.022,0,0,1,0-.031.062.062,0,0,1-.015-.049,1.067,1.067,0,0,0-.065-.162c-.13-.469-.389-1.262-.745-2.186-.1-.275-.209-.549-.325-.842s-.241-.564-.371-.857-.292-.6-.453-.891h-.016A13.731,13.731,0,0,1,9.4,24.412a8.318,8.318,0,0,1-.648-1.31c-.032-.081-.064-.147-.095-.227a10.483,10.483,0,0,1-.551-2.17A14.881,14.881,0,0,1,7.9,19.184c-.049-.405-.08-.8-.1-1.182,0-.1-.015-.2-.015-.291-.017-.406-.032-.793-.032-1.184v-.013c-.018-.293-.018-.553-.018-.811v-.162c0-.34,0-.68.018-1,0-.162,0-.322.015-.469a3.808,3.808,0,0,1,.017-.439c0-.289.015-.563.033-.809.064-.775.112-1.261.112-1.261s.534.517,1.328,1.343c.161.164.324.34.5.518.292.307.6.666.94,1.037.113.131.227.258.356.4.161.209.356.453.55.68.065.082.13.162.2.242s.145.178.21.276c.194.244.372.486.566.728.049.066.081.113.13.18a17.918,17.918,0,0,1,2.072,3.64,9.568,9.568,0,0,1,.567,3.223,14.544,14.544,0,0,1-.777,4.793,1.122,1.122,0,0,0-.065.176,1.29,1.29,0,0,1-.049.131c.114.193.226.371.355.564l.034.067c.55.988,1.019,2.007,1.375,2.8A64,64,0,0,1,18.5,22.713c-.015-.065-.033-.147-.065-.26-.145-.631-.436-1.976-.678-3.367A11.753,11.753,0,0,1,14.7,14.748a7.594,7.594,0,0,1-.374-1.295c-.016-.129-.049-.26-.065-.4-.016-.08-.016-.162-.032-.26a3.738,3.738,0,0,1-.033-.744c-.016-.178-.016-.373-.016-.567v-.242A21.936,21.936,0,0,1,14.57,7.98a40.958,40.958,0,0,1,1.165-4.615s.519.78,1.214,1.928c.162.291.34.6.534.939.146.276.308.551.455.858.257.471.5.971.726,1.474a9.755,9.755,0,0,1,.47,1.149,12.873,12.873,0,0,1,.584,1.861c.049.244.1.471.13.7.014.145.03.274.048.42a2.212,2.212,0,0,1,.016.325v.017l.016.016v.017h-.016l.016.014a.023.023,0,0,0,0,.033v.227a.409.409,0,0,0-.016.129v.211a8.124,8.124,0,0,1-.178,1.439c-.05.277-.13.567-.2.826a11.583,11.583,0,0,1-.7,1.83c-.145.309-.289.565-.388.778a1.78,1.78,0,0,1-.195.322v.018c0,.015-.017.015-.017.031a.314.314,0,0,0-.063.1c.242.907.518,1.8.744,2.461.824-2.476,1.8-5.017,2.946-7.625l.307-.73.1-.209a10.444,10.444,0,0,1-.291-2.9c0-.143.016-.307.016-.469a7.624,7.624,0,0,1,.631-2.461,10.285,10.285,0,0,1,.824-1.44A15.775,15.775,0,0,1,24.768,4c.356-.422.729-.807,1.085-1.182.291-.308.584-.584.859-.824.954-.924,1.682-1.523,1.682-1.523a3.9,3.9,0,0,1,.017.406v.451c0,.828-.034,2.17-.179,3.578v.018c-.048.324-.08.631-.13.937s-.1.633-.16.942v.013c-.066.374-.164.729-.259,1.084a5.226,5.226,0,0,1-.161.5c-.049.162-.115.325-.18.487V8.9c-.031.08-.08.176-.114.258-.1.211-.194.406-.306.6a.235.235,0,0,1-.049.066,1.685,1.685,0,0,1-.161.274,6.721,6.721,0,0,1-.552.746,8.1,8.1,0,0,1-.711.759q-.365.341-.73.631a.285.285,0,0,0-.064.049c-.081.049-.146.113-.226.162a12.124,12.124,0,0,1-1.458.906l-.356.827c-.777,1.732-1.458,3.447-2.073,5.131-.08.21-.16.439-.241.648.6-.453,1.36-1.02,2.154-1.572a.73.73,0,0,0,.111-.063.772.772,0,0,0,.081-.242c.064-.115.129-.26.211-.42v-.018a11.143,11.143,0,0,1,3.156-4.208,2.71,2.71,0,0,1,.455-.293,3.449,3.449,0,0,1,.518-.34,1.244,1.244,0,0,1,.16-.082,15.4,15.4,0,0,1,1.765-.776c.229-.08.455-.162.681-.226.258-.1.534-.18.794-.26.372-.1.743-.209,1.1-.291a1.969,1.969,0,0,1,.26-.065c.518-.144,1.037-.257,1.522-.355.536-.115,1.051-.211,1.506-.291.244-.035.47-.082.68-.1l.308-.048c.1-.016.177-.034.259-.051a1.142,1.142,0,0,1,.21-.014,2.352,2.352,0,0,1,.325-.033v.471s-3.578,5.242-6.816,7.041a9.28,9.28,0,0,1-.971.453,5.065,5.065,0,0,1-.956.291,4.67,4.67,0,0,1-.631.146c-.34.067-.664.115-.972.147-.324.031-.631.031-.922.047-.212,0-.437,0-.632-.016-.21,0-.405-.016-.582-.031-.357-.032-.681-.067-.923-.114-.049,0-.081-.015-.13-.015-.065-.018-.13-.018-.178-.033a.81.81,0,0,1-.146.113c-1.328,1.1-2.542,2.3-2.882,2.638A66.387,66.387,0,0,0,17.045,32.3c-.031.193-.064.389-.1.582A17.461,17.461,0,0,1,18.747,31a8.254,8.254,0,0,1,.826-.711l.015-.018c.016-.064.033-.128.049-.193.031-.1.065-.193.1-.308a12.846,12.846,0,0,1,3.142-5.082,10.393,10.393,0,0,1,1.213-.973,17.108,17.108,0,0,1,2.558-1.324c.938-.391,1.926-.764,2.9-1.069.76-.259,1.489-.472,2.169-.648.5-.147.97-.26,1.375-.373.633-.147,1.166-.26,1.522-.324l.324-.049v.486s-.065.1-.162.275c-.049.1-.114.194-.2.325a2.333,2.333,0,0,0-.129.209c-.081.13-.178.291-.291.47-.065.08-.114.178-.179.276-.047.082-.113.176-.176.275-.276.4-.568.84-.891,1.3-.244.356-.5.711-.778,1.066a29.6,29.6,0,0,1-2.347,2.786c-.032.017-.048.048-.081.082-.2.193-.389.386-.6.582a10.08,10.08,0,0,1-1.051.841l-.018.016a2.207,2.207,0,0,1-.322.246c-.228.143-.454.289-.7.418a3.026,3.026,0,0,1-.355.162l-.016.018a4.124,4.124,0,0,1-.6.275h-.015a11.118,11.118,0,0,1-2.137.614,13.68,13.68,0,0,1-2.414.228,13.883,13.883,0,0,1-1.877-.1l-.031.032a5.171,5.171,0,0,0-.536.484,15.1,15.1,0,0,0-1.7,2.187,11.434,11.434,0,0,0-.6,1.038c-.163,1.357-.26,2.685-.293,4-.017.339-.017.679-.017,1.019a37.933,37.933,0,0,0,.147,3.838,1.728,1.728,0,0,1,.112-.26l.39-.728a2.906,2.906,0,0,1,.5-.666l.549-.647c.081-.047.228-.437.308-.486a.055.055,0,0,1,.017-.047,1.048,1.048,0,0,1,.033-.2,12.964,12.964,0,0,1,1.684-3.852A10,10,0,0,1,22.68,33.8a14.636,14.636,0,0,1,1.7-1.051H24.4c.211-.1.405-.2.615-.309.389-.2.794-.371,1.2-.533.6-.258,1.214-.517,1.813-.728.794-.291,1.539-.551,2.25-.778h.017c.242-.082.486-.162.712-.224.324-.1.615-.18.89-.262.194-.047.388-.1.552-.146.177-.032.339-.081.469-.112.177-.049.323-.064.4-.082h.066l.015-.015v.47S30,36.555,26.534,39.08c-.115.08-.245.176-.374.258a10.078,10.078,0,0,1-1.876.937h-.018a.752.752,0,0,1-.193.067,2.285,2.285,0,0,1-.357.131c-.275.082-.551.16-.809.209-.178.048-.372.082-.551.131a.88.88,0,0,1-.2.031h-.015a16.651,16.651,0,0,1-1.863.209c-.176.017-.355.017-.516.017-.454,0-.843-.017-1.085-.029-.1.078-.194.174-.308.272l-.469.632a2.948,2.948,0,0,0-.405.678c-.1.229-.2.471-.292.682a3.191,3.191,0,0,0-.113.338,2.022,2.022,0,0,1-.065.341,3.05,3.05,0,0,0-.114.631,2.475,2.475,0,0,0-.015.326c-.016.032,0,.08,0,.112a.91.91,0,0,0-.016.357v.049a2.985,2.985,0,0,1,.031.42h-.031a32.843,32.843,0,0,0,2.914,9.34c.032.066.063.113.1.179a19.092,19.092,0,0,1,1.651-3.158v-.095a2.14,2.14,0,0,0-.016-.276v-.1a10.417,10.417,0,0,1,0-1.263,14.693,14.693,0,0,1,.486-3.043c.079-.26.16-.533.259-.807a3.253,3.253,0,0,1,.145-.375,9.712,9.712,0,0,1,.793-1.65,9.847,9.847,0,0,1,.7-.99,10.707,10.707,0,0,1,1.279-1.291,40.892,40.892,0,0,1,8.84-5.653c.032-.015.064-.033.1-.047.21-.1.323-.146.323-.146v.469s-.016.064-.032.179a.143.143,0,0,0-.016.08.048.048,0,0,1-.017.032.689.689,0,0,1-.032.162c-.016.1-.034.2-.064.308-.033.162-.081.34-.13.549a.148.148,0,0,1-.016.082c-.034.129-.049.244-.1.389-.031.18-.081.371-.13.582-.064.2-.111.422-.176.648-.1.325-.2.68-.309,1.055-.081.322-.194.662-.307,1-.065.227-.145.484-.228.728a2.009,2.009,0,0,0-.112.323c-.194.537-.4,1.086-.648,1.634a11.654,11.654,0,0,1-.55,1.233,12.727,12.727,0,0,1-1.619,2.654c-2.558,3.108-6.961,3.869-8.11,4.014-.017.017-.017.049-.033.066a21.084,21.084,0,0,0-.971,2.184A10.115,10.115,0,0,0,20.494,56c-.048.145-.081.258-.1.322A31.873,31.873,0,0,0,26.4,64.205a28.394,28.394,0,0,1,1.085-2.865c-.032-.145-.081-.324-.114-.52-.063-.275-.128-.6-.193-.953-.049-.357-.1-.762-.129-1.2-.018-.229-.034-.455-.034-.68C27,57.762,27,57.52,27,57.275v-.324l.015-.015a10,10,0,0,1,.34-2.333c0-.031.016-.046.033-.078v-.017a8.459,8.459,0,0,1,.745-1.977c1.409-2.654,4.726-5.47,6.927-7.121.244-.195.454-.357.664-.5.859-.629,1.408-1,1.408-1v.2c0,.162-.014.341-.014.535s-.017.4-.017.631c-.016.209-.016.468-.032.728v.194c0,.21-.016.437-.032.664-.016.179-.033.373-.033.584-.032.5-.081,1.019-.145,1.554a.272.272,0,0,1-.016.112,6.984,6.984,0,0,1-.1.8c-.032.291-.081.6-.127.888-.034.244-.065.487-.115.729a.693.693,0,0,0-.016.08,9.371,9.371,0,0,1-.194.939c-.065.324-.146.664-.243.989-.065.244-.13.484-.21.712a7.146,7.146,0,0,1-.291.873l-.018.016a9.1,9.1,0,0,1-.485,1.086c-1.878,3.514-5.941,5.133-7.106,5.52-.178.5-.341,1-.454,1.425-.162.551-.26.987-.324,1.28-.048.195-.081.322-.1.386.47.438.939.844,1.409,1.231h.145l-.015.1a36.776,36.776,0,0,0,9.89,5.729c-.047-.127-.112-.272-.177-.434a.776.776,0,0,1-.049-.113c-.129-.373-.244-.81-.373-1.264-.064-.257-.1-.533-.146-.808a5.734,5.734,0,0,1-.1-.746A15.081,15.081,0,0,1,36.62,65.4a8.477,8.477,0,0,1-.213-1.166,9.589,9.589,0,0,1-.08-1.537v-.211a8.22,8.22,0,0,1,.309-1.845c.047-.194.129-.387.194-.6C38.286,56.092,43,51.465,43,51.465a41,41,0,0,1,.713,4.627c.032.228.047.471.065.715.032.373.047.761.064,1.15a.437.437,0,0,1,.016.145v.146c.016.225.016.453.016.678s-.016.422-.016.633a3.7,3.7,0,0,1,0,.421,12.337,12.337,0,0,1-.113,1.375,9.847,9.847,0,0,1-.292,1.473c-.063.211-.129.406-.21.615-.064.194-.162.389-.243.584a8.923,8.923,0,0,1-.616,1.069c-.113.16-.225.34-.339.486a5.273,5.273,0,0,1-.374.467,4.123,4.123,0,0,1-.37.422,13.326,13.326,0,0,1-2.527,2.1c-.161.1-.291.2-.405.26a.348.348,0,0,0-.08.049,1.442,1.442,0,0,0-.13.064,1.021,1.021,0,0,1,.065.211c.081.258.13.518.21.744.082.2.147.373.212.551a5.194,5.194,0,0,0,.307.729c.179.355.339.648.453.841.066.116.112.2.146.245a11.841,11.841,0,0,0,1.165.355l1.182.307c5.732,1.41,10.442,2.314,14.618,8.175.277.389.552.809.827,1.248.145.225.274.467.42.711.049.082.095.163.145.243S57.875,83.713,57.906,83.777Z"/>
          <path class="cls-35" d="M37.024,71.441v.713c-.293.1-.794.289-1.426.567-.825.34-1.86.808-2.914,1.373l-.226-.614.7-.306.633-.276.095-.064Z"/>
          <path class="cls-36" d="M28.136,66.1v.713c-.778-.114-2.558-.325-4.356-.422-.291-.032-.566-.049-.858-.063-.015,0-.015.014-.032.014l-.534-.647,1.522.1.616.047.324.017.679.049.647.049.309.016Z"/>
          <path class="cls-35" d="M20.413,57.275v.745l-1.376-.452a26.39,26.39,0,0,1-3.076-1.295c-.241-.13-.452-.261-.7-.39h-.034v-.744l.277.113L19.9,57.064Z"/>
          <path class="cls-36" d="M15.881,44.082v.7c-.179-.2-.486-.551-.907-1.021-.647-.711-1.505-1.684-2.282-2.735-.163-.2-.324-.408-.469-.617v-.468Z"/>
          <path class="cls-35" d="M15.9,34.727c.034-.278.065-.553.1-.829a35.239,35.239,0,0,0-1.554-4.224c-.145-.307-.292-.6-.453-.891h-.016l.08-.986.454,1,.306.7.034.067,1.165,2.816.226,2.152Z"/>
          <path class="cls-37" d="M18.243,18.924l-.257-.584.7-7.252,1.036.486c.049.244.1.471.13.7A10.889,10.889,0,0,1,18.243,18.924Z"/>
          <path class="cls-36" d="M28.411,1.326c0,.828-.034,2.17-.179,3.578v.018c-.048.324-.08.631-.13.937s-.1.633-.16.942v.013c-.066.374-.164.729-.259,1.084a5.226,5.226,0,0,1-.161.5c-.049.162-.115.325-.18.487V8.9c-.031.08-.08.176-.114.258-.1.211-.194.406-.306.6a.235.235,0,0,1-.049.066,1.685,1.685,0,0,1-.161.274,6.721,6.721,0,0,1-.552.746,8.1,8.1,0,0,1-.711.759q-.365.341-.73.631a.285.285,0,0,0-.064.049c-.081.049-.146.113-.226.162a12.124,12.124,0,0,1-1.458.906l-.064-.322-.031-.115-.034-.162.323-.324L24.978,8.58l.406-.842V7.723l.63-1.328.81-1.715.615-1.28.955-2.056Z"/>
          <path class="cls-35" d="M36.555,10.215v.471s-3.578,5.242-6.816,7.041a9.28,9.28,0,0,1-.971.453,5.065,5.065,0,0,1-.956.291,4.67,4.67,0,0,1-.631.146c-.34.067-.664.115-.972.147-.324.031-.631.031-.922.047-.212,0-.437,0-.632-.016-.21,0-.405-.016-.582-.031-.357-.032-.681-.067-.923-.114-.049,0-.081-.015-.13-.015-.065-.018-.13-.018-.178-.033l.034-.487.014-.26,1.15-.71,2.332-1.459a.131.131,0,0,0,.065-.032l1.246-.777.437-.275.469-.291,1.182-.745.76-.47.518-.325.86-.533.727-.453,2.137-1.326c.6-.1,1.1-.162,1.457-.211A2.352,2.352,0,0,1,36.555,10.215Z"/>
          <path class="cls-36" d="M34.935,19.961v.453s-.065.1-.162.275c-.049.1-.114.194-.2.325a2.333,2.333,0,0,0-.129.209c-.081.13-.178.291-.291.47-.065.08-.114.178-.179.276-.047.082-.113.176-.176.275-.276.4-.568.84-.891,1.3-.244.356-.5.711-.778,1.066a29.6,29.6,0,0,1-2.347,2.786c-.032.017-.048.048-.081.082-.2.193-.389.386-.6.582a10.08,10.08,0,0,1-1.051.841l-.018.016a2.207,2.207,0,0,1-.322.246c-.228.143-.454.289-.7.418a3.026,3.026,0,0,1-.355.162l-.016.018a4.124,4.124,0,0,1-.6.275h-.015a11.118,11.118,0,0,1-2.137.614,13.68,13.68,0,0,1-2.414.228,13.883,13.883,0,0,1-1.877-.1l-.031.032v-.68l.064-.049,3.9-2.572,2.7-1.8L27.326,25l2.946-1.959h.017a.352.352,0,0,1,.1-.066l2.087-1.393,2.428-1.6a.016.016,0,0,0,.016-.016Z"/>
          <path class="cls-36" d="M33.4,29.561v.47S30,36.555,26.534,39.08c-.115.08-.245.176-.374.258a10.078,10.078,0,0,1-1.876.937h-.018a.752.752,0,0,1-.193.067,2.285,2.285,0,0,1-.357.131c-.275.082-.551.16-.809.209-.178.048-.372.082-.551.131a.88.88,0,0,1-.2.031h-.015a11.25,11.25,0,0,1-1.863.209c-.176.017-.355.017-.516.017-.454,0-.843-.017-1.085-.029l.081-.486.016-.067v-.015l.178-.147c.016-.015.162-.131.4-.322L21.5,38.236l2.268-1.875h.015l.7-.6c.018-.014.033-.014.049-.032h.016L26.063,34.4l3.724-3.187L31,30.178c.324-.1.615-.18.89-.262.194-.047.372-.1.552-.146.177-.032.339-.081.469-.112.177-.049.323-.064.4-.082A.3.3,0,0,1,33.4,29.561Z"/>
          <path class="cls-36" d="M34.449,36.506v.469s-.016.064-.032.179a.143.143,0,0,0-.016.08.048.048,0,0,1-.017.032.689.689,0,0,1-.032.162c-.016.1-.034.2-.064.308-.033.162-.081.34-.13.549a.148.148,0,0,1-.016.082c-.034.129-.049.244-.1.389-.031.18-.081.371-.13.582-.064.2-.111.422-.176.648-.1.325-.2.68-.309,1.055-.081.322-.194.662-.307,1-.065.227-.145.484-.228.728a2.009,2.009,0,0,0-.112.323c-.194.537-.4,1.086-.648,1.634a11.654,11.654,0,0,1-.55,1.233,12.727,12.727,0,0,1-1.619,2.654c-2.558,3.108-6.961,3.869-8.11,4.014-.017.017-.017.049-.033.066v-.906l.844-1.037v-.018l3.122-3.853,1.053-1.311.776-.937v-.018l.649-.793L30.1,41.574v-.017L34.029,36.7c.032-.015.064-.033.1-.047C34.336,36.555,34.449,36.506,34.449,36.506Z"/>
          <path class="cls-36" d="M37.135,44.1c0,.162-.014.341-.014.535,0,.388,0,.922-.049,1.553,0,.21-.016.437-.032.664-.016.179-.033.373-.033.584-.032.5-.081,1.019-.145,1.554v.1l-.016.016a6.984,6.984,0,0,1-.1.8c-.032.291-.081.6-.127.888-.034.244-.065.487-.115.729a.693.693,0,0,0-.016.08,9.371,9.371,0,0,1-.194.939c-.065.324-.146.664-.243.989-.065.244-.13.484-.21.712a7.146,7.146,0,0,1-.291.873l-.018.016a9.1,9.1,0,0,1-.485,1.086c-1.878,3.514-5.941,5.133-7.106,5.52l.032-.485v-.1c0-.016.017-.016.017-.032v-.1l.065-.1V60.9l1.455-2.349,1.248-2,1.684-2.7.727-1.182.568-1.232.355-.76Z"/>
          <path class="cls-38" d="M43.871,58.926v.2c0,.291,0,.567-.016.859a12.337,12.337,0,0,1-.113,1.375,9.847,9.847,0,0,1-.292,1.473c-.063.211-.129.406-.21.615-.064.194-.162.389-.243.584a8.923,8.923,0,0,1-.616,1.069c-.113.16-.225.34-.339.486a5.273,5.273,0,0,1-.374.467,4.123,4.123,0,0,1-.37.422,13.326,13.326,0,0,1-2.527,2.1c-.161.1-.291.2-.405.26a.348.348,0,0,0-.08.049,1.442,1.442,0,0,0-.13.064,1.021,1.021,0,0,1,.065.211c.081.258.13.518.21.744.082.2.147.373.212.551a.8.8,0,0,1-.389-.273,2.2,2.2,0,0,1-.259-1.506.524.524,0,0,1,.016-.131,4.383,4.383,0,0,0,.065-.469c.016-.129.016-.228-.016-.244a.016.016,0,0,1-.016-.016h-.018c-.1,0-.129.276-.161.178-.049-.111.032-.322.146-.551s.275-.517.323-.646a16.656,16.656,0,0,1,1.555-2.281c.291-.473.584-.955.858-1.444.34-.613.68-1.246.971-1.875.129-.228.243-.472.355-.717.276-.546.535-1.115.794-1.679a.5.5,0,0,0,.065-.131c.275-.582.6-1.215.843-1.861.032.373.047.761.064,1.15a.888.888,0,0,1,0,.291h.016C43.871,58.473,43.871,58.7,43.871,58.926Z"/>
          <path class="cls-38" d="M57.906,83.777l-.7.4V83.7l.55-.631c.049.082.095.163.145.243S57.875,83.713,57.906,83.777Z"/>
          <g>
            <path class="cls-39" d="M12.368,39.6v.033c-.016.211-.016.326-.016.326a.689.689,0,0,1-.129-.017.054.054,0,0,1-.034-.016A14.438,14.438,0,0,1,7.981,38.5a9.279,9.279,0,0,1-1.15-.7,7.013,7.013,0,0,1-.907-.713,6.909,6.909,0,0,1-1.036-1.037c-.032-.047-.081-.1-.113-.145a11.825,11.825,0,0,1-1.262-1.99,39.742,39.742,0,0,1-3.027-8.3s.16.063.453.209a43.276,43.276,0,0,1,4.727,2.592c.032.016.065.047.1.063.55.357,1.1.728,1.634,1.119.423.322.843.646,1.233.986.306.275.6.551.855.826a5.258,5.258,0,0,1,.439.487A12.65,12.65,0,0,1,12.368,39.6Z"/>
            <path class="cls-40" d="M15.525,55.381a1.32,1.32,0,0,1-.243.017h-.016a.025.025,0,0,1-.034,0,15.627,15.627,0,0,1-3.138-.146,12.6,12.6,0,0,1-3.077-.842,8.83,8.83,0,0,1-.987-.469,7.533,7.533,0,0,1-1.3-.857,1.884,1.884,0,0,1-.193-.146,12.4,12.4,0,0,1-1.3-1.3A38.106,38.106,0,0,1,.016,42.334a2.742,2.742,0,0,1,.339.064A47.163,47.163,0,0,1,6.1,44.082c.648.242,1.311.5,1.942.793.6.258,1.181.551,1.733.857a12.21,12.21,0,0,1,1.294.827c.178.13.341.259.5.388.13.114.259.227.389.356a13.121,13.121,0,0,1,3.448,7.254c.033.162.05.306.065.42a1.383,1.383,0,0,0,.033.144v.131A.73.73,0,0,1,15.525,55.381Z"/>
            <path class="cls-41" d="M23.264,65.467s-.018,0-.034.033h-.016c-.049.016-.128.064-.259.115-.048.031-.113.063-.179.112,0,0,0-.018-.015,0a.5.5,0,0,0-.2.1h-.015a.079.079,0,0,0-.065.031,16.8,16.8,0,0,1-3.5,1.1,11.694,11.694,0,0,1-2.848.193,9.6,9.6,0,0,1-1.151-.144,6.742,6.742,0,0,1-.954-.229c-.163-.047-.34-.111-.518-.175a11.919,11.919,0,0,1-1.749-.8,41.052,41.052,0,0,1-7.932-6.184s.064-.016.177-.033a41.866,41.866,0,0,1,8.175-.809,16.993,16.993,0,0,1,2.428.162,8.853,8.853,0,0,1,1.684.34,1.145,1.145,0,0,1,.21.08,6.818,6.818,0,0,1,1.409.6,8.35,8.35,0,0,1,.954.6A15.009,15.009,0,0,1,23.264,65.467Z"/>
            <path class="cls-42" d="M33.235,72.752s-.065.113-.211.322a1.029,1.029,0,0,1-.146.213c-.016.033-.031.065-.048.1h-.016V73.4c-.08.1-.161.225-.259.34a13.722,13.722,0,0,1-.971,1.151,12.966,12.966,0,0,1-2.007,1.763,8.93,8.93,0,0,1-1.586.907,6.772,6.772,0,0,1-1.7.566.679.679,0,0,1-.176.014,10.267,10.267,0,0,1-2.155.164A36.868,36.868,0,0,1,14.7,76.443s.095-.082.273-.228a40.922,40.922,0,0,1,5.309-3.852,14.637,14.637,0,0,1,4.469-1.91,7.6,7.6,0,0,1,2.494-.08,9,9,0,0,1,1.926.4,14.067,14.067,0,0,1,1.424.5c.358.16.7.322,1,.483a10.8,10.8,0,0,1,1.554.939h.016A.5.5,0,0,1,33.235,72.752Z"/>
            <path class="cls-43" d="M15.347,23.83a13.874,13.874,0,0,1-.891,4.613.447.447,0,0,1-.034.1.048.048,0,0,1-.031-.016h-.015c-.065-.033-.2-.113-.373-.211a.015.015,0,0,0-.016-.015A13.845,13.845,0,0,1,9.778,24.51c-.082-.114-.162-.242-.243-.371a8.849,8.849,0,0,1-.681-1.282,3.562,3.562,0,0,1-.192-.453,11.632,11.632,0,0,1-.5-1.845,19.733,19.733,0,0,1-.339-2.848c-.033-.389-.05-.793-.065-1.184v-.013c-.018-.293-.018-.553-.018-.811v-.162c0-.34,0-.68.018-1,0-.162,0-.322.015-.469a3.808,3.808,0,0,1,.017-.439c0-.289.015-.563.033-.809.046-1.05.112-1.732.112-1.732s.6.568,1.458,1.49c.176.193.371.391.581.615.278.293.567.616.859.955.128.163.274.325.4.5.178.2.355.407.517.616.05.066.115.146.162.211.1.13.209.242.292.371a6.327,6.327,0,0,1,.486.648c.065.1.13.18.2.275a15.368,15.368,0,0,1,1.893,3.352A9.764,9.764,0,0,1,15.347,23.83Z"/>
            <path class="cls-44" d="M19.928,13.049v.031a.023.023,0,0,0,0,.033v.227a.409.409,0,0,0-.016.129,12,12,0,0,1-1.732,5.084v.015c-.032.034-.05.067-.065.082a1.874,1.874,0,0,1-.113.176s-.082-.062-.242-.209a12.163,12.163,0,0,1-2.494-3.14,6.682,6.682,0,0,1-.438-.889,10.266,10.266,0,0,1-.421-1.217,6.278,6.278,0,0,1-.145-.793c-.016-.178-.05-.34-.065-.533-.016-.178-.016-.373-.016-.567v-.242a19.344,19.344,0,0,1,.291-3.142,39.522,39.522,0,0,1,1.263-5.211s.616.888,1.393,2.217c.146.273.322.566.485.873s.325.617.486.939c.243.486.485.986.7,1.506.163.389.325.762.469,1.15a11.387,11.387,0,0,1,.585,2.217A8.383,8.383,0,0,1,19.928,13.049Z"/>
            <path class="cls-45" d="M34.935,19.928a.049.049,0,0,1-.017.033.016.016,0,0,1-.016.016A42.448,42.448,0,0,1,31.049,25.5a20.124,20.124,0,0,1-1.587,1.746c-.29.277-.6.553-.889.8a8.432,8.432,0,0,1-.857.649,5.817,5.817,0,0,1-.664.386,3.785,3.785,0,0,1-.633.307V29.4a11.523,11.523,0,0,1-2.2.713,14.127,14.127,0,0,1-2.446.276,13.28,13.28,0,0,1-2.2-.1.67.67,0,0,0-.131-.018s.032-.128.1-.355a13.82,13.82,0,0,1,3.076-5.424,9.232,9.232,0,0,1,1.474-1.244,13.175,13.175,0,0,1,2.88-1.393v-.017a29.131,29.131,0,0,1,2.8-.873v-.016c.728-.178,1.425-.342,2.072-.472.42-.1.793-.161,1.15-.223h.016c.713-.149,1.279-.229,1.6-.277Z"/>
            <path class="cls-46" d="M34.449,36.506s-.388,2.057-1.15,4.547c-.047.162-.111.342-.161.521-.161.5-.34,1.035-.534,1.555-.211.547-.436,1.1-.68,1.633-.179.422-.373.826-.583,1.23a12.555,12.555,0,0,1-1.376,2.137c-2.558,3.107-6.945,3.869-8.11,4.016h-.033a1.525,1.525,0,0,1-.26.031s-.015-.112-.031-.307v-.1a10.417,10.417,0,0,1,0-1.263A14.091,14.091,0,0,1,21.9,47.48c.065-.257.131-.517.211-.791.033-.13.082-.259.129-.39a9.492,9.492,0,0,1,.7-1.619,7.988,7.988,0,0,1,.971-1.52,8.493,8.493,0,0,1,.648-.713c2.849-2.834,8.176-5.213,9.568-5.8C34.336,36.555,34.449,36.506,34.449,36.506Z"/>
            <path class="cls-47" d="M37.135,43.434V44.1a.014.014,0,0,1-.014.015v.018c.014.16,0,.308,0,.5s-.017.4-.017.631c-.016.209-.016.468-.032.728-.048.889-.131,1.959-.276,3.092v.033c-.1.791-.226,1.617-.389,2.444a20.3,20.3,0,0,1-.5,2.039,12.017,12.017,0,0,1-.631,1.668c-.082.162-.147.308-.227.453-1.844,3.482-5.86,5.1-7.074,5.521-.017,0-.017,0-.032.016-.21.066-.325.1-.325.1s-.08-.242-.194-.679v-.018c-.049-.226-.112-.5-.177-.824-.049-.357-.114-.746-.163-1.184-.016-.211-.049-.437-.065-.662S27,57.52,27,57.275v-.324a12.893,12.893,0,0,1,.243-2.33v-.033h.016a8.3,8.3,0,0,1,.874-2.524c1.247-2.365,4.014-4.841,6.152-6.525.519-.422.987-.777,1.392-1.086C36.555,43.805,37.135,43.434,37.135,43.434Z"/>
            <path class="cls-48" d="M43.871,58.926c0,.213-.016.422-.016.633a3.813,3.813,0,0,1-.033.437.435.435,0,0,1-.015.129,10.105,10.105,0,0,1-.131,1.262,1.983,1.983,0,0,0-.048.291c-.065.244-.113.47-.178.681a8.361,8.361,0,0,1-1.377,2.7c-.095.126-.193.259-.3.388-.082.113-.18.211-.26.307-.226.26-.47.517-.714.746a.276.276,0,0,1-.08.064c-.162.145-.307.291-.47.42a14.36,14.36,0,0,1-1.618,1.2c-.113.066-.21.128-.292.177-.048.031-.113.063-.16.1-.065.031-.114.062-.163.08l-.08.049s-.115-.2-.276-.535c-.033-.065-.065-.145-.1-.227-.065-.144-.128-.291-.21-.469a16.254,16.254,0,0,1-.648-2.008v-.015c-.079-.34-.162-.682-.226-1.053a.092.092,0,0,0-.017-.064,11.474,11.474,0,0,1-.129-1.522v-.211a8.233,8.233,0,0,1,.309-2.33C37.8,56.109,43,50.994,43,50.994a43.357,43.357,0,0,1,.76,5.084c.05.615.082,1.246.082,1.879a.437.437,0,0,1,.016.145v.146C43.871,58.473,43.871,58.7,43.871,58.926Z"/>
            <path class="cls-49" d="M33.4,29.561l-.015.015a41.712,41.712,0,0,1-2.543,4.178,20.618,20.618,0,0,1-4.145,4.711,1.006,1.006,0,0,1-.16.129,9.409,9.409,0,0,1-1.879,1.052,10.5,10.5,0,0,1-2.169.647,12.322,12.322,0,0,1-2.413.273c-.55.018-1,0-1.31-.011h-.081c-.1,0-.162-.018-.227-.018a.494.494,0,0,0-.113-.017.289.289,0,0,1,.016-.081,14.5,14.5,0,0,1,1.57-4A10.8,10.8,0,0,1,21.87,33.98a8.7,8.7,0,0,1,.81-.664,11.168,11.168,0,0,1,2.088-1.181,3.876,3.876,0,0,1,.6-.276c.371-.16.759-.324,1.149-.468.566-.211,1.166-.4,1.731-.567v-.017c.762-.227,1.491-.436,2.154-.6.567-.129,1.083-.258,1.522-.355.405-.082.729-.145.988-.194.177-.049.323-.064.4-.082A.3.3,0,0,1,33.4,29.561Z"/>
            <path class="cls-50" d="M36.555,10.215A37.5,37.5,0,0,1,32.944,14.6a14.8,14.8,0,0,1-3.205,2.654c-.194.1-.388.2-.583.291h-.015v.017a8.838,8.838,0,0,1-1.619.5,9.51,9.51,0,0,1-1.944.243,11.134,11.134,0,0,1-2.186-.1c-.211-.033-.372-.067-.516-.1h-.018a.807.807,0,0,1-.211-.031,1.177,1.177,0,0,1-.146-.035,1.015,1.015,0,0,1,.08-.209,11.672,11.672,0,0,1,3.158-4.647,7.558,7.558,0,0,1,1.215-.841v-.016c.015,0,.015-.018.033-.018a11.819,11.819,0,0,1,1.731-.728,8.834,8.834,0,0,1,1.167-.354v-.017a2.829,2.829,0,0,0,.339-.082c.372-.1.745-.176,1.117-.258.21-.031.422-.082.614-.113.488-.1.973-.163,1.442-.227,1.262-.178,2.33-.277,2.833-.291A2.352,2.352,0,0,1,36.555,10.215Z"/>
            <path class="cls-51" d="M28.411.875a4.474,4.474,0,0,1-.017.469,28.7,28.7,0,0,1-.21,3.465c-.017.08-.017.175-.032.257-.08.536-.161,1.069-.292,1.586V6.67a8.837,8.837,0,0,1-.632,2.023A7.021,7.021,0,0,1,26,10.539a10.341,10.341,0,0,1-3.028,2.33.136.136,0,0,1-.095.049,3.446,3.446,0,0,1-.421.209,2.878,2.878,0,0,1-.1-.338,10.43,10.43,0,0,1-.371-2.769c0-.143.016-.307.016-.469a7.47,7.47,0,0,1,.631-2.93,8.716,8.716,0,0,1,.7-1.23,16.925,16.925,0,0,1,1.278-1.7c.372-.421.729-.808,1.1-1.183.275-.289.55-.565.826-.824C27.568.68,28.394,0,28.394,0S28.411.324,28.411.875Z"/>
          </g>
          <path class="cls-52" d="M57.906,83.307l-.7.388c-4.356-7.72-9.277-8.92-15.509-10.457l-1.183-.308a24.52,24.52,0,0,1-3.495-1.264,10.179,10.179,0,0,0-1.426.568,17.447,17.447,0,0,1-2.363.987,3.675,3.675,0,0,1-.405.162h-.016V73.4l-.34.1c-.583.2-1.181.373-1.8.535-.436.114-.889.227-1.341.309-.6.142-1.2.258-1.8.353-.761.147-1.5.262-2.219.358H25.3a.025.025,0,0,1-.033,0,59.484,59.484,0,0,1-6.507.486c1.133-.226,2.945-.455,4.922-.746.014.018.031,0,.031,0,.6-.08,1.2-.178,1.812-.273.745-.116,1.506-.245,2.236-.373.613-.114,1.229-.227,1.8-.374.484-.1.938-.21,1.359-.339.1-.032.195-.049.291-.08.616-.178,1.1-.34,1.507-.487.16-.049.306-.113.436-.162h.016a19.409,19.409,0,0,0,2.137-1.084,1.94,1.94,0,0,1,.275-.129c.179-.1.34-.162.486-.244a38.512,38.512,0,0,1-7.932-4.92c-.778-.1-2.558-.308-4.356-.422-.4-.015-.825-.049-1.214-.08h-.1c-.163-.017-.309-.017-.453-.033a21.877,21.877,0,0,1-4.889-1.037c-.357-.111-.713-.227-1.053-.356-.34-.113-.68-.226-1.019-.357a2.794,2.794,0,0,1-.42-.162c-.618-.225-1.216-.467-1.783-.693-2.54-1.071-4.4-2.041-4.4-2.041,1.83.533,3.351,1.019,4.646,1.455.323.1.647.213.939.308s.614.2.891.293c.534.194,1,.358,1.44.5.373.145.712.258,1.036.387,2.59.939,3.61,1.328,5.473,1.394a2.274,2.274,0,0,0,.338.016h.566c.988-.033,1.975-.016,2.8,0,.2,0,.388.016.566.016a33.172,33.172,0,0,1-6.734-7.965,29.422,29.422,0,0,1-4.452-1.764,6.193,6.193,0,0,1-.679-.389h-.016a.025.025,0,0,1-.034,0v-.017c-.3-.162-.6-.342-.89-.5-.486-.34-.922-.678-1.311-.953-.971-.731-1.942-1.539-2.847-2.3-.311-.26-.6-.52-.892-.762-.438-.373-.841-.728-1.2-1.068-.339-.293-.631-.567-.891-.809H7.187c-.259-.226-.453-.406-.615-.568a2.087,2.087,0,0,1-.275-.275c.081.066.179.144.291.244.146.129.324.275.55.451l.018.017c.29.227.614.5.987.811s.793.648,1.231.984c.29.244.6.487.907.731a53.3,53.3,0,0,0,5.211,3.738h.017a3.652,3.652,0,0,0,.615.293c1.279.453,2.558.875,3.464,1.135.114.031.226.049.324.08-.291-.5-.568-.988-.825-1.524A33.194,33.194,0,0,1,15.93,44.342c-.016-.018-.034-.033-.049-.051-.179-.178-.486-.533-.907-1-.647-.713-1.505-1.7-2.282-2.734-.114-.162-.275-.36-.469-.584,0-.016-.017-.033-.034-.049-.921-1.149-2.558-3.108-4.159-5.02-.26-.324-.534-.629-.795-.955-.388-.453-.759-.89-1.1-1.31-.212-.227-.389-.453-.567-.662-.308-.358-.583-.7-.842-1.006-.228-.26-.438-.5-.6-.713.2.211.405.437.616.7.257.274.517.582.808.906.2.229.405.454.616.7.355.406.729.841,1.117,1.279.258.309.535.615.809.924,1.619,1.828,3.254,3.689,4.258,4.822.016,0,.016,0,.016.016q.389.416.63.679c.438.471.858.957,1.28,1.4.438.42.843.81,1.183,1.133a2.408,2.408,0,0,1,.29.291l.033.035c-.033-.277-.049-.553-.064-.844a.094.094,0,0,1,0-.1c-.018-.016-.018-.016,0-.034-.033-.371-.05-.728-.065-1.1q-.05-.8-.05-1.6c0-.293.017-.584.017-.89.015-.422.033-.842.048-1.264a32.64,32.64,0,0,1,.291-3.5.022.022,0,0,1,0-.031,2.431,2.431,0,0,1,.033-.34A33.214,33.214,0,0,0,14.44,29.2c-.145-.291-.275-.566-.437-.857.015-.016,0-.016,0-.032a.015.015,0,0,0-.016-.015c-.1-.211-.2-.422-.308-.617-.292-.452-.551-.889-.792-1.262a22.007,22.007,0,0,1-1.976-5.635c-.162-.693-.308-1.328-.421-1.877-.017-.144-.049-.273-.066-.4v-.016a4.1,4.1,0,0,1-.1-.519.92.92,0,0,1-.033-.178c.018.049.033.113.049.162v.016c.032.129.08.277.114.437.015.114.047.244.08.389.131.5.292,1.1.471,1.748a25.016,25.016,0,0,0,2.881,7.01c.048.082.113.164.161.26.017,0,.017,0,.017.015.129.2.259.4.388.615.032.065.081.114.114.18.08.127.162.273.241.4.568,1,1.053,2.055,1.409,2.866a62.578,62.578,0,0,1,2.218-9.44c.017-.062.05-.144.065-.209-.1-.437-.469-2.008-.743-3.627-.017-.049-.017-.113-.034-.162-.082-.533-.47-3.514-.792-6.232v-.016c-.065-.519-.13-1.006-.194-1.473-.082-.779-.18-1.474-.229-2.025-.015-.063-.015-.129-.031-.193V8.5c-.05-.4-.082-.711-.082-.857.032.13.082.388.131.744a1.306,1.306,0,0,1,.031.261c.1.516.2,1.182.325,1.924.049.471.129.955.194,1.459v.016c.356,2.3.744,4.808.939,5.877v.064c.047.178.081.289.1.371a.884.884,0,0,0,.065.2v.015c.031.116.048.211.08.307v.018c.243.793.469,1.537.664,2.1.824-2.476,2.12-5.26,3.253-7.869l.1-.209.08-.129,2.218-4.371a.06.06,0,0,1,.016-.033l.146-.291L25.8,5.973l.843-1.651c-.244.551-.52,1.133-.778,1.764-.275.615-.551,1.264-.826,1.928-.049.129-.1.242-.16.371-.47,1.133-.956,2.314-1.458,3.449l-.26.6-.194.437-.064.164-.292.662c-.874,1.975-1.634,3.9-2.314,5.795a2.423,2.423,0,0,1,.241-.177c.551-.438,1.215-.924,1.913-1.391a.5.5,0,0,1,.126-.082,2.544,2.544,0,0,1,.277-.176v-.018c.47-.308.956-.6,1.376-.828.226-.129.437-.224.631-.322.081-.049.68-.371,1.507-.81a.131.131,0,0,0,.065-.032c.355-.177.71-.371,1.117-.584h.014c.21-.111.423-.224.633-.34.226-.128.469-.242.711-.371.34-.177.681-.355,1-.517.081-.051.163-.082.244-.131.4-.193.775-.387,1.1-.551a4.219,4.219,0,0,1,.567-.291c.082-.049.163-.1.226-.129h.016c.081-.033.131-.064.178-.08a1.36,1.36,0,0,1-.227.145,2.027,2.027,0,0,1-.21.113v.018c-.146.08-.325.177-.517.291-.373.211-.81.453-1.279.726-.017,0-.017.018-.033.018-.242.146-.5.293-.761.437-.29.162-.6.34-.922.518s-.648.373-.972.551l-.015.017c-1.328.76-2.64,1.5-3.515,2.053-.4.228-.727.439-.92.568h-.018a.768.768,0,0,0-.162.131c-1.328,1.1-2.542,2.3-2.882,2.621A67.582,67.582,0,0,0,16.949,32.41c.032-.033.065-.082.1-.113a17.122,17.122,0,0,1,1.7-1.766,9.48,9.48,0,0,1,.792-.615,1.477,1.477,0,0,1,.2-.146,2.319,2.319,0,0,1,.243-.161c.177-.115,1.814-1.23,3.853-2.589.664-.422,1.376-.891,2.088-1.346.535-.338,1.069-.694,1.6-1.02h.015c.988-.613,1.909-1.181,2.735-1.617h.017a.352.352,0,0,1,.1-.066c.306-.162.582-.307.84-.438-.193.115-.551.358-1.036.651-.761.5-1.814,1.2-2.945,1.941-.308.2-.617.387-.923.6-.973.632-1.943,1.281-2.834,1.865-1.8,1.18-3.221,2.119-3.367,2.23-.178.149-.355.293-.534.453l-.015.018c-.18.178-.373.34-.536.535a14.879,14.879,0,0,0-1.7,2.186c-.34.533-.534.906-.6,1.019a42.529,42.529,0,0,0-.293,4.485c-.017.339-.017.679-.017,1.019,0,1.149.05,2.266.147,3.367a2.172,2.172,0,0,1,.112-.277c.131-.225.26-.469.39-.711a2.941,2.941,0,0,1,.5-.68l.549-.63a2.4,2.4,0,0,0,.228-.163.915.915,0,0,0,.13-.1c.112-.067.21-.147.306-.209.08-.082,1.313-1.149,3.061-2.494.534-.389,1.1-.825,1.715-1.246.291-.213.6-.422.906-.633.018-.014.033-.014.049-.032h.016c.405-.275.794-.55,1.2-.792h.016a23.879,23.879,0,0,1,2.656-1.473h.016a14.087,14.087,0,0,1,1.652-.682,14.162,14.162,0,0,0-1.813.94c-.892.517-1.911,1.181-2.931,1.894-.292.211-.583.405-.875.613-1.116.8-2.218,1.588-3.124,2.268-.859.649-1.554,1.182-1.974,1.508-.243.191-.389.307-.4.322a1.642,1.642,0,0,0-.178.162.242.242,0,0,0-.081.067h-.016c-.1.093-.212.191-.308.273l-.469.647a3.2,3.2,0,0,0-.405.666c-.1.242-.2.468-.292.693a3.984,3.984,0,0,0-.178.68c-.016.05-.016.1-.032.146-.017.065-.032.113-.049.18a1.892,1.892,0,0,0-.033.291,2.827,2.827,0,0,0-.015.81c-.016.032,0,.08,0,.112,0,.211.033.34.015.357h-.031v.049A33.057,33.057,0,0,0,19.8,54.75a1.26,1.26,0,0,0,.1.162,19.858,19.858,0,0,1,1.635-3.141,5.779,5.779,0,0,1,.518-.761c.437-.6,1.23-2.121,2.364-3.918.258-.4.533-.826.841-1.262a2.173,2.173,0,0,1,.162-.242c.339-.486.711-1,1.118-1.49.242-.307.484-.616.744-.907a10.978,10.978,0,0,0-.649.891c-.306.438-.615.906-.921,1.391-.065.1-.13.2-.195.308-.243.405-.5.842-.761,1.262-.857,1.457-1.618,2.883-2.086,3.691v.018c-.131.211-.228.373-.294.484a9.706,9.706,0,0,0-.517.909c-.017.015-.017.031-.033.048a16.043,16.043,0,0,0-.971,2.217c-.275.746-.4,1.262-.454,1.426.033.047.065.113.1.162A31.577,31.577,0,0,0,26.4,63.734q.437-1.506.971-2.914l.049-.144v-.018c.145-.4.309-.791.453-1.181h.017c.209-.565.438-1.133.68-1.666.372-.842.744-1.653,1.133-2.4.373-.76.744-1.457,1.118-2.105.225-.4.436-.778.646-1.133a26.005,26.005,0,0,1,2.234-3.27c-.1.178-.68,1.28-1.474,2.832-.161.34-.339.7-.532,1.071-.324.63-.664,1.326-1,2.039-.372.761-.744,1.57-1.1,2.363-.258.582-.518,1.166-.746,1.732-.289.68-.549,1.327-.775,1.926,0,.018-.016.033-.016.049a.784.784,0,0,0-.065.2.056.056,0,0,0-.017.047.126.126,0,0,0-.032.1c-.2.519-.341.988-.454,1.408-.242.924-.389,1.539-.421,1.686a.456.456,0,0,0,.1.08c.437.4.874.793,1.312,1.132a.23.23,0,0,1,.13.114,38.349,38.349,0,0,0,9.664,5.65c.081.033.161.047.226.08-.047-.144-.112-.275-.177-.437a13.066,13.066,0,0,1-.422-1.393c-.064-.242-.1-.515-.146-.791a5.935,5.935,0,0,1-.1-.73v-.1a7.935,7.935,0,0,1,.031-1.652c.082-.551.179-1.12.309-1.682.114-.473.243-.957.371-1.426a.016.016,0,0,0,.018-.015.125.125,0,0,1,.015-.065c.211-.73.454-1.459.7-2.154h.015c.358-1.051.746-2.024,1.086-2.865h.016c.581-1.393,1.069-2.4,1.18-2.624-.145.471-.484,1.344-.889,2.461-.307.827-.647,1.8-.972,2.784-.226.7-.452,1.41-.663,2.123a.053.053,0,0,1-.016.031v.016c-.147.519-.275,1-.4,1.49a12.931,12.931,0,0,0-.438,3.058v.016a1.342,1.342,0,0,0,.015.357h.018c-.018.032,0,.067,0,.1.016.049.016.1.032.145v.017c.033.129.065.258.1.389.015.08.031.144.047.226a.983.983,0,0,0,.065.194,5.344,5.344,0,0,0,.145.551,12.443,12.443,0,0,0,.519,1.261c.179.373.339.649.453.842.066.129.112.195.146.26.7.226,1.149.357,1.165.357l1.182.289c5.779,1.426,10.458,2.575,14.618,8.662a13.769,13.769,0,0,1,.827,1.248c.145.225.274.467.42.711C57.81,83.146,57.856,83.227,57.906,83.307Z"/>
          <path class="cls-53" d="M0,42.316a46.068,46.068,0,0,1,6.1,1.766,14.676,14.676,0,0,0,5.991,11.17,11.178,11.178,0,0,1-5.553-2.314C2.962,49.941,0,42.316,0,42.316Z"/>
          <path class="cls-54" d="M14.036,66.777c-4.47-1.341-10.2-7.154-10.2-7.154a43.69,43.69,0,0,1,8.352-.842c.2,1.828,1.474,5.133,6.8,8.176A10.534,10.534,0,0,1,14.036,66.777Z"/>
          <path class="cls-55" d="M31.584,74.891a10.335,10.335,0,0,1-5.295,3.236c-4.272.859-11.588-1.684-11.588-1.684a41.776,41.776,0,0,1,5.582-4.08C20.932,74.094,23.456,75.877,31.584,74.891Z"/>
          <path class="cls-56" d="M7.981,38.5a9.869,9.869,0,0,1-3.093-2.445c-2.735-3.3-4.4-10.44-4.4-10.44a45.948,45.948,0,0,1,5.18,2.8A13.545,13.545,0,0,0,7.981,38.5Z"/>
          <path class="cls-57" d="M11.752,15.266c-.048.082-.1.177-.145.275a15.908,15.908,0,0,0-.827,1.912l-.015.014c0,.017-.016.017-.016.033-.048.146-.1.291-.146.438s-.1.308-.145.468c-.017.032-.017.049-.034.082V18.5a11.5,11.5,0,0,0-.339,1.391,16.55,16.55,0,0,0-.34,3.724c0,.293.016.584.033.891-.082-.114-.162-.242-.243-.371a8.849,8.849,0,0,1-.681-1.282,3.562,3.562,0,0,1-.192-.453,11.632,11.632,0,0,1-.5-1.845,19.733,19.733,0,0,1-.339-2.848c-.033-.389-.05-.793-.065-1.184v-.013c-.018-.293-.018-.553-.018-.811v-.162c0-.34,0-.68.018-1,0-.162,0-.322.015-.469a3.808,3.808,0,0,1,.017-.439c0-.289.015-.563.033-.809.046-1.05.112-1.732.112-1.732s.6.568,1.458,1.49c.176.193.371.391.581.615.278.293.567.616.859.955.128.163.274.325.4.5C11.413,14.846,11.59,15.057,11.752,15.266Z"/>
          <path class="cls-58" d="M17.613,5.973c-.049.082-.079.179-.13.259a23.523,23.523,0,0,0-.954,2.153.614.614,0,0,0-.049.113v.018c-.05.113-.1.242-.145.388a20.119,20.119,0,0,0-.859,3.254v.016a14.409,14.409,0,0,0-.194,1.894v.018a13.389,13.389,0,0,0-.016,1.391,6.682,6.682,0,0,1-.438-.889,10.266,10.266,0,0,1-.421-1.217,6.278,6.278,0,0,1-.145-.793c-.016-.178-.05-.34-.065-.533-.016-.178-.016-.373-.016-.567v-.242a19.344,19.344,0,0,1,.291-3.142,39.522,39.522,0,0,1,1.263-5.211s.616.888,1.393,2.217C17.274,5.373,17.45,5.666,17.613,5.973Z"/>
          <path class="cls-59" d="M19.442,30.271a13.8,13.8,0,0,1,3.173-5.779,3.891,3.891,0,0,0,1.263.682,14.178,14.178,0,0,0,7.171.324,16.667,16.667,0,0,1-3.333,3.19C24.154,31.066,19.442,30.271,19.442,30.271Z"/>
          <path class="cls-60" d="M30.839,33.754a20.618,20.618,0,0,1-4.145,4.711,1.006,1.006,0,0,1-.16.129,9.409,9.409,0,0,1-1.879,1.052,10.5,10.5,0,0,1-2.169.647,12.322,12.322,0,0,1-2.413.273c-.55.018-1,0-1.31-.011h-.081c-.1,0-.162-.018-.227-.018a.494.494,0,0,0-.113-.017.289.289,0,0,1,.016-.081,14.5,14.5,0,0,1,1.57-4l.244.049c.111.016.21.016.29.031a11.042,11.042,0,0,0,2.073,0v-.015a7.564,7.564,0,0,0,1.035-.113.827.827,0,0,0,.2-.032h.015c.228-.033.454-.082.68-.133a3.7,3.7,0,0,0,.583-.144,15.772,15.772,0,0,0,2.219-.711c.064-.016.112-.047.177-.064.535-.229,1.069-.456,1.6-.7C29.641,34.336,30.24,34.045,30.839,33.754Z"/>
          <path class="cls-61" d="M33.138,41.574c-.161.5-.34,1.035-.534,1.555-.211.547-.436,1.1-.68,1.633-.179.422-.373.826-.583,1.23a12.555,12.555,0,0,1-1.376,2.137c-2.558,3.107-6.945,3.869-8.11,4.016h-.033a1.525,1.525,0,0,1-.26.031s-.015-.112-.031-.307v-.1a10.417,10.417,0,0,1,0-1.263A14.091,14.091,0,0,1,21.9,47.48c.065-.257.131-.517.211-.791.048-.017.113-.017.163-.031a14.682,14.682,0,0,0,2.265-.715c.243-.095.487-.193.729-.291a.516.516,0,0,0,.146-.064,2.484,2.484,0,0,0,.292-.115c.647-.258,1.279-.549,1.909-.84v-.018c.665-.306,1.313-.631,1.96-1h.032c.793-.439,1.587-.89,2.346-1.361C32.3,42.043,32.7,41.814,33.138,41.574Z"/>
          <path class="cls-62" d="M36.8,49.084v.033c-.1.791-.226,1.617-.389,2.444a20.3,20.3,0,0,1-.5,2.039,12.017,12.017,0,0,1-.631,1.668c-.082.162-.147.308-.227.453-1.844,3.482-5.86,5.1-7.074,5.521-.017,0-.017,0-.032.016-.21.066-.325.1-.325.1s-.08-.242-.194-.679v-.018c-.049-.226-.112-.5-.177-.824-.049-.357-.114-.746-.163-1.184A11.97,11.97,0,0,1,27,57.275v-.324a12.893,12.893,0,0,1,.243-2.33c.032,0,.08-.018.112-.018a10.94,10.94,0,0,0,3.466-1.294c.306-.163.6-.325.874-.5a23.428,23.428,0,0,0,2.04-1.379c.095-.063.194-.143.291-.209.794-.582,1.7-1.246,2.573-1.991l.049-.017C36.7,49.166,36.747,49.133,36.8,49.084Z"/>
          <path class="cls-63" d="M43.871,58.926a13.163,13.163,0,0,1-.421,3.433c-1.164,4.047-5.519,6.233-5.519,6.233a14.484,14.484,0,0,1-1.458-4.307,18.077,18.077,0,0,0,2.445-1.439A37.436,37.436,0,0,0,43.871,58.926Z"/>
          <path class="cls-64" d="M22.455,13.127A10.532,10.532,0,0,1,22,9.551c1.829.162,4.468-2.946,5.357-3.756.259-.242.535-.484.794-.729a13.346,13.346,0,0,1-.924,3.627A9.892,9.892,0,0,1,22.455,13.127Z"/>
          <path class="cls-65" d="M32.944,14.6a14.8,14.8,0,0,1-3.205,2.654c-3.237,1.8-7.238.793-7.238.793a11.853,11.853,0,0,1,3.238-4.856c1.037,1.166,4.7,1.344,5.667,1.409A11.958,11.958,0,0,0,32.944,14.6Z"/>
          <g class="cls-66">
            <path class="cls-67" d="M9.778,45.732l-.147.373L8.143,49.668l-.049.129-.243.6L6.734,53.084l-.162.371-.031-.031a12.183,12.183,0,0,1-1.426-1.477l.129-.306L6.572,48.42l.016-.031.21-.5L7.916,45.2l.129-.324C8.644,45.133,9.226,45.426,9.778,45.732Z"/>
          </g>
          <g class="cls-68">
            <path class="cls-69" d="M16.511,59.363l-.242.584L14.927,63.2l-.211.5-.08.176L13.518,66.6l-.244.6a14.887,14.887,0,0,1-1.731-.826l.226-.566,1.084-2.621L13.1,62.6l.274-.661.988-2.38.258-.616a8.853,8.853,0,0,1,1.684.34A1.145,1.145,0,0,1,16.511,59.363Z"/>
          </g>
          <g class="cls-70">
            <path class="cls-71" d="M29.172,70.777l-.179.405-1.215,2.963h-.014l-.227.548-.2.471-1.229,2.977-.21.519a10.02,10.02,0,0,1-2.138.115l.193-.47L25.3,75.051h.015l.21-.533,1.539-3.709.179-.436A9,9,0,0,1,29.172,70.777Z"/>
          </g>
          <g class="cls-72">
            <path class="cls-73" d="M31.6,71.764l-.146.39-.534,1.278-.244.6H30.66l-.4,1-.679,1.621-.016.016-.26.648a8.934,8.934,0,0,1-1.554.84l.244-.582v-.015l1.019-2.448.325-.773.226-.569.873-2.087.162-.4C30.954,71.441,31.293,71.6,31.6,71.764Z"/>
          </g>
          <g class="cls-74">
            <path class="cls-75" d="M43.855,59.98a12.337,12.337,0,0,1-.113,1.375l-.066.032L40.747,63.07l-.567.325-.567.324L39.6,63.7l-.923.551-.226.129-.454.244-.86.484h-.014l-.422.242-.079.049a8.477,8.477,0,0,1-.213-1.166l.049-.015,1.184-.662.726-.424.033-.014.47-.275.016-.018.324-.193h.015l2.494-1.44,2.1-1.2Z"/>
          </g>
          <g class="cls-76">
            <path class="cls-77" d="M36.846,49.1a6.984,6.984,0,0,1-.1.8c-.032.291-.081.6-.127.888-.034.244-.065.487-.115.729l-.1.049-3.964,2.283-1.75,1-.987.566-1.99,1.149-.018-.014-.5.291-.179.1L27,56.951a12.893,12.893,0,0,1,.243-2.33v-.033h.016l.129-.063v-.017l4.079-2.332.76-.438,1.863-1.068L36.6,49.23l.049-.017.145-.1Z"/>
          </g>
          <g class="cls-78">
            <path class="cls-79" d="M36.052,53.52c-.065.244-.13.484-.21.712a7.146,7.146,0,0,1-.291.873l-.018.016-.258.147-4.63,2.654-.566.326-.018-.018-.55.323-.389.228-.275.162-.954.534h-.017l-.275.162h-.016l-.339.2-.065.033c-.049-.357-.1-.762-.129-1.2l.031-.018,1.019-.564.471-.275.258-.145.52-.311.242-.144,1.166-.662L35.906,53.6Z"/>
          </g>
          <g class="cls-80">
            <path class="cls-81" d="M17,43.66l.1-.017a2.022,2.022,0,0,1-.065.341.724.724,0,0,1-.081-.144c-.033-.049-.064-.115-.1-.164Z"/>
          </g>
          <g class="cls-82">
            <path class="cls-83" d="M33.429,41.041c-.081.322-.194.662-.307,1-.065.227-.145.484-.228.728a2.009,2.009,0,0,0-.112.323l-.178.035-2.995.484h-.032l-1.311.209-1.637.26-.1.016-3.32.535-.275.047a7.988,7.988,0,0,1,.971-1.52,8.493,8.493,0,0,1,.648-.713l.631-.1,4.906-.778v-.017l3.2-.5Z"/>
          </g>
          <g class="cls-84">
            <path class="cls-85" d="M26.517,31.391c.566-.211,1.166-.4,1.731-.567l-.226.356L26.063,34.4l-.308.536h-.016l-.4.679-.292.469-1.375,2.283h-.017l-.307.5-.258.438-.6.986-.325.551h-.015a11.25,11.25,0,0,1-1.863.209c-.176.017-.355.017-.516.017l.306-.5,1.02-1.681h.017l.226-.389.065-.111.1-.149.358-.6.68-1.118v-.015l1.764-2.9.711-1.166.358-.582C25.739,31.7,26.127,31.535,26.517,31.391Z"/>
          </g>
          <g class="cls-86">
            <path class="cls-87" d="M33.2,20.381l-.211.357-.519.84-2.46,4.082-.892,1.471-.549.908-.517.857-.018.016a2.207,2.207,0,0,1-.322.246c-.228.143-.454.289-.7.418a3.026,3.026,0,0,1-.355.162l-.016.018a4.124,4.124,0,0,1-.6.275l.178-.324.194-.309v-.017l2.187-3.592,1.585-2.605.081-.147h.017l1.425-2.363.129-.2c.42-.1.793-.161,1.15-.223h.016a.291.291,0,0,1,.08.047A.64.64,0,0,1,33.2,20.381Z"/>
          </g>
          <g class="cls-88">
            <path class="cls-89" d="M33.4,10.539l-.13.211-.631,1.035-.567.955h-.016l-.033.065-.291.486-.015.016-.2.322-.565.941-.358.6L29.43,17.1l-.274.451h-.015v.017l-.229.374-.144.242a5.065,5.065,0,0,1-.956.291,4.67,4.67,0,0,1-.631.146L27.2,18.6l.325-.536,1.294-2.138.89-1.471L30,14l.017-.051.146-.242.371-.615.374-.616.679-1.117.161-.258.21-.339C32.443,10.668,32.928,10.6,33.4,10.539Z"/>
          </g>
          <g class="cls-90">
            <path class="cls-91" d="M28.232,4.9v.018c-.048.324-.08.631-.13.937s-.1.633-.16.942L27.86,6.67V6.652l-.469-.888L26.824,4.68l-.177-.358-.794-1.506-.145-.308c.275-.289.55-.565.826-.824l.178.308L27.439,3.4l.745,1.409Z"/>
          </g>
          <g class="cls-92">
            <path class="cls-93" d="M19.263,9.568l-.129.145-2.055,2.316v.016l-.145.162v.016l-1.652,1.845v.018l-.421.469-.033.033-.127.16a7.594,7.594,0,0,1-.374-1.295l.08-.082,1.069-1.2v-.016l1.264-1.424.145-.164,1.779-2.006.13-.146C18.957,8.807,19.119,9.18,19.263,9.568Z"/>
          </g>
          <g class="cls-94">
            <path class="cls-95" d="M9.485,31.406l-.145.34L8.094,34.758,8.03,34.9l-.924,2.266-.275.617V37.8l-.161.387c-.307-.223-.6-.467-.892-.727l.146-.373.534-1.262.777-1.879.05-.113,1.2-2.914.148-.34C8.936,30.855,9.226,31.131,9.485,31.406Z"/>
          </g>
          <g class="cls-96">
            <path class="cls-97" d="M10.83,14.148l-.129.309-.632,1.521-1.91,4.581-.048.146A14.881,14.881,0,0,1,7.9,19.184c-.049-.405-.08-.8-.1-1.182,0-.1-.015-.2-.015-.291-.017-.406-.032-.793-.032-1.184v-.013L8.4,14.959,9.26,12.9l.13-.324c.176.193.371.391.581.615C10.249,13.486,10.538,13.809,10.83,14.148Z"/>
          </g>
        </g>
      </g>
    </g>
  </g>
</svg>
